<svg id="Shapes" xmlns="http://www.w3.org/2000/svg" viewBox="0 0 132 23.08"><defs><style>.cls-1{fill:#fff;fill-rule:evenodd;}</style></defs><title>behance</title><path class="cls-1" d="M0,0C3,0,5.66,0,8.35,0a49.31,49.31,0,0,1,4.94.2c2.52,0.29,4.18,1.7,4.63,3.79a5.16,5.16,0,0,1-2.34,6c-0.09.06-.15,0.14-0.31,0.27l0.78,0.36a4.79,4.79,0,0,1,2.7,3c1.28,4.17-.52,7.79-5.3,8.68a13.88,13.88,0,0,1-2.41.21c-3.24,0-6.67,0-9.91,0-0.29,0-1.13,0-1.13,0V0ZM5,18.57c3,0,4.38.11,6.42,0a2.68,2.68,0,0,0,2.73-2.82,2.73,2.73,0,0,0-2.63-3.13c-1.93-.15-4-0.09-6-0.11-0.14,0,.43.07-0.57,0.11v6ZM5,9c2,0,3.93.09,5.77,0a2.41,2.41,0,0,0,2.48-2.59,2.31,2.31,0,0,0-2.38-2.47c-1.79-.12-3.71-0.06-5.5-0.07A0.75,0.75,0,0,0,5,4V9Z"/><path class="cls-1" d="M54,23.08H49.56c0-1,0-.95,0-1.26,0-2.7,0-5.55,0-8.25a11.53,11.53,0,0,0-.11-1.51c-0.28-1.9-1-2.67-2.65-2.7a2.92,2.92,0,0,0-3.33,2.57,16.53,16.53,0,0,0-.2,2.54c0,2.75,0,4.61,0,8.61H39v-23h5V8.33a2.63,2.63,0,0,1,1.47-1.65,6.06,6.06,0,0,1,6.4-.06,4.31,4.31,0,0,1,2.06,3.64A35.17,35.17,0,0,1,54.05,14C54.07,16.88,54,19.08,54,23.08Z"/><path class="cls-1" d="M66.66,21.23a8.22,8.22,0,0,1-7.29,1.43,4.28,4.28,0,0,1-3.5-4.31c-0.08-2.44.94-4.06,3.2-4.69,1.52-.42,3.11-0.58,4.67-0.86a13.85,13.85,0,0,0,1.75-.37A1.41,1.41,0,0,0,66.68,11a1.83,1.83,0,0,0-1.09-2,4,4,0,0,0-3.48.11,2.82,2.82,0,0,0-1,1.36,0.85,0.85,0,0,1-.93.7c-1.22,0-2.44,0-3.73,0a4.84,4.84,0,0,1,3-4.54,11.93,11.93,0,0,1,9.28-.12,3.79,3.79,0,0,1,2.5,3.89q0,4.86.08,9.71a17.74,17.74,0,0,0,.37,2.35c-1.32,0-2.7.07-4.06-.05A3.08,3.08,0,0,1,66.66,21.23Zm0-6.39c-1,.19-1.84.32-2.71,0.52a11.09,11.09,0,0,0-2.41.65,2,2,0,0,0-.4,3.42,3.86,3.86,0,0,0,3.7.21,2.81,2.81,0,0,0,1.81-2.58C66.68,16.33,66.63,15.58,66.63,14.84Z"/><path class="cls-1" d="M36.95,16.08H25.23a3.7,3.7,0,0,0,2.12,3.51,4.26,4.26,0,0,0,4.94-1.41,1.23,1.23,0,0,1,1.16-.65c1,0,2,0,3.09,0-0.88,3-2.71,4.78-5.7,5.26s-5.81.07-8-2.25C20.27,17.89,19.86,13,21.86,9.6A8.31,8.31,0,0,1,31.17,6c3.32,0.93,5,3.68,5.55,6.93C36.88,13.81,36.87,15.08,36.95,16.08Zm-4.68-3c0-3-1.32-3.4-3.45-3.4s-3.57.4-3.61,3.4h7.07Z"/><path class="cls-1" d="M124.17,16.08H112.44c-0.41,2,1.66,4.11,4.27,3.8a4.13,4.13,0,0,0,3-1.9,1,1,0,0,1,.63-0.42c1.11,0,2.22-.05,3.43-0.05a6.76,6.76,0,0,1-4.53,5,9.8,9.8,0,0,1-5.85.06c-3.67-1.07-5.79-4.44-5.56-8.74a8.26,8.26,0,0,1,10.81-7.7c3.35,1,4.85,3.92,5.35,7.21C124.13,14.09,124.11,15.08,124.17,16.08Zm-4.65-3c0-3-1.29-3.37-3.26-3.4-2.31,0-3.82.4-3.87,3.4h7.13Z"/><path class="cls-1" d="M78,23.08H74v-16h4V8.23a0.53,0.53,0,0,0,.19,0c1.86-2.47,4.36-2.83,7.14-2.15,2.39,0.58,3.42,2.71,3.5,5,0.13,3.89,0,7,0,12H84V21.51c0-2.67.23-5.34,0.22-8a10.9,10.9,0,0,0-.06-1.87,2.5,2.5,0,0,0-2.5-2.43,3,3,0,0,0-3.15,2,9.72,9.72,0,0,0-.38,2.64c-0.05,2.79,0,5.88,0,8.67C78.1,22.58,78.08,22.08,78,23.08Z"/><path class="cls-1" d="M106.5,11.92c-1.3,0-2.61,0-3.92,0a0.77,0.77,0,0,1-.48-0.5,2.87,2.87,0,0,0-2.54-2.22,3.37,3.37,0,0,0-3.45,1.43,7.51,7.51,0,0,0,0,7.52,3.24,3.24,0,0,0,3.28,1.4,3,3,0,0,0,2.78-2.44,1,1,0,0,1,1.24-.87c1,0.05,2.09,0,3.25,0A6.59,6.59,0,0,1,104.44,21c-2.65,2.28-5.73,2.47-8.86,1.36s-4.74-3.69-4.95-7c-0.22-3.56.68-6.78,4.07-8.57a8.79,8.79,0,0,1,9.53.59A5.26,5.26,0,0,1,106.5,11.92Z"/><path class="cls-1" d="M24,4.08v-3h9v3H24Z"/><path class="cls-1" d="M130,5.73V6.85a1.14,1.14,0,0,1-.31.19,1.62,1.62,0,0,1-.54-0.5c-0.05-.77-0.05-1.56-0.05-2.4,1.13-.25.91,1,1.48,1.28C131.13,5.1,131,4,132,4.11V6.9s-0.5,0-.66-1.17a1.73,1.73,0,0,1-.65.57A0.82,0.82,0,0,1,130,5.73Z"/><path class="cls-1" d="M127.87,4.87a13.66,13.66,0,0,1,0,1.39,2.72,2.72,0,0,1-.29.72,2.8,2.8,0,0,1-.34-0.76,10.82,10.82,0,0,1,0-1.32l-0.77-.58a8.69,8.69,0,0,1,.85-0.26,1.11,1.11,0,0,1,.53,0,7.3,7.3,0,0,1,.82.3Z"/></svg>