<svg id="Shapes" xmlns="http://www.w3.org/2000/svg" viewBox="0 0 132 23.08"><defs><style>.cls-1{fill:#fff;fill-rule:evenodd;}</style></defs><title>behance</title><path class="cls-1" d="M0 0h8.35a49.31 49.31 0 0 1 4.94.2c2.52.29 4.18 1.7 4.63 3.79a5.16 5.16 0 0 1-2.34 6c-.09.06-.15.14-.31.27l.78.36a4.79 4.79 0 0 1 2.7 3c1.28 4.17-.52 7.79-5.3 8.68a13.88 13.88 0 0 1-2.41.21H0V0zm5 18.57c3 0 4.38.11 6.42 0a2.68 2.68 0 0 0 2.73-2.82 2.73 2.73 0 0 0-2.63-3.13c-1.93-.15-4-.09-6-.11-.14 0 .43.07-.57.11v6zM5 9c2 0 3.93.09 5.77 0a2.41 2.41 0 0 0 2.48-2.59 2.31 2.31 0 0 0-2.38-2.47c-1.79-.12-3.71-.06-5.5-.07A.75.75 0 0 0 5 4v5zM54 23.08h-4.44v-1.26-8.25a11.53 11.53 0 0 0-.11-1.51c-.28-1.9-1-2.67-2.65-2.7a2.92 2.92 0 0 0-3.33 2.57 16.53 16.53 0 0 0-.2 2.54v8.61H39v-23h5v8.25a2.63 2.63 0 0 1 1.47-1.65 6.06 6.06 0 0 1 6.4-.06 4.31 4.31 0 0 1 2.06 3.64 35.17 35.17 0 0 1 .12 3.74c.02 2.88-.05 5.08-.05 9.08zM66.66 21.23a8.22 8.22 0 0 1-7.29 1.43 4.28 4.28 0 0 1-3.5-4.31c-.08-2.44.94-4.06 3.2-4.69 1.52-.42 3.11-.58 4.67-.86a13.85 13.85 0 0 0 1.75-.37A1.41 1.41 0 0 0 66.68 11a1.83 1.83 0 0 0-1.09-2 4 4 0 0 0-3.48.11 2.82 2.82 0 0 0-1 1.36.85.85 0 0 1-.93.7h-3.73a4.84 4.84 0 0 1 3-4.54 11.93 11.93 0 0 1 9.28-.12 3.79 3.79 0 0 1 2.5 3.89q0 4.86.08 9.71a17.74 17.74 0 0 0 .37 2.35c-1.32 0-2.7.07-4.06-.05a3.08 3.08 0 0 1-.96-1.18zm0-6.39c-1 .19-1.84.32-2.71.52a11.09 11.09 0 0 0-2.41.65 2 2 0 0 0-.4 3.42 3.86 3.86 0 0 0 3.7.21 2.81 2.81 0 0 0 1.81-2.58c.03-.73-.02-1.48-.02-2.22zM36.95 16.08H25.23a3.7 3.7 0 0 0 2.12 3.51 4.26 4.26 0 0 0 4.94-1.41 1.23 1.23 0 0 1 1.16-.65h3.09c-.88 3-2.71 4.78-5.7 5.26s-5.81.07-8-2.25c-2.57-2.65-2.98-7.54-.98-10.94A8.31 8.31 0 0 1 31.17 6c3.32.93 5 3.68 5.55 6.93.16.88.15 2.15.23 3.15zm-4.68-3c0-3-1.32-3.4-3.45-3.4s-3.57.4-3.61 3.4h7.07zM124.17 16.08h-11.73c-.41 2 1.66 4.11 4.27 3.8a4.13 4.13 0 0 0 3-1.9 1 1 0 0 1 .63-.42c1.11 0 2.22-.05 3.43-.05a6.76 6.76 0 0 1-4.53 5 9.8 9.8 0 0 1-5.85.06c-3.67-1.07-5.79-4.44-5.56-8.74a8.26 8.26 0 0 1 10.81-7.7c3.35 1 4.85 3.92 5.35 7.21.14.75.12 1.74.18 2.74zm-4.65-3c0-3-1.29-3.37-3.26-3.4-2.31 0-3.82.4-3.87 3.4h7.13zM78 23.08h-4v-16h4v1.15a.53.53 0 0 0 .19 0c1.86-2.47 4.36-2.83 7.14-2.15 2.39.58 3.42 2.71 3.5 5 .13 3.89 0 7 0 12H84v-1.57c0-2.67.23-5.34.22-8a10.9 10.9 0 0 0-.06-1.87 2.5 2.5 0 0 0-2.5-2.43 3 3 0 0 0-3.15 2 9.72 9.72 0 0 0-.38 2.64c-.05 2.79 0 5.88 0 8.67-.03.06-.05-.44-.13.56zM106.5 11.92h-3.92a.77.77 0 0 1-.48-.5 2.87 2.87 0 0 0-2.54-2.22 3.37 3.37 0 0 0-3.45 1.43 7.51 7.51 0 0 0 0 7.52 3.24 3.24 0 0 0 3.28 1.4 3 3 0 0 0 2.78-2.44 1 1 0 0 1 1.24-.87c1 .05 2.09 0 3.25 0a6.59 6.59 0 0 1-2.22 4.76c-2.65 2.28-5.73 2.47-8.86 1.36s-4.74-3.69-4.95-7c-.22-3.56.68-6.78 4.07-8.57a8.79 8.79 0 0 1 9.53.59 5.26 5.26 0 0 1 2.27 4.54zM24 4.08v-3h9v3h-9zM130 5.73v1.12a1.14 1.14 0 0 1-.31.19 1.62 1.62 0 0 1-.54-.5c-.05-.77-.05-1.56-.05-2.4 1.13-.25.91 1 1.48 1.28.55-.32.42-1.42 1.42-1.31V6.9s-.5 0-.66-1.17a1.73 1.73 0 0 1-.65.57.82.82 0 0 1-.69-.57zM127.87 4.87a13.66 13.66 0 0 1 0 1.39 2.72 2.72 0 0 1-.29.72 2.8 2.8 0 0 1-.34-.76 10.82 10.82 0 0 1 0-1.32l-.77-.58a8.69 8.69 0 0 1 .85-.26 1.11 1.11 0 0 1 .53 0 7.3 7.3 0 0 1 .82.3z"/></svg>