<svg id="Shapes" xmlns="http://www.w3.org/2000/svg" viewBox="0 0 575.85 103.62"><defs><style>.cls-1{fill:#fff;}</style></defs><title>codepen</title><g id="UZAgpN.tif"><path class="cls-1" d="M134.28 0C149.64 10.3 165 20.67 180.4 30.85c3 1.95 4.31 4.09 4.23 7.71-.22 9.19.12 18.39-.22 27.57a8.63 8.63 0 0 1-3.15 6c-14.93 10.23-30.07 20.15-45.1 30.23a5.67 5.67 0 0 1-7.15 0c-15-10.09-30.18-20-45.11-30.23a8.61 8.61 0 0 1-3.08-6c-.33-9.32 0-18.66-.21-28-.06-3.3 1.2-5.27 3.88-7C100 20.79 115.5 10.37 131 0h3.3zM172 36.08l-35-23.31c0 6.92-.09 12.79.08 18.65a4.76 4.76 0 0 0 1.78 3.27q7.7 5.45 15.69 10.48a4.08 4.08 0 0 0 3.56.13c4.5-2.78 8.89-5.83 13.89-9.22zm0 31.62c-5.1-3.4-9.66-6.58-14.41-9.46-.78-.48-2.58 0-3.55.66-5 3.15-9.84 6.44-14.68 9.78-.94.65-2.25 1.69-2.28 2.59-.16 6.33-.08 12.68-.08 19.73zm-43.89-54.88l-35 23.28c5.1 3.4 9.68 6.57 14.42 9.49.72.45 2.37.07 3.23-.48 5.19-3.32 10.31-6.77 15.38-10.27.82-.56 1.83-1.6 1.85-2.44.19-6.26.12-12.51.12-19.58zm-35 54.9l35 23.25c0-7.05.07-13.18-.08-19.31a3.9 3.9 0 0 0-1.66-2.55C121.21 65.52 116 62 110.66 58.63a4.09 4.09 0 0 0-3.57-.11c-4.53 2.77-8.89 5.82-13.93 9.2zm23.68-15.81c5.1 3.41 9.51 6.4 14 9.29.71.46 2 .91 2.54.58 4.92-3.09 9.73-6.35 15-9.87-5.13-3.43-9.52-6.46-14-9.28a3.71 3.71 0 0 0-3.23-.19c-4.61 2.88-9.1 6-14.26 9.47zm-16.13 0L90 44.78v14.29zm74.63-7.28l-10.88 7.3L175.34 59V44.64zM0 46.13c2.1-7 4.74-13.59 9.89-19 13-13.79 35.31-15.21 49.35-2.71l-5.88 7C38.52 22.78 24.94 24.1 16 34.87a26.41 26.41 0 0 0 0 34.06c9 10.77 22.54 12.09 37.33 3.48l6.11 7.15C49.62 87.28 38.9 90 27 86.78 13.66 83.14 5.1 74.36 1.2 61 .87 59.9.4 58.79 0 57.67V46.13zM527.17 36.32v49.22h-9.61c-.07-1.15-.19-2.21-.19-3.28V24.64c0-2.78.28-5.36 3.26-6.42s4.87.69 6.65 2.84Q544.6 42 562 62.79c1 1.25 2.11 2.47 3.82 4.46v-49h9.83c.06 1.3.15 2.51.16 3.71v56.79c0 2.87-.05 5.69-3.27 6.82s-5.07-1-6.9-3.17q-17.31-20.89-34.74-41.71c-.95-1.15-1.9-2.27-3.73-4.37zM212.18 51.9V24.31c0-5 1.43-6.34 6.41-6.38 6.18 0 12.36-.11 18.53 0a34 34 0 0 1 0 67.91c-6.31.13-12.63.07-18.94 0-4.47 0-5.94-1.46-6-6-.06-9.27 0-18.61 0-27.94zm10-24.92V76c6 0 11.6.43 17.15-.09C250.94 74.8 259.48 65.8 260.77 54c1.16-10.63-5.62-22-16.26-24.78-7.1-1.89-14.77-1.58-22.32-2.22zM454.29 27.4v19.41h22.38v9.78h-22.2v19.55h35.19v9.74h-39.1c-4.52 0-6-1.42-6-5.9-.06-18.66 0-37.32 0-56 0-3 .79-5.86 4.28-5.91 13.49-.17 27.04-.07 40.87-.07v9.4h-35.42zM342.3 17.92v9.53H307v19.41h22.15v9.9h-22.23v19.42h35.37v9.35a31.5 31.5 0 0 1-3.23.34h-35.4c-5.28 0-6.61-1.29-6.62-6.57Q297 51.92 297 24.55c0-5.33 1.3-6.6 6.57-6.62 12.8-.03 25.54-.01 38.73-.01zM381.84 56.79v28.89h-9.66v-4-56.83c0-5.79 1.18-6.95 7-7 6.31 0 12.63-.11 18.94 0 11 .23 19.42 8.64 19.44 19.31a19.59 19.59 0 0 1-19.36 19.5c-5.27.26-10.59.13-16.36.13zm.35-28.89v19c5.9 0 11.5.22 17.08-.07 4.68-.24 8.29-4.37 8.52-9s-2.84-9.39-7.5-9.8c-5.95-.53-11.96-.13-18.1-.13z"/></g></svg>