<svg id="Shapes" xmlns="http://www.w3.org/2000/svg" viewBox="0 0 575.85 103.62"><defs><style>.cls-1{fill:#fff;}</style></defs><title>codepen</title><g id="UZAgpN.tif"><path class="cls-1" d="M134.28,0C149.64,10.3,165,20.67,180.4,30.85c3,1.95,4.31,4.09,4.23,7.71-0.22,9.19.12,18.39-.22,27.57a8.63,8.63,0,0,1-3.15,6c-14.93,10.23-30.07,20.15-45.1,30.23a5.67,5.67,0,0,1-7.15,0c-15-10.09-30.18-20-45.11-30.23a8.61,8.61,0,0,1-3.08-6c-0.33-9.32,0-18.66-.21-28-0.06-3.3,1.2-5.27,3.88-7C100,20.79,115.5,10.37,131,0h3.3ZM172,36.08L137,12.77c0,6.92-.09,12.79.08,18.65a4.76,4.76,0,0,0,1.78,3.27q7.7,5.45,15.69,10.48a4.08,4.08,0,0,0,3.56.13C162.61,42.52,167,39.47,172,36.08Zm0,31.62c-5.1-3.4-9.66-6.58-14.41-9.46-0.78-.48-2.58,0-3.55.66-5,3.15-9.84,6.44-14.68,9.78-0.94.65-2.25,1.69-2.28,2.59C136.92,77.6,137,83.95,137,91ZM128.11,12.82l-35,23.28c5.1,3.4,9.68,6.57,14.42,9.49,0.72,0.45,2.37.07,3.23-.48,5.19-3.32,10.31-6.77,15.38-10.27,0.82-.56,1.83-1.6,1.85-2.44C128.18,26.14,128.11,19.89,128.11,12.82Zm-35,54.9,35,23.25c0-7.05.07-13.18-.08-19.31a3.9,3.9,0,0,0-1.66-2.55C121.21,65.52,116,62,110.66,58.63a4.09,4.09,0,0,0-3.57-.11C102.56,61.29,98.2,64.34,93.16,67.72Zm23.68-15.81c5.1,3.41,9.51,6.4,14,9.29,0.71,0.46,2,.91,2.54.58,4.92-3.09,9.73-6.35,15-9.87-5.13-3.43-9.52-6.46-14-9.28a3.71,3.71,0,0,0-3.23-.19C126.49,45.32,122,48.44,116.84,51.91Zm-16.13,0L90,44.78V59.07Zm74.63-7.28-10.88,7.3L175.34,59V44.64Z"/><path class="cls-1" d="M0,46.13c2.1-7,4.74-13.59,9.89-19,13-13.79,35.31-15.21,49.35-2.71l-5.88,7C38.52,22.78,24.94,24.1,16,34.87a26.41,26.41,0,0,0,0,34.06c9,10.77,22.54,12.09,37.33,3.48l6.11,7.15C49.62,87.28,38.9,90,27,86.78,13.66,83.14,5.1,74.36,1.2,61,0.87,59.9.4,58.79,0,57.67V46.13Z"/><path class="cls-1" d="M527.17,36.32c0,9.21,0,17.14,0,25.06s0,15.88,0,24.16h-9.61c-0.07-1.15-.19-2.21-0.19-3.28,0-19.21,0-38.41,0-57.62,0-2.78.28-5.36,3.26-6.42s4.87,0.69,6.65,2.84Q544.6,42,562,62.79c1,1.25,2.11,2.47,3.82,4.46v-49h9.83c0.06,1.3.15,2.51,0.16,3.71,0,18.93,0,37.86,0,56.79,0,2.87-.05,5.69-3.27,6.82s-5.07-1-6.9-3.17Q548.33,61.51,530.9,40.69C529.95,39.54,529,38.42,527.17,36.32Z"/><path class="cls-1" d="M212.18,51.9c0-9.2,0-18.39,0-27.59,0-5,1.43-6.34,6.41-6.38,6.18,0,12.36-.11,18.53,0a34,34,0,0,1,0,67.91c-6.31.13-12.63,0.07-18.94,0-4.47,0-5.94-1.46-6-6C212.12,70.57,212.18,61.23,212.18,51.9Zm10-24.92V76c6,0,11.6.43,17.15-.09C250.94,74.8,259.48,65.8,260.77,54c1.16-10.63-5.62-22-16.26-24.78C237.41,27.33,229.74,27.64,222.19,27Z"/><path class="cls-1" d="M454.29,27.4V46.81h22.38v9.78h-22.2V76.14h35.19v9.74H476.49c-8.64,0-17.29,0-25.93,0-4.52,0-6-1.42-6-5.9-0.06-18.66,0-37.32,0-56,0-3,.79-5.86,4.28-5.91C462.33,17.9,475.88,18,489.71,18v9.4H454.29Z"/><path class="cls-1" d="M342.3,17.92v9.53H307V46.86h22.15v9.9H306.92V76.18h35.37v9.35a31.5,31.5,0,0,1-3.23.34q-17.7,0-35.4,0c-5.28,0-6.61-1.29-6.62-6.57Q297,51.92,297,24.55c0-5.33,1.3-6.6,6.57-6.62C316.37,17.9,329.11,17.92,342.3,17.92Z"/><path class="cls-1" d="M381.84,56.79V85.68h-9.66v-4q0-28.41,0-56.83c0-5.79,1.18-6.95,7-7,6.31,0,12.63-.11,18.94,0,11,0.23,19.42,8.64,19.44,19.31a19.59,19.59,0,0,1-19.36,19.5C392.93,56.92,387.61,56.79,381.84,56.79Zm0.35-28.89v19c5.9,0,11.5.22,17.08-.07,4.68-.24,8.29-4.37,8.52-9s-2.84-9.39-7.5-9.8C394.34,27.5,388.33,27.9,382.19,27.9Z"/></g></svg>