<svg id="Shapes" xmlns="http://www.w3.org/2000/svg" viewBox="0 0 32.48 32.6"><defs><style>.cls-1{fill:#b15959;}</style></defs><title>INDEXILLUSTRATION</title><path class="cls-1" d="M16.39 10.2c3.06-3.17 5.85-6 8.55-8.9 1.46-1.56 2.66-1.52 4.21 0 4.39 4.17 4.43 4.13.23 8.32l-6.08 6.04a8 8 0 0 0-.57.88c2.67 2.61 5.35 5.38 8.2 8 2 1.78 2.12 3.32 0 5a13.2 13.2 0 0 0-1 1c-2.81 2.79-3 2.81-5.75.05-2.53-2.56-5-5.16-7.87-8.09-2.89 2.94-5.66 5.61-8.25 8.45-1.78 2-3.31 2.12-5 0a13 13 0 0 0-1-1c-2.8-2.8-2.81-3-.06-5.75 2.56-2.53 5.16-5 8.11-7.9-2.94-2.88-5.62-5.65-8.47-8.23-2-1.78-2.12-3.31 0-5A16.14 16.14 0 0 0 2.85 1.9C5.4-.62 5.71-.64 8.2 1.86s5.18 5.27 8.19 8.34z"/></svg>