<svg id="Shapes" xmlns="http://www.w3.org/2000/svg" viewBox="0 0 142.15 36.59"><defs><style>.cls-1{fill:#fff;fill-rule:evenodd;}</style></defs><title>github</title><path class="cls-1" d="M27.52 25v8a1.29 1.29 0 0 1-.79 1.32 21.26 21.26 0 0 1-11.53 2.2 26.69 26.69 0 0 1-4.65-.7 12.52 12.52 0 0 1-9.48-9.4 29.61 29.61 0 0 1 .31-16.84C3.17 3.84 7.29.81 13.19.19A27.93 27.93 0 0 1 24.12 1c2.1.62 2.09.65 1.56 2.75-.28 1.16-.58 2.25-.8 3.41a.84.84 0 0 1-1.3.76 19.81 19.81 0 0 0-8.53-.69 7.13 7.13 0 0 0-6.44 5.54 20.48 20.48 0 0 0 .08 11.58c1 3.48 3.36 5.15 7 5.18 1.15 0 2.3-.12 3.46-.17a.64.64 0 0 0 .71-.78v-5.61a.59.59 0 0 0-.72-.72h-3.47a.77.77 0 0 1-1-.91v-4.8a.75.75 0 0 1 .91-.88h10.94a.83.83 0 0 1 1 1c-.01 2.79 0 5.55 0 8.34zM69.58 14.6h12v-1.46c0-3.53-.19-7.06-.19-10.59 0-1.16-.06-1.19 1.11-1.19h5.38a.84.84 0 0 1 1 1v32.56a.83.83 0 0 1-1 1h-5.7c-.78 0-.85-.27-.85-1 0-4.24.21-8.48.21-12.72v-1.6H70v14.04c0 1.12 0 1.2-1.15 1.2h-5.51a.81.81 0 0 1-1-1V2.2a.78.78 0 0 1 1-.92h5.78c.77 0 .78.31.77 1 0 3.62-.19 7.24-.19 10.85v1.47zM126.58 12.89a51.48 51.48 0 0 1 5.31-1.17c5.43-.51 8.8 2 9.82 7.4a25 25 0 0 1-.38 11c-1.14 4.38-3.73 6.34-8.39 6.42a12.85 12.85 0 0 1-7.74-2.16 1.12 1.12 0 0 0-.23-.13.54.54 0 0 0-.17 0c-.46 1.8 0 1.65-2.1 1.65h-2.93a.84.84 0 0 1-1-.9c0-.12-.15-.24-.15-.35v-32c0-1.27.15-1.27 1.45-1.27h5.41a.91.91 0 0 1 1.12 1.08V12.92zm-.13 11.21v4.71a.87.87 0 0 0 .61.94 8.66 8.66 0 0 0 4.51.69 2.6 2.6 0 0 0 2.43-1.95 12.77 12.77 0 0 0 .46-2.52 14.08 14.08 0 0 0-.41-5.81 3.1 3.1 0 0 0-3.4-2.41 22.58 22.58 0 0 0-3.53.73.83.83 0 0 0-.64 1c-.01 1.52-.03 3.08-.03 4.62zM109.56 34.32a15.12 15.12 0 0 1-8.46 2.24 16.25 16.25 0 0 1-4-.68c-3-1-4.25-3.45-4.33-6.39-.13-5.45-.07-10.91 0-16.36a1 1 0 0 1 .65-.7c2.1-.05 4.21 0 6.31 0 .62 0 .72.38.72.88V27.1c0 2.89 1 3.77 3.93 3.39.21 0 .47 0 .68-.08 2.32-.48 2.57-.73 2.57-3.05V13.61c0-1.19 0-1.22 1.11-1.22h5.49a.77.77 0 0 1 .94.92v21.7a.78.78 0 0 1-1 .91c-1 0-2.08-.05-3.11 0-.83.05-1.32-.17-1.32-1.08a2.36 2.36 0 0 0-.18-.52zM45.58 18.5h-3.15a.7.7 0 0 1-.85-.83v-3.56a1.09 1.09 0 0 1 .62-.76 17 17 0 0 1 2.5-.6.86.86 0 0 0 .85-1.05c-.05-1.75 0-3.5 0-5.25a.67.67 0 0 1 .82-.82h6a.67.67 0 0 1 .82.83v5.86h4.44a.89.89 0 0 1 1.09 1.09v4.18a.78.78 0 0 1-.95.94h-4.41a1.08 1.08 0 0 0-.14.3v9.43a2.19 2.19 0 0 0 2.19 2.16 14.41 14.41 0 0 0 2.39 0c.67 0 1 .14 1 .87q-.06 1.91 0 3.83a.81.81 0 0 1-.8.88 14.47 14.47 0 0 1-7.47 0c-3.18-.88-4.87-3.37-4.93-7.27-.05-3.05 0-6.11 0-9.16V18.5zM39.34 24.08v10.58c0 1.14-.1 1.23-1.21 1.23h-5.25c-1 0-1.21-.21-1.21-1.2V13.35a.88.88 0 0 1 1-1.06h5.51a.92.92 0 0 1 1.14 1.12c0 3.59.02 7.12.02 10.67zM39.66 6.27a4.21 4.21 0 0 1-4.22 4.16 4.25 4.25 0 0 1-4.26-4.21 4.23 4.23 0 0 1 4.28-4.1 4.17 4.17 0 0 1 4.2 4.15z"/></svg>