<svg id="Shapes" xmlns="http://www.w3.org/2000/svg" viewBox="0 0 142.15 36.59"><defs><style>.cls-1{fill:#fff;fill-rule:evenodd;}</style></defs><title>github</title><path class="cls-1" d="M27.52,25c0,2.67,0,5.34,0,8a1.29,1.29,0,0,1-.79,1.32A21.26,21.26,0,0,1,15.2,36.52a26.69,26.69,0,0,1-4.65-.7,12.52,12.52,0,0,1-9.48-9.4A29.61,29.61,0,0,1,1.38,9.58C3.17,3.84,7.29.81,13.19,0.19A27.93,27.93,0,0,1,24.12,1c2.1,0.62,2.09.65,1.56,2.75C25.4,4.91,25.1,6,24.88,7.16a0.84,0.84,0,0,1-1.3.76,19.81,19.81,0,0,0-8.53-.69,7.13,7.13,0,0,0-6.44,5.54,20.48,20.48,0,0,0,.08,11.58c1,3.48,3.36,5.15,7,5.18,1.15,0,2.3-.12,3.46-0.17a0.64,0.64,0,0,0,.71-0.78q0-2.8,0-5.61a0.59,0.59,0,0,0-.72-0.72c-1.15,0-2.31,0-3.47,0a0.77,0.77,0,0,1-1-.91c0-1.6,0-3.2,0-4.8a0.75,0.75,0,0,1,.91-0.88q5.47,0,10.94,0a0.83,0.83,0,0,1,1,1C27.51,19.45,27.52,22.21,27.52,25Z"/><path class="cls-1" d="M69.58,14.6h12V13.14c0-3.53-.19-7.06-0.19-10.59,0-1.16-.06-1.19,1.11-1.19,1.81,0,3.57,0,5.38,0a0.84,0.84,0,0,1,1,1q0,16.28,0,32.56a0.83,0.83,0,0,1-1,1c-1.9,0-3.8,0-5.7,0-0.78,0-.85-0.27-0.85-1,0-4.24.21-8.48,0.21-12.72V20.6H70c0,1,0,1,0,1.29,0,4.21,0,8.54,0,12.75,0,1.12,0,1.2-1.15,1.2-1.84,0-3.68,0-5.51,0a0.81,0.81,0,0,1-1-1q0-16.32,0-32.64a0.78,0.78,0,0,1,1-.92c1.93,0,3.85,0,5.78,0,0.77,0,.78.31,0.77,1,0,3.62-.19,7.24-0.19,10.85V14.6Z"/><path class="cls-1" d="M126.58,12.89a51.48,51.48,0,0,1,5.31-1.17c5.43-.51,8.8,2,9.82,7.4a25,25,0,0,1-.38,11c-1.14,4.38-3.73,6.34-8.39,6.42a12.85,12.85,0,0,1-7.74-2.16,1.12,1.12,0,0,0-.23-0.13,0.54,0.54,0,0,0-.17,0c-0.46,1.8,0,1.65-2.1,1.65-1,0-2,0-2.93,0a0.84,0.84,0,0,1-1-.9c0-.12-0.15-0.24-0.15-0.35v-32c0-1.27.15-1.27,1.45-1.27,1.78,0,3.63,0,5.41,0a0.91,0.91,0,0,1,1.12,1.08c0,3.23,0,6.46,0,9.69v0.77ZM126.45,24.1c0,1.57,0,3.14,0,4.71a0.87,0.87,0,0,0,.61.94,8.66,8.66,0,0,0,4.51.69A2.6,2.6,0,0,0,134,28.49a12.77,12.77,0,0,0,.46-2.52,14.08,14.08,0,0,0-.41-5.81,3.1,3.1,0,0,0-3.4-2.41,22.58,22.58,0,0,0-3.53.73,0.83,0.83,0,0,0-.64,1C126.47,21,126.45,22.56,126.45,24.1Z"/><path class="cls-1" d="M109.56,34.32a15.12,15.12,0,0,1-8.46,2.24,16.25,16.25,0,0,1-4-.68c-3-1-4.25-3.45-4.33-6.39-0.13-5.45-.07-10.91,0-16.36a1,1,0,0,1,.65-0.7c2.1-.05,4.21,0,6.31,0,0.62,0,.72.38,0.72,0.88,0,1.21,0,2.43,0,3.65,0,3.38,0,6.76,0,10.14,0,2.89,1,3.77,3.93,3.39,0.21,0,.47,0,0.68-0.08,2.32-.48,2.57-0.73,2.57-3.05V13.61c0-1.19,0-1.22,1.11-1.22,1.84,0,3.65,0,5.49,0a0.77,0.77,0,0,1,.94.92q0,10.85,0,21.7a0.78,0.78,0,0,1-1,.91c-1,0-2.08-.05-3.11,0-0.83.05-1.32-.17-1.32-1.08A2.36,2.36,0,0,0,109.56,34.32Z"/><path class="cls-1" d="M45.58,18.5c-1,0-2.15,0-3.15,0a0.7,0.7,0,0,1-.85-0.83c0-1.19,0-2.37,0-3.56a1.09,1.09,0,0,1,.62-0.76,17,17,0,0,1,2.5-.6,0.86,0.86,0,0,0,.85-1.05c-0.05-1.75,0-3.5,0-5.25a0.67,0.67,0,0,1,.82-0.82q3,0,6,0a0.67,0.67,0,0,1,.82.83c0,1.92,0,3.84,0,5.86,1.55,0,3,0,4.44,0a0.89,0.89,0,0,1,1.09,1.09c0,1.39,0,2.79,0,4.18a0.78,0.78,0,0,1-.95.94c-1.48,0-3,0-4.41,0a1.08,1.08,0,0,0-.14.3c0,3.14,0,6.29,0,9.43a2.19,2.19,0,0,0,2.19,2.16,14.41,14.41,0,0,0,2.39,0c0.67,0,1,.14,1,0.87q-0.06,1.91,0,3.83A0.81,0.81,0,0,1,58,36a14.47,14.47,0,0,1-7.47,0c-3.18-.88-4.87-3.37-4.93-7.27-0.05-3.05,0-6.11,0-9.16V18.5Z"/><path class="cls-1" d="M39.34,24.08q0,5.29,0,10.58c0,1.14-.1,1.23-1.21,1.23-1.75,0-3.5,0-5.25,0-1,0-1.21-.21-1.21-1.2,0-7.11,0-14.23,0-21.34a0.88,0.88,0,0,1,1-1.06c1.84,0,3.68,0,5.51,0a0.92,0.92,0,0,1,1.14,1.12C39.32,17,39.34,20.53,39.34,24.08Z"/><path class="cls-1" d="M39.66,6.27a4.21,4.21,0,0,1-4.22,4.16,4.25,4.25,0,0,1-4.26-4.21,4.23,4.23,0,0,1,4.28-4.1A4.17,4.17,0,0,1,39.66,6.27Z"/></svg>