<svg id="Shapes" xmlns="http://www.w3.org/2000/svg" viewBox="0 0 120 120"><defs><style>.cls-1,.cls-2,.cls-4{fill:#fff;}.cls-1,.cls-2,.cls-5{fill-rule:evenodd;}.cls-1{opacity:0.3;}.cls-2{opacity:0.6;}.cls-3{fill:#5f6766;}.cls-5{fill:#dc3522;}</style></defs><title>header-gear-two</title><path class="cls-1" d="M102.29,89.1a0.73,0.73,0,0,0-.86.29q-1.95,2.4-4,4.75c-0.69.8-1.47,1.51-2.17,2.3a0.82,0.82,0,0,0-.12.69c1,2.72,1.95,5.44,3,8.14a1,1,0,0,1-.37,1.38l-0.46.32-8.22,5.54c-2-1.79-4.05-3.54-6-5.41-1.06-1-1.35-1.13-2.68-.64-2.56.94-5.16,1.8-7.75,2.64a1.09,1.09,0,0,0-.92,1c-0.39,2.57-.84,5.13-1.27,7.69-0.08.46-.17,0.92-0.27,1.42-3.65.27-7.22,0.53-10.8,0.76a0.85,0.85,0,0,1-.61-0.5c-0.91-2.69-1.78-5.39-2.65-8.09a1,1,0,0,0-.94-0.85,40.26,40.26,0,0,1-9.07-1.61,0.71,0.71,0,0,0-.94.28c-0.55.74-1.17,1.43-1.76,2.14l-4.13,5c-1.17-.59-2.29-1.19-3.43-1.73-2.08-1-4.18-1.93-6.25-2.93a0.86,0.86,0,0,1-.36-0.71c0.19-1.31.42-2.62,0.69-3.92,0.31-1.48.66-3,1-4.42a0.74,0.74,0,0,0-.29-0.95,45,45,0,0,1-7.35-6.2,0.83,0.83,0,0,0-1.06-.21c-1.33.54-2.67,1-4,1.55L14,98.43c-0.46-.73-0.83-1.37-1.25-2-1.6-2.31-3.2-4.61-4.84-6.9a0.66,0.66,0,0,1,.08-1c0.7-.72,1.35-1.48,2-2.23,1.16-1.3,2.34-2.6,3.47-3.93a1,1,0,0,0,.15-0.87,40.24,40.24,0,0,1-3.2-9.06,0.93,0.93,0,0,0-.89-0.8c-2.62-.41-5.23-0.86-7.85-1.28a0.73,0.73,0,0,1-.73-0.81C0.83,67.72.69,65.86,0.53,64,0.37,62.32.17,60.63,0,59c0.34-.14.48-0.21,0.63-0.26,2.62-.88,5.24-1.74,7.85-2.64A0.94,0.94,0,0,0,9,55.48a39.72,39.72,0,0,1,1.85-9.59,1.2,1.2,0,0,0-.33-1C9.46,43.91,8.3,43,7.16,42L3.83,39.3c0.3-.71.53-1.33,0.82-1.92,0.65-1.34,1.36-2.64,2-4s1.22-2.64,1.87-3.94a0.77,0.77,0,0,1,.64-0.32c2.87,0.55,5.72,1.14,8.58,1.7a0.72,0.72,0,0,0,.59-0.18c1-1.24,1.9-2.55,2.95-3.74,1.19-1.34,2.5-2.57,3.76-3.84-1-2.82-2-5.64-3.07-8.45a0.76,0.76,0,0,1,.29-1.12c1.73-1.13,3.43-2.32,5.13-3.5,0.89-.62,1.78-1.25,2.65-1.9a1.34,1.34,0,0,1,2,.19c2,1.86,4.07,3.65,6.11,5.48a0.87,0.87,0,0,0,1,.24c2.75-1,5.51-1.89,8.3-2.75a1,1,0,0,0,.87-1c0.46-2.88,1-5.75,1.42-8.63a0.89,0.89,0,0,1,1-.9C53.7,0.55,56.64.32,59.58,0.1,61.13,0,61.13,0,61.66,1.39c0.12,0.32.25,0.64,0.35,1,0.77,2.37,1.52,4.75,2.31,7.12a1,1,0,0,0,.65.61,31.51,31.51,0,0,1,8.48,1.65,0.79,0.79,0,0,0,1-.33c1-1.24,2-2.45,3-3.67l3.37-4.08C83.53,5,86.12,6.25,88.72,7.51c0.57,0.28,1.17.49,1.75,0.74a0.72,0.72,0,0,1,.41,1c-0.57,2.7-1.06,5.41-1.68,8.1-0.26,1.15-.37,2,1,2.61A12.47,12.47,0,0,1,92.73,22c0.87,0.77,1.69,1.6,2.57,2.35a2,2,0,0,0,1.28.67c1.51-.4,3-1,4.44-1.5,1.74-.64,3.46-1.31,5.24-2,0.44,0.72.81,1.42,1.26,2.06,1.61,2.34,3.25,4.65,4.84,7a0.79,0.79,0,0,1-.08.72c-0.3.4-.73,0.69-1.06,1.07-1.67,1.91-3.31,3.86-5,5.75a1.15,1.15,0,0,0-.24,1.4c1,2.49,1.93,5,2.81,7.53a1.48,1.48,0,0,0,1.34,1.17c2.75,0.41,5.49.89,8.24,1.32a0.87,0.87,0,0,1,.88,1c0.16,2.57.39,5.14,0.58,7.71,0.07,0.95.12,1.89,0.17,2.82-2.93,1-5.78,2-8.66,3a1.34,1.34,0,0,0-1,1.3c-0.47,2.82-1,5.63-1.48,8.45a1,1,0,0,0,.25.77c1.43,1.29,2.89,2.55,4.36,3.79a18.79,18.79,0,0,0,1.58,1.17c1.26,0.86,1.38,1.49.63,2.83s-1.32,2.48-1.93,3.75c-0.76,1.6-1.48,3.22-2.21,4.83C108.38,90.29,105.33,89.72,102.29,89.1ZM63,95.39a35.1,35.1,0,1,0-6.87-69.86C37.12,27.48,22.71,45,24.93,64A35,35,0,0,0,63,95.39Z"/><path class="cls-2" d="M59.46,37.52l2,4.2a0.17,0.17,0,0,1,0,0c0.13,1.18.93,1.37,2,1.53a1.77,1.77,0,0,0,1.85-.61c1-1.11,2.06-2.14,3.08-3.22a0.55,0.55,0,0,1,.77-0.17c1.18,0.65,2.37,1.28,3.54,2a0.62,0.62,0,0,1,.21.54c-0.34,1.77-.71,3.53-1,5.29a0.83,0.83,0,0,0,.21.59A16.72,16.72,0,0,0,73.25,49a0.66,0.66,0,0,0,.49.13c1.71-.26,3.42-0.52,5.12-0.81a0.61,0.61,0,0,1,.78.38c0.62,1.3,1.27,2.59,1.89,3.86l-0.83.78c-1.12,1-2.24,2.06-3.36,3.07a0.57,0.57,0,0,0-.21.63,7.42,7.42,0,0,1,.16,1.56,0.88,0.88,0,0,0,.63.89c1.47,0.7,2.92,1.45,4.38,2.16a0.59,0.59,0,0,1,.4.63,17.17,17.17,0,0,1-.8,4.1,0.54,0.54,0,0,1-.39.26c-1,.13-2.05.22-3.08,0.34q-1.12.13-2.23,0.33a0.59,0.59,0,0,0-.32.28,9,9,0,0,1-.66,1.19,1.37,1.37,0,0,0,0,1.72c0.63,1.19,1.26,2.38,1.88,3.57,0.4,0.76.41,0.78-.2,1.41-0.82.83-1.68,1.62-2.5,2.45a0.55,0.55,0,0,1-.78,0c-1.42-.83-2.86-1.63-4.28-2.47a0.7,0.7,0,0,0-.81,0C68,75.75,67.37,76,66.82,76.3a0.74,0.74,0,0,0-.35.44q-0.42,2.56-.78,5.13a0.46,0.46,0,0,1-.41.5c-1.38.2-2.76,0.42-4.14,0.61a0.48,0.48,0,0,1-.39-0.23c-0.6-1.32-1.17-2.65-1.75-4l-0.3-.67a1,1,0,0,0-.93-0.64c-0.59-.06-1.16-0.24-1.75-0.32a0.72,0.72,0,0,0-.52.17c-1.27,1.25-2.53,2.52-3.8,3.76a0.49,0.49,0,0,1-.44.1q-1.84-.94-3.66-1.94a0.54,0.54,0,0,1-.16-0.47c0.33-1.66.67-3.32,1-5a0.8,0.8,0,0,0-.26-0.91,5,5,0,0,1-.93-1,1.44,1.44,0,0,0-1.74-.52c-0.75.17-1.51,0.24-2.26,0.38s-1.71.33-2.64,0.51c-0.62-1.31-1.23-2.6-1.86-3.88a0.57,0.57,0,0,1,.2-0.8c1.27-1.12,2.54-2.25,3.77-3.41a1.15,1.15,0,0,0,.3-0.81,14.75,14.75,0,0,0-.28-2A0.65,0.65,0,0,0,42.43,61c-1.56-.79-3.12-1.59-4.7-2.35A0.54,0.54,0,0,1,37.36,58q0.38-1.9.73-3.81a0.48,0.48,0,0,1,.53-0.43q2.63-.24,5.26-0.55a0.81,0.81,0,0,0,.52-0.33c0.37-.57.7-1.17,1-1.78a0.58,0.58,0,0,0,0-.46c-0.23-.47-0.53-0.9-0.77-1.37-0.6-1.16-1.18-2.33-1.79-3.49A0.45,0.45,0,0,1,43,45.15c1-.94,2-1.9,3-2.82a0.66,0.66,0,0,1,.59,0c1.53,0.85,3.06,1.71,4.57,2.6a0.85,0.85,0,0,0,1,0,6.21,6.21,0,0,1,1.14-.54,1.06,1.06,0,0,0,.75-1q0.27-2.13.57-4.26c0.15-1.06.16-1.06,1.21-1.26,0.62-.12,1.23-0.27,1.86-0.33S58.84,37.53,59.46,37.52Zm-10,16.94a12.2,12.2,0,1,0,16.44-5A12.26,12.26,0,0,0,49.44,54.45Z"/><circle class="cls-3" cx="60.14" cy="60.43" r="13.12"/><circle class="cls-4" cx="59.93" cy="59.96" r="5.06"/><path class="cls-5" d="M63.05,54.21a1.78,1.78,0,0,0,2.1.26c1.45-.5,1-0.67,2,0.59a0.69,0.69,0,0,1,.07,1c-0.13.17-.14,0.46-0.29,0.61-0.73.74-.43,1.53-0.31,2.41A2.14,2.14,0,0,0,68,60.87c0.81,0.38.78,0.44,0.6,1.3,0,0.15-.08.3-0.12,0.46a0.91,0.91,0,0,1-1,.84A3,3,0,0,0,64.89,65a2.09,2.09,0,0,0-.32,1.55c0.09,1.42.35,1.11-1,1.79-0.83.41-.88,0.42-1.53-0.27a2.67,2.67,0,0,0-2.17-.88,2.59,2.59,0,0,0-2.09.87,1.3,1.3,0,0,1-.77.53,9.51,9.51,0,0,1-1.72-.73,0.41,0.41,0,0,1-.09-0.28,1.87,1.87,0,0,1,0-.42,2.88,2.88,0,0,0-.88-2.66,3,3,0,0,0-2-1c-0.9-.11-0.9-0.15-1.06-1.06l0-.1c-0.21-1-.14-1.15.8-1.6a1.29,1.29,0,0,0,1-1.27c0-.49.26-1,0.29-1.49a1.83,1.83,0,0,0-.22-1.07c-0.86-1.29-.88-1.28.08-2.49L53.4,54a6.46,6.46,0,0,0,2.11.64,8.19,8.19,0,0,0,1.92-.85A1.3,1.3,0,0,0,58.35,53a7.47,7.47,0,0,1,.45-1.07,1.11,1.11,0,0,1,.41-0.59,9,9,0,0,1,1.61,0,0.43,0.43,0,0,1,.15.26c0.07,0.22.11,0.44,0.18,0.66m3.07,8.1A4.37,4.37,0,0,0,59.79,56a4.48,4.48,0,0,0-4.4,4.4,4.57,4.57,0,0,0,4.38,4.37A4.47,4.47,0,0,0,64.21,60.36Z"/></svg>