<svg id="Shapes" xmlns="http://www.w3.org/2000/svg" viewBox="0 0 192 192"><defs><style>.cls-1,.cls-2,.cls-4{fill:#fff;}.cls-1,.cls-2,.cls-5{fill-rule:evenodd;}.cls-1{opacity:0.3;}.cls-2{opacity:0.6;}.cls-3{fill:#5f6766;}.cls-5{fill:#18afe5;}</style></defs><title>header-image-gear-one</title><path class="cls-1" d="M169,130.3a1.1,1.1,0,0,0-1.3.7q-2.4,4.2-4.9,8.4c-0.9,1.4-1.9,2.7-2.8,4.1a1.3,1.3,0,0,0,0,1.1c2.2,4,4.4,7.9,6.7,11.8a1.5,1.5,0,0,1-.2,2.2l-0.6.6-11.3,10.7c-3.6-2.3-7.2-4.4-10.7-6.8-1.9-1.3-2.4-1.4-4.3-.3-3.7,2.1-7.5,4.1-11.3,6.1a1.7,1.7,0,0,0-1.2,1.8c0,4.1,0,8.2,0,12.2,0,0.7,0,1.5-.1,2.3L110.5,189a1.3,1.3,0,0,1-1.1-.6l-6.2-11.9a1.5,1.5,0,0,0-1.7-1.1c-4.8.3-9.6,0.6-14.5-.2a1.1,1.1,0,0,0-1.4.7c-0.7,1.3-1.5,2.5-2.2,3.8l-5.1,8.8-5.8-1.8-10.4-2.9a1.4,1.4,0,0,1-.7-1q-0.1-3.1.1-6.2c0.1-2.4.3-4.7,0.4-7.1a1.2,1.2,0,0,0-.7-1.4,70.7,70.7,0,0,1-13-7.7,1.3,1.3,0,0,0-1.7-.1l-5.8,3.4-6.3,3.6-2.4-2.7-9.3-9.4a1,1,0,0,1-.1-1.6c0.9-1.3,1.7-2.6,2.6-4s3-4.6,4.4-7a1.5,1.5,0,0,0,0-1.4c-3.1-4-5.2-8.6-7.3-13.2a1.5,1.5,0,0,0-1.6-1H8.3A1.1,1.1,0,0,1,6.9,126c-0.6-2.9-1.3-5.7-2.1-8.5s-1.4-5.1-2.1-7.7l0.9-.6,11.5-6.1a1.5,1.5,0,0,0,.7-1.1c-0.7-5.1-.1-10.2.4-15.3a1.9,1.9,0,0,0-.8-1.5l-6-3.6L3.7,78.3c0.3-1.2.5-2.2,0.8-3.2s1.4-4.4,2.1-6.7S7.7,64,8.4,61.9a1.2,1.2,0,0,1,.9-0.7l13.7,0.4a1.1,1.1,0,0,0,.9-0.4c1.2-2.2,2.3-4.4,3.6-6.6s3.2-4.6,4.8-6.9L25.5,35.4a1.2,1.2,0,0,1,.2-1.8l7.1-6.7,3.6-3.6c1-1,1.9-1,3.1-.2L50.3,30a1.4,1.4,0,0,0,1.7.1c4-2.2,8.1-4.3,12.2-6.4a1.6,1.6,0,0,0,1.1-1.8c0-4.6,0-9.2,0-13.7a1.4,1.4,0,0,1,1.3-1.6L80,3.3c2.4-.6,2.4-0.6,3.6,1.5l0.8,1.4,5.4,10.4a1.6,1.6,0,0,0,1.2.8,49.6,49.6,0,0,1,13.6.4A1.2,1.2,0,0,0,106,17l3.8-6.5,4.2-7.2,13.2,4L130,8a1.1,1.1,0,0,1,.9,1.4c-0.2,4.3-.3,8.7-0.5,13-0.1,1.8-.1,3.1,2.1,3.8a19.6,19.6,0,0,1,4.5,2.6l4.6,3c0.7,0.4,1.6.9,2.2,0.7,2.2-1,4.4-2.2,6.5-3.5l7.6-4.4c0.9,1,1.6,2,2.5,2.9l9.3,9.6a1.2,1.2,0,0,1,.1,1.1c-0.4.7-1,1.3-1.4,1.9-2.1,3.4-4.1,6.8-6.3,10.2a1.8,1.8,0,0,0,0,2.2c2.1,3.6,4.3,7.2,6.3,10.9a2.3,2.3,0,0,0,2.4,1.5h13.1a1.4,1.4,0,0,1,1.6,1.3c0.9,3.9,1.9,7.9,2.9,11.8,0.4,1.4.7,2.9,1,4.3l-12.7,6.8a2.1,2.1,0,0,0-1.2,2.3c0,4.5-.1,9-0.1,13.5a1.5,1.5,0,0,0,.6,1.1l7.7,4.8,2.8,1.4c2.2,1,2.5,2,1.7,4.2s-1.4,4.2-2,6.3-1.5,5.4-2.2,8Zm-59.3,19.8A55.1,55.1,0,1,0,81.1,43.6c-28.9,7.9-46.7,38.8-38.4,67.6A55,55,0,0,0,109.6,150.1Z"/><path class="cls-2" d="M113,65.2l-0.7,6.9h0c-0.7,1.6.1,2.5,1.3,3.4a2.6,2.6,0,0,0,2.8.6l6.4-1.7a0.8,0.8,0,0,1,1.1.4l3,5.2a0.9,0.9,0,0,1-.1.8l-5.4,5.9a1.2,1.2,0,0,0-.2.9,25.3,25.3,0,0,0,.6,2.6,1,1,0,0,0,.5.5l7.2,2.9a0.9,0.9,0,0,1,.7,1.1c-0.2,2.1-.4,4.3-0.6,6.4l-1.7.3-6.7,1.3a0.8,0.8,0,0,0-.7.6,11.1,11.1,0,0,1-1,2.1,1.3,1.3,0,0,0,.1,1.6l3.9,6.1a0.9,0.9,0,0,1,0,1.1,25.7,25.7,0,0,1-4.2,4.6,0.8,0.8,0,0,1-.7,0l-4.2-1.9-3.1-1.3h-0.6a13.4,13.4,0,0,1-1.8,1,2,2,0,0,0-1.4,2.2c-0.1,2-.2,4-0.3,6s-0.1,1.3-1.3,1.6l-5.1,1.2a0.8,0.8,0,0,1-1-.6l-3.6-6.4a1,1,0,0,0-1-.6l-2.8-.2a1.1,1.1,0,0,0-.8.3l-4.9,5.9a0.7,0.7,0,0,1-.9.3l-5.7-2.4a0.7,0.7,0,0,1-.3-0.6c0.3-2.1.5-4.3,0.8-6.4v-1.1a1.5,1.5,0,0,0-.7-1.5l-2-1.8a1.1,1.1,0,0,0-.8-0.2l-7.7,1.9a0.7,0.7,0,0,1-.6-0.2l-3.2-5.3a0.8,0.8,0,0,1,.1-0.7l5.1-5.5a1.2,1.2,0,0,0,.4-1.4,7.4,7.4,0,0,1-.4-2,2.1,2.1,0,0,0-1.8-2l-3.2-1.3L62.3,95c0.2-2.2.4-4.3,0.6-6.4a0.8,0.8,0,0,1,.9-0.9l7.4-1.5a1.7,1.7,0,0,0,1-.8,21.8,21.8,0,0,0,1.2-2.7,1,1,0,0,0-.2-0.7L69,75.5a0.8,0.8,0,0,1,.1-1.2L73,70a0.7,0.7,0,0,1,1-.1l7.1,3.3a1.2,1.2,0,0,0,.9,0l2.7-1.5a0.9,0.9,0,0,0,.4-0.6c0.1-.8,0-1.6.1-2.3s0.3-3.9.4-5.8a0.7,0.7,0,0,1,.6-0.7l5.9-1.3a1,1,0,0,1,.7.5l3.8,6.8a1.3,1.3,0,0,0,1.2.8l1.9,0.2a1.6,1.6,0,0,0,1.7-.7l4-5c1-1.2,1-1.2,2.5-.7l2.6,1ZM87.2,79.1A18.2,18.2,0,1,0,112,85.3,18.3,18.3,0,0,0,87.2,79.1Z"/><circle class="cls-3" cx="96.6" cy="94.4" r="19.7"/><circle class="cls-4" cx="96.7" cy="93.8" r="8.6"/><path class="cls-5" d="M102,84c1.1,1.1,2.2.9,3.6,0.4s1.8-1.1,3.4,1a1.2,1.2,0,0,1,.1,1.7c-0.2.3-.2,0.8-0.5,1s-0.7,2.6-.5,4.1a3.7,3.7,0,0,0,2.4,3.1c1.4,0.6,1.3.7,1,2.2l-0.2.8a1.5,1.5,0,0,1-1.7,1.4c-2-.1-3.3,1-4.5,2.6a3.6,3.6,0,0,0-.5,2.6c0.1,2.4.6,1.9-1.7,3.1s-1.5.7-2.6-.5a4.5,4.5,0,0,0-3.7-1.5,4.4,4.4,0,0,0-3.6,1.5,2.2,2.2,0,0,1-1.3.9,16.1,16.1,0,0,1-2.9-1.2,0.7,0.7,0,0,1-.2-0.5,3.2,3.2,0,0,1,0-.7,4.9,4.9,0,0,0-1.5-4.5,5.2,5.2,0,0,0-3.4-1.8c-1.5-.2-1.5-0.2-1.8-1.8V97.8c-0.4-1.7-.2-2,1.4-2.7a2.2,2.2,0,0,0,1.6-2.2c0-.8.4-1.7,0.5-2.5a3.1,3.1,0,0,0-.4-1.8c-1.5-2.2-1.5-2.2.1-4.2l0.4-.6c1.2,0.4,2.4,1.2,3.6,1.1s2.1-1.1,3.3-1.5A2.2,2.2,0,0,0,94,81.8a12.7,12.7,0,0,1,.8-1.8,1.9,1.9,0,0,1,.7-1,15.4,15.4,0,0,1,2.7.1,0.7,0.7,0,0,1,.3.4l0.3,1.1M104,94.4A7.5,7.5,0,0,0,96.4,87a7.6,7.6,0,0,0-7.5,7.5,7.8,7.8,0,0,0,7.5,7.5A7.6,7.6,0,0,0,104,94.4Z"/></svg>