<svg id="Shapes" xmlns="http://www.w3.org/2000/svg" viewBox="0 0 82 82"><defs><style>.cls-1{fill:#fff;fill-rule:evenodd;}</style></defs><title>instagram</title><path class="cls-1" d="M40.89 82c-6.16-.16-12.33-.21-18.49-.53-5.7-.3-10.91-2.06-15.16-6.11a21.66 21.66 0 0 1-6.63-13.9C.2 57.5.07 53.5 0 49.51c0-7.1 0-14.2.1-21.3a44 44 0 0 1 1.18-11.4C3.82 7.73 9.85 2.37 19 .87A91.31 91.31 0 0 1 32.4.05c7.11-.11 14.23 0 21.34.06a43 43 0 0 1 11.79 1.27C74.42 4 79.67 10 81.13 19a92.27 92.27 0 0 1 .82 13.33c.11 7.1 0 14.2-.06 21.3A44.15 44.15 0 0 1 80.73 65c-2.53 9.16-8.6 14.55-17.89 16a111.92 111.92 0 0 1-13.36.81c-2.86.11-5.73 0-8.59 0 .01.09 0 .19 0 .19zm33.82-41h-.17c0-3.36.07-6.73 0-10.09s-.18-6.5-.54-9.71c-.8-7.2-5.23-11.95-12.41-13a79.94 79.94 0 0 0-10.82-.68c-6.51-.1-13-.08-19.54 0-3.33 0-6.68.16-10 .52-7.22.78-12 5.21-13.09 12.37a78.46 78.46 0 0 0-.68 10.7c-.1 6.57-.08 13.13 0 19.7 0 3.29.16 6.6.51 9.87.79 7.23 5.22 12 12.37 13.09A78.38 78.38 0 0 0 31 74.4c6.67.1 13.35.08 20 0 3.27 0 6.54-.19 9.79-.52a14.69 14.69 0 0 0 8.47-3.57c3.36-3 4.7-6.89 4.92-11.17.31-6.04.37-12.14.53-18.14z"/><path class="cls-1" d="M19.93 40.93a21.07 21.07 0 1 1 21 21 21 21 0 0 1-21-21zM41 27.34A13.6 13.6 0 1 0 54.62 41 13.6 13.6 0 0 0 41 27.34zM62.9 24a4.92 4.92 0 1 1 4.9-4.93A4.88 4.88 0 0 1 62.9 24z"/></svg>