<svg id="Shapes" xmlns="http://www.w3.org/2000/svg" viewBox="0 0 84.01 84"><defs><style>.cls-1{fill:#fff;fill-rule:evenodd;}</style></defs><title>linkedin</title><path class="cls-1" d="M84,84c-1.09,0-1.91,0-2.73,0l-15-.33c-0.09-5-.22-10-0.28-14.93s0-9.73-.1-14.59a18.93,18.93,0,0,0-.54-4.41c-1.71-6.53-5.44-7.36-11-6.37-4.5.79-6.94,3.81-7.54,8.47a49.8,49.8,0,0,0-.39,6c0,8-.06,16.09,0,24.13,0,1.62-.47,2.1-2.08,2.07-4.59-.1-9.48,0-14.07,0-0.56,0-1.09-.07-2.09-0.11V28.18h18V37.1a40.34,40.34,0,0,1,2.38-3.46c4.87-5.33,11-6.77,17.83-6.19,4.43,0.38,8.58,1.43,11.93,4.7,3.59,3.51,4.81,8,5.35,12.79a87.08,87.08,0,0,1,.4,9.31C84,64,84,73.82,84,84Z"/><path class="cls-1" d="M2.11,28.41c5,0,11.14,0,16.5,0,1.44,0,1.5.89,1.5,1.81V48.67c0,11.08-.13,22.16-0.06,33.24,0,1.6-.48,2.12-2.11,2.08-4.59-.1-9.3,0-13.89,0-0.57,0-.94-0.07-1.94-0.11V28.41Z"/><path class="cls-1" d="M21.86,11.1A10.88,10.88,0,0,1,11,22.05,11,11,0,0,1,10.93,0C17.69-.05,22.44,6.08,21.86,11.1Z"/></svg>