<svg id="Shapes" xmlns="http://www.w3.org/2000/svg" viewBox="0 0 134.35 97.88"><defs><style>.cls-1{fill:#293130;}</style></defs><title>logo-dark</title><path class="cls-1" d="M10 36.08a25.32 25.32 0 0 0 .53 5.53 21 21 0 0 0 1.24 3.94 15.84 15.84 0 0 0 1.35 2.53c.43.63.77 1.14 1 1.53q-6.59 0-10.36-3.36T0 36a21.72 21.72 0 0 1 3-11.11 30 30 0 0 1 8.12-9 41.11 41.11 0 0 1 12-6.06 47.13 47.13 0 0 1 14.67-2.24A38.23 38.23 0 0 1 49.85 9.3a24.33 24.33 0 0 1 8.48 4.65A19.05 19.05 0 0 1 65 28.43a18.71 18.71 0 0 1-2.35 8.89 21 21 0 0 1-6.83 7.48A21.5 21.5 0 0 1 70.33 52q5.47 6.24 5.47 17.42A53 53 0 0 1 75 78a33.43 33.43 0 0 1-3 9.3 21.53 21.53 0 0 1-6.06 7.48 15.5 15.5 0 0 1-9.94 3.1 18.66 18.66 0 0 1-4.94-.65 14.07 14.07 0 0 1-4.18-1.89A8.9 8.9 0 0 1 43 87.75c0-.47 0-1.12.12-1.94a11.48 11.48 0 0 1 .35-2.06 8.78 8.78 0 0 0 4.12 3.59 12.26 12.26 0 0 0 4.59 1A7.29 7.29 0 0 0 57 86.69a10.76 10.76 0 0 0 3-4.24 23 23 0 0 0 1.47-5.71 46.8 46.8 0 0 0 .41-6.18q0-11.19-4.28-16.13T45.75 49.5c-.94 0-2.14 0-3.55.12s-2.13.2-4.13.35V97h-12V20.42l12-1.77V46h1.7a12.87 12.87 0 0 0 6.14-2 17.6 17.6 0 0 0 5-4.37 20.77 20.77 0 0 0 3.27-5.8 17.75 17.75 0 0 0 1.17-6.23 14.93 14.93 0 0 0-4.71-11.38c-3.14-2.94-7.81-4.43-14-4.43a33.58 33.58 0 0 0-9.89 1.47 24.92 24.92 0 0 0-8.54 4.47 22 22 0 0 0-5.94 7.59A24.18 24.18 0 0 0 10 36.08z"/><path class="cls-1" d="M121.87 14a52.22 52.22 0 0 1-8.87-.82c-3.26-.55-6.93-1.21-9.93-2V89h-13V9.3c-1-.16-2 .72-2.75.72H85c-6.59 0-11.63.72-15.12 3.12s-5.24 6.49-5.24 12.77c0 4.71.53 8.18 1.6 10.65a20.83 20.83 0 0 0 3.26 5.53 16.61 16.61 0 0 1-5.5-.92 11 11 0 0 1-4.42-2.9 13.79 13.79 0 0 1-3-5.25A26.17 26.17 0 0 1 55.6 25a23.67 23.67 0 0 1 1.89-9.3 20.84 20.84 0 0 1 6.08-7.95 32.09 32.09 0 0 1 10.86-5.63A54.6 54.6 0 0 1 90.77 0a81.2 81.2 0 0 1 8.55.41q3.84.42 7.19.94t6.65.94a55.46 55.46 0 0 0 6.94.41 37.83 37.83 0 0 0 8.3-.77A34.06 34.06 0 0 0 134 .24a24.37 24.37 0 0 1 .36 4Q134.35 14 121.87 14z"/></svg>