<svg id="Shapes" xmlns="http://www.w3.org/2000/svg" viewBox="0 0 607.94 601.38"><defs><style>.cls-1{fill:#878d8c;}.cls-17,.cls-2,.cls-4{fill:#fff;}.cls-3{fill:#e1d5b1;}.cls-18,.cls-19,.cls-22,.cls-3,.cls-4,.cls-5{fill-rule:evenodd;}.cls-5{fill:#d9cb9e;}.cls-16,.cls-20,.cls-6{fill:none;stroke-miterlimit:10;}.cls-6{stroke:#d9cb9e;}.cls-7{fill:#dc3522;}.cls-19,.cls-21,.cls-22,.cls-8{fill:#18afe5;}.cls-17,.cls-9{opacity:0.3;}.cls-10{isolation:isolate;}.cls-11{fill:#a1a1a1;}.cls-12{fill:#828282;}.cls-13{fill:#c3c3c3;}.cls-14{fill:#d7d7d7;}.cls-15{fill:#bababa;}.cls-16,.cls-20{stroke:#fff;}.cls-16{stroke-width:2px;}.cls-18{fill:#e35d4e;}.cls-19{opacity:0.5;}.cls-20{stroke-width:3px;}.cls-21{opacity:0.1;}.cls-23{opacity:0.8;}.cls-24{fill:#afb3b3;}.cls-25{opacity:0.7;}</style></defs><title>main-header-image</title><path class="cls-1" d="M147.89 275.35l-67.52-80.07 34.61-98.85 102.11-18.78 67.52 80.07-34.6 98.85-102.12 18.78z"/><path class="cls-2" d="M155.68 255.09l-52.32-62.05 26.82-76.62 79.14-14.55 52.32 62.05-26.81 76.62-79.15 14.55z"/><circle class="cls-1" cx="3225.47" cy="252.71" r="38.78" transform="rotate(-13.92 1409.53 12672.67)"/><path class="cls-3" d="M147.43 221.77c-1.18-1.2-2.35-2.42-3.55-3.61-1-.94-1.94-1.86-2.95-2.73s-1.2-1.56-.36-2.74a17.45 17.45 0 0 0 1-1.57c.91-1.6 1.81-3.2 2.67-4.82a.93.93 0 0 0 0-.77c-1.35-2.37-2.74-4.72-4.08-7.1a1.28 1.28 0 0 0-1.31-.84c-2.88.1-5.77.11-8.72.16-.25-.85-.52-1.71-.77-2.58-.67-2.37-1.3-4.74-2-7.1a.83.83 0 0 1 .49-1.14c2.33-1.28 4.63-2.6 7-3.86a1.4 1.4 0 0 0 .82-1.48c0-2.55 0-5.1.07-7.66a1.1 1.1 0 0 0-.67-1.18c-2.14-1.14-4.24-2.35-6.36-3.52-.42-.23-.89-.36-1.3-.61a.76.76 0 0 1-.31-.62c.67-2.62 1.38-5.22 2.06-7.84.19-.72.3-1.46.46-2.26 1.81 0 3.57.07 5.34.08 1.49 0 3 0 4.47-.1a2 2 0 0 0 .93-1c.55-1 1-2 1.54-2.95a11.93 11.93 0 0 1 1.63-2.71c1-1 .62-1.7 0-2.65-1.43-2.2-2.75-4.48-4.14-6.71a.69.69 0 0 1 .06-1c.44-.42.9-.8 1.33-1.24 1.92-2 3.82-4 5.78-6l4.35 2.56c1.31.76 2.62 1.52 3.92 2.31a.76.76 0 0 0 1 0 30 30 0 0 1 7.06-4.24 1 1 0 0 0 .38-.76c-.06-2.38-.16-4.75-.24-7.13v-1c0-1.44 0-1.43 1.44-1.84 2.71-.76 5.42-1.51 8.12-2.3a.84.84 0 0 1 1.19.48c1.34 2.44 2.73 4.84 4.08 7.28a1 1 0 0 0 1.11.61c2.78-.13 5.55-.2 8.33-.24a.83.83 0 0 0 .85-.55c1.22-2.3 2.51-4.58 3.69-6.9a1.28 1.28 0 0 1 1.72-.82c1 .3 2 .58 3 .85 1.91.51 3.81 1 5.74 1.47a.73.73 0 0 1 .62.91v8.58c1.54.73 3.12 1.4 4.62 2.22 1.33.72 2.56 1.61 3.86 2.39a.68.68 0 0 0 .59 0c2.38-1.43 4.75-2.89 7.14-4.31a.73.73 0 0 1 .68.07c1 1 2 2 3 2.92s2.07 1.93 3.1 2.91c.45.43.86.91 1.36 1.45-.69 1.17-1.4 2.35-2.09 3.54s-1.46 2.43-2.12 3.67a1.14 1.14 0 0 0 0 1 37.78 37.78 0 0 1 4.78 8 .89.89 0 0 0 .7.34c2.63 0 5.26-.12 7.89-.18h.65c.38 1.54.75 3.11 1.16 4.68s.93 3.42 1.45 5.12a.7.7 0 0 1-.39 1c-2.21 1.23-4.4 2.48-6.62 3.7a.89.89 0 0 0-.54 1 38.48 38.48 0 0 1 .08 9.16.93.93 0 0 0 .42.73c1.45.83 2.92 1.6 4.39 2.39.84.45 1.67.92 2.53 1.34a.62.62 0 0 1 .4.88c-.72 2.58-1.41 5.17-2.09 7.75-.18.68-.3 1.38-.47 2.18l-4.4-.06c-1.37 0-2.73 0-4.1-.09a.79.79 0 0 0-.88.53 43 43 0 0 1-4.58 7.95.71.71 0 0 0 .05.94c.79 1.21 1.58 2.41 2.34 3.64.66 1.08 1.29 2.17 1.89 3.28a.81.81 0 0 1-.09.76c-1.53 1.57-3.1 3.1-4.64 4.66-.85.86-1.66 1.76-2.51 2.67l-5.33-3.13c-.76-.44-1.54-.86-2.27-1.34a.67.67 0 0 0-.93.06 38.32 38.32 0 0 1-7.6 4.39.94.94 0 0 0-.56 1.07c.09 2.7.19 5.41.25 8.11a.81.81 0 0 1-.39.64c-3.28 1-6.57 1.88-9.93 2.83-.25-.42-.48-.8-.7-1.18-1.22-2.16-2.45-4.31-3.64-6.48a1 1 0 0 0-1.14-.58c-2.6.09-5.21.17-7.81.15-1.35 0-1.57.19-2.19 1.45-1.13 2.3-2.4 4.54-3.61 6.79l-9.16-2.3-.51-.13a.92.92 0 0 1-.78-1.11c.06-2.76 0-5.51 0-8.26a.78.78 0 0 0-.33-.58c-.88-.48-1.82-.87-2.7-1.36-1.71-1-3.41-2-5.1-3a.68.68 0 0 0-.86 0c-2.56 1.52-5.1 3.02-7.76 4.61zm68.89-52.27c-4.2-17.75-22.82-28.78-40.46-24.35a33.46 33.46 0 1 0 40.46 24.35z"/><path class="cls-4" d="M173.21 169.02l.72-.81a14.11 14.11 0 0 1 4-3.15 14.61 14.61 0 0 1 9.23-1.48l.22.06c-.46.18-.88.34-1.3.51a11.87 11.87 0 0 0-3.63 2.36 12.37 12.37 0 0 0-3.51 5.75 12.51 12.51 0 0 0-.33 5.36 12.56 12.56 0 0 0 16 10.13l1.17-.38-.11.15c-.07.07-.15.13-.22.2a14.55 14.55 0 0 1-23.73-16.41l.47-.93z"/><path class="cls-5" d="M182.11 49.15l1 1.32a20.8 20.8 0 0 1 3.57 7 22.28 22.28 0 0 1 .81 8.4 23.28 23.28 0 0 1-1.47 6.34c0 .1-.09.19-.16.33-.13-.76-.24-1.46-.38-2.15a17.81 17.81 0 0 0-2.49-6.22 18.13 18.13 0 0 0-7.75-6.83 19.05 19.05 0 0 0-8.17-1.79 20.08 20.08 0 0 0-8.87 2.05 21.1 21.1 0 0 0-7.95 6.66 20.74 20.74 0 0 0-3.08 6.08 19.65 19.65 0 0 0-.86 7.75c.06.64.14 1.27.21 1.91l-.2-.2c-.08-.13-.15-.26-.24-.39a21.37 21.37 0 0 1-3.68-7.65 22.43 22.43 0 0 1-.6-7.68 23.64 23.64 0 0 1 2.66-8.94 24.62 24.62 0 0 1 5.87-7.31 23.91 23.91 0 0 1 10.51-5.26 22.53 22.53 0 0 1 10.26.08 21.21 21.21 0 0 1 7.87 3.7l1.28 1zM74.23 93.69l1.63-.34a22.32 22.32 0 0 1 15.62 2.44 21.62 21.62 0 0 1 4.92 3.79c.07.07.13.15.23.27-.73-.19-1.4-.38-2.07-.54a18.57 18.57 0 0 0-6.63-.37 19.45 19.45 0 0 0-14.88 10.17 18.83 18.83 0 0 0-2.24 8.4 18.93 18.93 0 0 0 12.65 18.42c.59.21 1.19.39 1.78.58l-.27.09c-.15 0-.3 0-.45.06a22.33 22.33 0 0 1-8.43.08 22.07 22.07 0 0 1-7-2.57 21.78 21.78 0 0 1-10.44-13.81 21.48 21.48 0 0 1 .16-11.1 22 22 0 0 1 4.76-8.75 22.29 22.29 0 0 1 6.86-5.25l1.43-.71zM288.69 110.61c-.27.48-.54 1-.81 1.46a20.85 20.85 0 0 1-5 6.06 22.32 22.32 0 0 1-7.4 4.06 23.41 23.41 0 0 1-6.4 1.16h-.37c.65-.42 1.24-.79 1.83-1.19a17.87 17.87 0 0 0 4.73-4.75 18.17 18.17 0 0 0 3.21-9.82 19.06 19.06 0 0 0-1.59-8.21 20.08 20.08 0 0 0-5.38-7.33 21.13 21.13 0 0 0-9.26-4.67 20.79 20.79 0 0 0-6.81-.42 19.62 19.62 0 0 0-7.46 2.28c-.56.31-1.11.63-1.67.95 0-.09.07-.18.11-.27s.18-.25.26-.38a21.27 21.27 0 0 1 5.58-6.41 22.35 22.35 0 0 1 6.82-3.59 23.74 23.74 0 0 1 9.27-1.1 24.7 24.7 0 0 1 9 2.51 23.87 23.87 0 0 1 9 7.57 22.6 22.6 0 0 1 4 9.46 21.3 21.3 0 0 1-.29 8.7l-.37 1.55zM292.74 247.38l-1.66.21a20.85 20.85 0 0 1-7.87-.46 22.41 22.41 0 0 1-7.66-3.54 23.35 23.35 0 0 1-4.73-4.47c-.07-.08-.12-.17-.21-.31.72.27 1.38.53 2 .76a17.77 17.77 0 0 0 6.63 1 18.14 18.14 0 0 0 9.81-3.24 19.09 19.09 0 0 0 5.67-6.16 20.07 20.07 0 0 0 2.71-8.69 21.07 21.07 0 0 0-1.74-10.22 20.78 20.78 0 0 0-3.7-5.73 19.65 19.65 0 0 0-6.26-4.65l-1.76-.78.28-.08h.45a21.29 21.29 0 0 1 8.47.69 22.36 22.36 0 0 1 6.93 3.36 23.69 23.69 0 0 1 6.38 6.81 24.77 24.77 0 0 1 3.34 8.76 23.93 23.93 0 0 1-.77 11.72 22.55 22.55 0 0 1-5.25 8.82 21.32 21.32 0 0 1-7.17 4.93l-1.47.62z"/><path class="cls-6" d="M60.24 105.52L37.31 94.23M160.04 49.59l-2.53-25.43M281.67 83.42l18.8-17.33M307.31 233.39l23.22 10.7"/><circle class="cls-7" cx="3359.01" cy="123.65" r="8.49" transform="rotate(-30.8 1707.975 5607.935)"/><circle class="cls-2" cx="3359.01" cy="123.65" r="3.93" transform="rotate(-30.82 1707.75 5604.25)"/><circle class="cls-7" cx="3059.13" cy="156.66" r="8.49" transform="rotate(-30.8 1407.975 5640.994)"/><path class="cls-2" d="M20 87.93a3.93 3.93 0 1 1 1.36-5.38A3.93 3.93 0 0 1 20 87.93z"/><circle class="cls-7" cx="3049.64" cy="283.47" r="8.49" transform="rotate(-30.8 1398.474 5767.8)"/><circle class="cls-2" cx="3049.64" cy="283.47" r="3.93" transform="rotate(-30.8 1398.103 5767.874)"/><circle class="cls-7" cx="3082.96" cy="379.07" r="8.49" transform="rotate(-30.81 1431.142 5861.634)"/><circle class="cls-2" cx="3082.96" cy="379.07" r="3.93" transform="rotate(-30.81 1431.307 5861.6)"/><circle class="cls-7" cx="3251.9" cy="425.57" r="8.49" transform="rotate(-30.81 1600.708 5908.043)"/><circle class="cls-2" cx="3251.9" cy="425.57" r="3.93" transform="rotate(-30.81 1600.222 5908.105)"/><circle class="cls-7" cx="3393.31" cy="322.56" r="8.49" transform="rotate(-30.8 1742.106 5806.91)"/><circle class="cls-2" cx="3393.31" cy="322.56" r="3.93" transform="rotate(-30.81 1741.626 5805.11)"/><circle class="cls-7" cx="3194.31" cy="80.56" r="8.49" transform="rotate(-30.8 1543.086 5564.9)"/><circle class="cls-2" cx="3194.31" cy="80.56" r="3.93" transform="rotate(-30.81 1542.658 5563.13)"/><path class="cls-5" d="M185.28 305.65c-.33-.44-.66-.89-1-1.34a20.86 20.86 0 0 1-3.45-7.09 22.39 22.39 0 0 1-.66-8.42 23.26 23.26 0 0 1 1.58-6.31c0-.1.09-.19.16-.34.12.77.21 1.46.34 2.16a17.79 17.79 0 0 0 2.38 6.26 18.14 18.14 0 0 0 7.63 7 19 19 0 0 0 8.15 1.93 20.12 20.12 0 0 0 8.9-1.9 21.07 21.07 0 0 0 8.06-6.52 20.83 20.83 0 0 0 3.19-6 19.67 19.67 0 0 0 1-7.73c0-.64-.12-1.27-.18-1.91l.2.2a4.1 4.1 0 0 0 .23.39 21.33 21.33 0 0 1 3.54 7.72 22.37 22.37 0 0 1 .46 7.69 23.55 23.55 0 0 1-2.81 8.89 24.58 24.58 0 0 1-6 7.2 23.86 23.86 0 0 1-10.6 5.08 22.52 22.52 0 0 1-10.26-.26 21.21 21.21 0 0 1-7.81-3.83l-1.26-1z"/><path class="cls-6" d="M205.23 312.62l2.15 22.09"/><path class="cls-5" d="M79.85 260.49c.13-.54.26-1.08.38-1.63a20.8 20.8 0 0 1 3.16-7.22 22.28 22.28 0 0 1 6-6 23.12 23.12 0 0 1 5.83-2.89 3 3 0 0 1 .36-.1c-.5.58-1 1.11-1.42 1.65a17.8 17.8 0 0 0-3.22 5.88 18.15 18.15 0 0 0-.36 10.33 19 19 0 0 0 3.81 7.45 20.12 20.12 0 0 0 7.21 5.55 21.09 21.09 0 0 0 10.2 1.91 20.76 20.76 0 0 0 6.66-1.49 19.66 19.66 0 0 0 6.53-4.26c.46-.45.9-.92 1.34-1.37v.29s-.11.28-.15.43a21.32 21.32 0 0 1-3.57 7.7 22.43 22.43 0 0 1-5.56 5.34 23.65 23.65 0 0 1-8.59 3.63 24.64 24.64 0 0 1-9.37.1 23.93 23.93 0 0 1-10.74-4.78 22.56 22.56 0 0 1-6.45-8 21.25 21.25 0 0 1-2.14-8.43c0-.53-.05-1.07-.07-1.6-.03-.79.05-1.64.16-2.49z"/><path class="cls-6" d="M79.12 279.01l-21.23 14.53"/><path class="cls-5" d="M50.57 191.99l.78-1a16.07 16.07 0 0 1 4.41-3.77 16.49 16.49 0 0 1 10.32-2.16l.25.05-1.44.64a13.83 13.83 0 0 0-4 2.86 14.38 14.38 0 0 0-3.87 12.76 14 14 0 0 0 18.42 10.62l1.3-.48-.11.18c-.08.08-.16.15-.24.24a16.5 16.5 0 0 1-4.83 4 16.33 16.33 0 0 1-5.25 1.78 16.11 16.11 0 0 1-12.42-3.12 15.9 15.9 0 0 1-5.05-6.47 16.55 16.55 0 0 1 .22-13.46l.49-1.07z"/><path class="cls-6" d="M49.06 203.37L25.29 208"/><path class="cls-8" d="M187.25 486.58a25.53 25.53 0 1 0 .79-36.1 25.52 25.52 0 0 0-.79 36.1z"/><path class="cls-2" d="M195.8 478.11a13.08 13.08 0 1 0 .4-18.5 13.08 13.08 0 0 0-.4 18.5z"/><g class="cls-9 cls-10"><path class="cls-11" d="M478.03 405.06l16.74-2.35 71.43 13.27-16.74 2.35-71.43-13.27z"/><path class="cls-12" d="M579.87 556.73l16.74-2.35-57.88 44.65-16.74 2.35 57.88-44.65z"/><path class="cls-13" d="M478.03 405.06l71.43 13.27 41.74 62.89-11.33 75.51-57.88 44.65-71.43-13.27-42.43-63.29 11.33-75.51 58.57-44.25z"/><path class="cls-14" d="M549.46 418.33l16.74-2.35 41.74 62.89-16.74 2.35-41.74-62.89z"/><path class="cls-15" d="M591.2 481.22l16.74-2.35-11.33 75.51-16.74 2.35 11.33-75.51z"/></g><path class="cls-8" d="M304.77 492.32a17.46 17.46 0 1 0 .54-24.69 17.46 17.46 0 0 0-.54 24.69z"/><circle class="cls-2" cx="3358.53" cy="552.31" r="7.91" transform="rotate(-43.74 1748.386 4304.513)"/><path class="cls-16" d="M370.28 332.87l14.7 11.81M335.38 326.19l16 .15"/><path class="cls-17" d="M333.94 412.28l30.97-4.24 19.16-24.17-3.85-29.94-24.16-19.16-30.33 2.83-19.17 24.16 3.22 31.35 24.16 19.17z"/><circle class="cls-2" cx="3385.8" cy="444.5" r="18.85" transform="rotate(-51.58 1790.838 3555.273)"/><circle class="cls-2" cx="3545.24" cy="576.16" r="44.28" transform="rotate(-68.47 1971.692 2774.643)"/><path class="cls-18" d="M531.35 555.3a.83.83 0 0 0-1-.16c-2.18.94-4.37 1.86-6.57 2.73-1.13.45-2.31.76-3.44 1.19a.94.94 0 0 0-.48.64c-.46 3.29-.91 6.59-1.29 9.89a1.11 1.11 0 0 1-1.11 1.21l-.64.07-11.34 1.28c-1.08-2.89-2.25-5.77-3.23-8.71-.54-1.61-.77-1.88-2.39-2.09-3.12-.4-6.22-.91-9.32-1.43a1.25 1.25 0 0 0-1.46.51c-1.77 2.41-3.59 4.79-5.39 7.17-.32.43-.67.85-1 1.31-3.86-1.67-7.65-3.3-11.43-5a1 1 0 0 1-.36-.83c.51-3.23 1.06-6.45 1.6-9.67a1.13 1.13 0 0 0-.5-1.37 46.36 46.36 0 0 1-8.39-6.47.82.82 0 0 0-1.11-.22c-1 .46-2 .83-2.94 1.25l-6.88 2.9c-.87-1.22-1.7-2.43-2.58-3.59-1.59-2.11-3.23-4.2-4.81-6.32a1 1 0 0 1 0-.92c.89-1.24 1.83-2.45 2.79-3.63 1.1-1.35 2.25-2.66 3.38-4a.85.85 0 0 0 .21-1.12 51.63 51.63 0 0 1-4.2-10.24 1 1 0 0 0-1-.78c-1.64-.15-3.28-.35-4.92-.54l-5.28-.63c-.08-1-.11-1.84-.22-2.68-.4-3.21-.82-6.41-1.26-9.61a.76.76 0 0 1 .62-1c1.09-.36 2.17-.79 3.25-1.2 1.88-.71 3.77-1.4 5.63-2.16a1.13 1.13 0 0 0 .62-.8 46.39 46.39 0 0 1 1.56-10.95 1.07 1.07 0 0 0-.49-1.29c-2.46-1.81-4.88-3.67-7.33-5.49a.84.84 0 0 1-.32-1.21q1.32-2.93 2.54-5.9c.75-1.8 1.44-3.63 2.14-5.41.43 0 .61 0 .78.07 3.14.5 6.27 1 9.41 1.48a1.07 1.07 0 0 0 .9-.29 45.67 45.67 0 0 1 7-8.8 1.38 1.38 0 0 0 .19-1.19c-.6-1.6-1.29-3.16-1.95-4.73L457.4 452c.68-.56 1.25-1.07 1.86-1.52 1.38-1 2.79-2 4.17-3s2.65-2 4-3a.88.88 0 0 1 .82 0c2.63 2.09 5.23 4.21 7.86 6.3a.81.81 0 0 0 .69.13c1.67-.73 3.29-1.6 5-2.25 1.93-.73 3.92-1.29 5.89-1.92.46-3.43.93-6.84 1.37-10.26a.88.88 0 0 1 .88-1c2.37-.24 4.73-.54 7.1-.84q1.86-.23 3.72-.53a1.54 1.54 0 0 1 1.92 1.26c1 3 2.21 5.89 3.31 8.84a1 1 0 0 0 .93.79c3.32.49 6.63 1 9.93 1.61a1.21 1.21 0 0 0 1.42-.55c2-2.7 4.05-5.35 6-8.05a1 1 0 0 1 1.5-.39c3.1 1.39 6.22 2.71 9.34 4.06 1.64.71 1.64.7 1.43 2.43 0 .39-.09.79-.16 1.18-.48 2.83-1 5.66-1.43 8.49a1.15 1.15 0 0 0 .34 1 36.26 36.26 0 0 1 7.77 6.2.91.91 0 0 0 1.19.19c1.67-.73 3.37-1.43 5.05-2.14l5.61-2.36c2 2.76 4 5.44 6 8.11.43.59.93 1.12 1.39 1.69a.83.83 0 0 1-.09 1.2c-2 2.45-4 5-6 7.37-.88 1-1.42 1.81-.41 3.16a14.43 14.43 0 0 1 1.52 3.51c.48 1.25.87 2.53 1.37 3.77a2.34 2.34 0 0 0 1 1.36c1.75.39 3.55.61 5.33.84 2.11.28 4.23.5 6.4.76.06 1 .08 1.88.19 2.78.4 3.24.83 6.47 1.21 9.71a.92.92 0 0 1-.47.7c-.52.24-1.11.32-1.65.53-2.73 1.06-5.43 2.17-8.18 3.2a1.32 1.32 0 0 0-1 1.3c-.34 3.06-.69 6.13-1.14 9.17a1.7 1.7 0 0 0 .74 1.9c2.59 1.88 5.13 3.84 7.71 5.73a1 1 0 0 1 .39 1.45c-1.2 2.71-2.34 5.45-3.52 8.18-.43 1-.89 2-1.33 3-3.53-.53-7-1-10.41-1.58a1.55 1.55 0 0 0-1.7.8c-2 2.63-4 5.22-6 7.84a1.12 1.12 0 0 0-.16.91c.78 2.08 1.6 4.14 2.43 6.19a21.79 21.79 0 0 0 1 2c.83 1.54.61 2.26-.86 3.22s-2.67 1.83-4 2.8c-1.63 1.22-3.22 2.5-4.82 3.75-2.93-2.27-5.73-4.48-8.5-6.72zm-43.5-14.53a40.39 40.39 0 1 0 30.2-74.92c-20.4-8.12-44.44 2.11-52.3 22.67a40.27 40.27 0 0 0 22.1 52.25z"/><path class="cls-18" d="M517.5 497.4c.79 2.59.76 2.55-1.46 4.09a3.16 3.16 0 0 0-1 1.6c-.26.83-.15 1.8-.47 2.6a2.26 2.26 0 0 0 .74 2.67c1.25 1.33 1.27 1.6.29 3.1l-.1.15c-.86 1.38-.88 1.44-2.41 1a5.29 5.29 0 0 0-3.94.38 5 5 0 0 0-3.12 3.76 3.15 3.15 0 0 1-.23.7.7.7 0 0 1-.33.4 16.56 16.56 0 0 1-3.26.09 2.28 2.28 0 0 1-.91-1.35 4.51 4.51 0 0 0-2.83-2.75 4.63 4.63 0 0 0-4.08 0c-1.5.7-1.58.65-2.65-.55-1.78-2-1.56-1.31-.5-3.55a3.65 3.65 0 0 0 .47-2.72c-.49-2-1.3-3.48-3.25-4.19a1.58 1.58 0 0 1-1.07-2c0-.27.06-.55.1-.82.25-1.52.25-1.63 1.8-1.73a3.74 3.74 0 0 0 3.42-2.05c.77-1.35 1.75-2.44 1-4.11-.14-.34 0-.81-.08-1.17a1.2 1.2 0 0 1 .73-1.53c2.38-1.43 1.6-1.42 3.64.33 1.12 1 2.12 1.55 3.56.93a1.42 1.42 0 0 1 .81-.08c1.71.36 2.62-.75 3.53-1.87.25-.31.46-.64.72-.95a.76.76 0 0 1 .41-.32 15.83 15.83 0 0 1 2.64 1 1.92 1.92 0 0 1 .29 1.22 12.89 12.89 0 0 1 0 2 2.25 2.25 0 0 0 .93 2c.92.81 1.53 2.14 2.56 2.61s2.51.24 3.83.31c.11.39.16.6.22.8zm-17.36 12.53a8 8 0 0 0 9.9-4.29 7.81 7.81 0 0 0-4.32-10 7.63 7.63 0 0 0-10 4.29 7.79 7.79 0 0 0 4.42 10z"/><circle class="cls-2" cx="3299.31" cy="578.93" r="30.61" transform="rotate(-68.47 1725.774 2777.407)"/><path class="cls-18" d="M277.62 542.26a.57.57 0 0 0-.71-.11c-1.51.65-3 1.28-4.54 1.89-.78.31-1.6.53-2.38.82a.65.65 0 0 0-.34.44c-.32 2.28-.63 4.55-.89 6.84a.77.77 0 0 1-.77.84l-.44.05-7.84.89c-.75-2-1.56-4-2.23-6-.37-1.11-.53-1.3-1.65-1.44-2.15-.28-4.3-.63-6.44-1a.86.86 0 0 0-1 .35c-1.22 1.67-2.48 3.31-3.73 5-.23.3-.46.59-.71.9-2.67-1.16-5.29-2.28-7.9-3.44a.67.67 0 0 1-.25-.58c.35-2.23.73-4.46 1.11-6.68a.78.78 0 0 0-.35-.95 32 32 0 0 1-5.8-4.47.56.56 0 0 0-.77-.15c-.66.32-1.35.58-2 .86l-4.76 2c-.6-.84-1.18-1.68-1.78-2.48-1.1-1.46-2.23-2.9-3.33-4.37a.69.69 0 0 1 0-.64q.92-1.28 1.93-2.51c.76-.93 1.55-1.84 2.34-2.75a.59.59 0 0 0 .14-.77 35.75 35.75 0 0 1-2.9-7.08.66.66 0 0 0-.67-.54c-1.13-.11-2.27-.25-3.4-.38l-3.65-.44c-.05-.68-.08-1.27-.15-1.85-.28-2.22-.56-4.43-.87-6.64a.52.52 0 0 1 .43-.69c.76-.25 1.5-.55 2.24-.83 1.3-.49 2.61-1 3.89-1.49a.78.78 0 0 0 .43-.56 32.2 32.2 0 0 1 1.08-7.57.74.74 0 0 0-.34-.89c-1.7-1.25-3.37-2.53-5.06-3.79a.58.58 0 0 1-.22-.84q.91-2 1.76-4.08c.52-1.25 1-2.51 1.48-3.74h.54c2.17.34 4.33.7 6.51 1a.74.74 0 0 0 .62-.2 31.5 31.5 0 0 1 4.83-6.08 1 1 0 0 0 .13-.82c-.41-1.11-.89-2.18-1.35-3.27l-1.34-3.16c.47-.39.86-.74 1.28-1 1-.7 1.93-1.36 2.88-2.07s1.84-1.41 2.77-2.09a.61.61 0 0 1 .57 0c1.82 1.44 3.61 2.91 5.43 4.35a.56.56 0 0 0 .48.09c1.16-.51 2.28-1.1 3.45-1.55 1.33-.51 2.71-.89 4.07-1.33.32-2.37.64-4.73.94-7.09a.61.61 0 0 1 .61-.68c1.64-.16 3.27-.37 4.9-.58q1.29-.16 2.57-.37a1.07 1.07 0 0 1 1.33.87c.72 2.05 1.53 4.07 2.29 6.11a.69.69 0 0 0 .64.55c2.29.34 4.58.7 6.86 1.12a.84.84 0 0 0 1-.38c1.38-1.86 2.8-3.7 4.18-5.57a.71.71 0 0 1 1-.27c2.14 1 4.3 1.88 6.46 2.8 1.13.49 1.14.49 1 1.68 0 .27-.06.55-.11.82-.33 2-.68 3.91-1 5.87a.8.8 0 0 0 .23.67 25 25 0 0 1 5.38 4.29.63.63 0 0 0 .82.13c1.16-.51 2.33-1 3.49-1.48l3.88-1.63c1.4 1.91 2.75 3.76 4.12 5.61.3.4.65.77 1 1.17a.57.57 0 0 1-.07.83c-1.4 1.69-2.74 3.43-4.17 5.1-.61.71-1 1.25-.29 2.19a9.92 9.92 0 0 1 1 2.43c.33.86.6 1.75.95 2.6a1.63 1.63 0 0 0 .66.94c1.21.27 2.45.42 3.68.58 1.46.19 2.92.35 4.43.52 0 .67.05 1.3.13 1.92.27 2.24.58 4.47.84 6.71a.64.64 0 0 1-.33.48c-.36.17-.77.22-1.14.37-1.89.73-3.76 1.5-5.65 2.21a.91.91 0 0 0-.68.9c-.23 2.12-.48 4.23-.79 6.34a1.17 1.17 0 0 0 .51 1.32c1.79 1.3 3.55 2.65 5.33 4a.69.69 0 0 1 .27 1c-.83 1.88-1.62 3.77-2.43 5.65-.3.69-.62 1.38-.92 2.05-2.44-.37-4.82-.7-7.2-1.09a1.07 1.07 0 0 0-1.18.55c-1.37 1.82-2.78 3.6-4.15 5.42a.77.77 0 0 0-.11.63c.54 1.44 1.1 2.86 1.68 4.28a14.85 14.85 0 0 0 .69 1.41c.57 1.07.42 1.56-.59 2.23s-1.85 1.26-2.74 1.93c-1.13.84-2.23 1.73-3.34 2.59-1.96-1.65-3.9-3.18-5.81-4.73zm-30.06-10a27.92 27.92 0 1 0 20.87-51.79c-14.1-5.61-30.72 1.46-36.15 15.67a27.84 27.84 0 0 0 15.28 36.07z"/><path class="cls-19" d="M268.04 502.23c.55 1.79.53 1.76-1 2.83a2.18 2.18 0 0 0-.72 1.1c-.18.58-.1 1.25-.33 1.8a1.56 1.56 0 0 0 .51 1.84c.87.92.88 1.1.2 2.15l-.06.11c-.6 1-.61 1-1.66.72a3.66 3.66 0 0 0-2.72.26 3.47 3.47 0 0 0-2.16 2.6 2.26 2.26 0 0 1-.16.48.49.49 0 0 1-.23.28 11.58 11.58 0 0 1-2.25.06 1.58 1.58 0 0 1-.63-.93 3.12 3.12 0 0 0-2-1.9 3.2 3.2 0 0 0-2.82 0c-1 .49-1.09.45-1.84-.38-1.23-1.37-1.08-.9-.35-2.46a2.52 2.52 0 0 0 .33-1.88 3.61 3.61 0 0 0-2.25-2.89 1.09 1.09 0 0 1-.74-1.38c0-.19 0-.38.07-.57.17-1 .17-1.13 1.25-1.2a2.58 2.58 0 0 0 2.37-1.42c.53-.93 1.21-1.69.72-2.84-.1-.24 0-.56-.05-.81a.83.83 0 0 1 .51-1.06c1.64-1 1.11-1 2.51.22a2.14 2.14 0 0 0 2.46.64 1 1 0 0 1 .56-.06c1.18.25 1.81-.52 2.44-1.29.17-.21.32-.44.49-.66a.53.53 0 0 1 .28-.22 10.82 10.82 0 0 1 1.82.67 1.34 1.34 0 0 1 .2.84 9.12 9.12 0 0 1 0 1.39 1.57 1.57 0 0 0 .64 1.39c.64.56 1.06 1.48 1.77 1.8a7.79 7.79 0 0 0 2.65.22c.12.25.15.42.19.55zm-12 8.66a5.51 5.51 0 0 0 6.85-3 5.4 5.4 0 0 0-3-6.88 5.27 5.27 0 0 0-6.9 3 5.39 5.39 0 0 0 3.05 6.92z"/><circle class="cls-20" cx="3299.44" cy="575.78" r="65.29" transform="rotate(-68.47 1725.91 2774.253)"/><path class="cls-19" d="M345.96 365.53c.13-.15.23-.32.36-.48a.38.38 0 0 1 .21-.16 8 8 0 0 1 1.33.49 1 1 0 0 1 .15.62 6.44 6.44 0 0 1 0 1 1.14 1.14 0 0 0 .47 1 7.07 7.07 0 0 0 1.29 1.32 5.68 5.68 0 0 0 1.93.16c0 .16.06.27.1.37.4 1.31.38 1.29-.74 2.06a1.59 1.59 0 0 0-.53.81c-.13.42-.08.91-.24 1.31a1.14 1.14 0 0 0 .37 1.35c.63.67.64.81.14 1.57v.08c-.44.7-.44.73-1.22.53a2.67 2.67 0 0 0-2 .19 2.54 2.54 0 0 0-1.58 1.9 1.59 1.59 0 0 1-.12.35.35.35 0 0 1-.16.2 8.21 8.21 0 0 1-1.65 0 1.15 1.15 0 0 1-.46-.68 2.28 2.28 0 0 0-1.43-1.39 2.35 2.35 0 0 0-2.06 0c-.76.36-.79.33-1.34-.28-.9-1-.79-.66-.26-1.79a1.85 1.85 0 0 0 .24-1.37 2.63 2.63 0 0 0-1.64-2.11.8.8 0 0 1-.54-1c0-.14 0-.28.05-.41.13-.77.12-.82.91-.87a1.89 1.89 0 0 0 1.73-1c.39-.68.88-1.23.53-2.08-.07-.17 0-.41 0-.59a.6.6 0 0 1 .37-.77c1.2-.72.81-.72 1.84.16a1.57 1.57 0 0 0 1.8.47m-.71 9.68a4 4 0 0 0 5-2.16 4 4 0 0 0-2.18-5 3.85 3.85 0 0 0-5 2.17 3.93 3.93 0 0 0 2.14 5.02z"/><circle class="cls-21" cx="3385.7" cy="444.65" r="4.37" transform="rotate(-68.48 1811.98 2642.82)"/><circle class="cls-2" cx="3433.71" cy="421.43" r="4.37" transform="rotate(-68.47 1860.205 2619.904)"/><path class="cls-22" d="M393.97 342.31c.13-.15.23-.32.36-.48a.38.38 0 0 1 .21-.16 7.8 7.8 0 0 1 1.33.49 1 1 0 0 1 .14.62 6.53 6.53 0 0 1 0 1 1.14 1.14 0 0 0 .47 1 7.11 7.11 0 0 0 1.29 1.32 5.67 5.67 0 0 0 1.94.16c0 .16.07.27.1.37.4 1.31.38 1.29-.74 2.07a1.59 1.59 0 0 0-.53.81c-.13.42-.08.91-.24 1.31a1.14 1.14 0 0 0 .37 1.35c.63.67.64.81.14 1.57v.08c-.43.7-.44.73-1.22.53a2.66 2.66 0 0 0-2 .19 2.54 2.54 0 0 0-1.58 1.9 1.56 1.56 0 0 1-.12.35.36.36 0 0 1-.16.2 8.35 8.35 0 0 1-1.65 0 1.15 1.15 0 0 1-.46-.68 2.28 2.28 0 0 0-1.43-1.39 2.34 2.34 0 0 0-2.06 0c-.76.35-.79.33-1.34-.28-.9-1-.79-.66-.25-1.8a1.84 1.84 0 0 0 .24-1.37 2.63 2.63 0 0 0-1.64-2.11.8.8 0 0 1-.54-1c0-.14 0-.28.05-.41.13-.77.12-.82.91-.88a1.88 1.88 0 0 0 1.73-1c.39-.68.88-1.23.53-2.08a5.91 5.91 0 0 1 0-.59.6.6 0 0 1 .37-.77c1.2-.73.81-.72 1.84.16a1.56 1.56 0 0 0 1.8.47m-.71 9.68a4 4 0 0 0 5-2.16 3.94 3.94 0 0 0-2.18-5 3.85 3.85 0 0 0-5 2.17 3.93 3.93 0 0 0 2.13 5.03z"/><circle class="cls-2" cx="3403.32" cy="397.88" r="4.37" transform="rotate(-68.47 1829.818 2596.345)"/><path class="cls-22" d="M363.59 318.76c.12-.16.23-.33.36-.48a.38.38 0 0 1 .21-.16 7.9 7.9 0 0 1 1.33.49 1 1 0 0 1 .15.62 6.65 6.65 0 0 1 0 1 1.14 1.14 0 0 0 .47 1 7.11 7.11 0 0 0 1.29 1.32 5.71 5.71 0 0 0 1.93.16c0 .16.06.27.1.37.4 1.3.38 1.29-.74 2.06a1.6 1.6 0 0 0-.53.81c-.13.42-.08.91-.24 1.31a1.14 1.14 0 0 0 .37 1.35c.63.67.64.81.14 1.57v.08c-.44.7-.44.73-1.22.53a2.67 2.67 0 0 0-2 .19 2.54 2.54 0 0 0-1.58 1.9 1.63 1.63 0 0 1-.11.35.36.36 0 0 1-.17.2 8.23 8.23 0 0 1-1.65 0 1.15 1.15 0 0 1-.46-.68 2.28 2.28 0 0 0-1.43-1.39 2.35 2.35 0 0 0-2.06 0c-.76.36-.79.33-1.34-.28-.9-1-.79-.66-.26-1.79a1.85 1.85 0 0 0 .24-1.37 2.63 2.63 0 0 0-1.64-2.11.8.8 0 0 1-.54-1c0-.14 0-.28.05-.41.13-.77.13-.83.91-.88a1.89 1.89 0 0 0 1.73-1c.39-.68.88-1.23.53-2.07a6 6 0 0 1 0-.59.6.6 0 0 1 .37-.77c1.2-.72.81-.72 1.84.17a1.57 1.57 0 0 0 1.8.47m-.71 9.68a4 4 0 0 0 5-2.16 3.94 3.94 0 0 0-2.18-5 3.85 3.85 0 0 0-5 2.17 3.93 3.93 0 0 0 2.14 5z"/><circle class="cls-2" cx="3367.21" cy="399.33" r="4.37" transform="rotate(-68.47 1793.79 2597.757)"/><path class="cls-22" d="M327.47 320.21c.13-.15.23-.32.36-.48a.39.39 0 0 1 .21-.16 8 8 0 0 1 1.33.49 1 1 0 0 1 .15.62 6.53 6.53 0 0 1 0 1 1.14 1.14 0 0 0 .47 1 7.12 7.12 0 0 0 1.29 1.32 5.69 5.69 0 0 0 1.93.16c0 .16.06.27.1.37.4 1.31.38 1.29-.74 2.06a1.59 1.59 0 0 0-.53.81c-.13.42-.08.91-.24 1.31a1.14 1.14 0 0 0 .37 1.35c.63.67.64.81.14 1.57v.08c-.43.7-.44.73-1.22.53a2.67 2.67 0 0 0-2 .19 2.54 2.54 0 0 0-1.58 1.9 1.6 1.6 0 0 1-.11.35.36.36 0 0 1-.16.2 8.43 8.43 0 0 1-1.65 0 1.15 1.15 0 0 1-.46-.68 2.29 2.29 0 0 0-1.43-1.39 2.35 2.35 0 0 0-2.06 0c-.76.36-.79.33-1.34-.28-.9-1-.79-.66-.26-1.79a1.84 1.84 0 0 0 .24-1.37 2.63 2.63 0 0 0-1.64-2.11.8.8 0 0 1-.54-1c0-.14 0-.28.05-.41.13-.77.12-.82.91-.88a1.89 1.89 0 0 0 1.73-1c.39-.68.88-1.23.53-2.07-.07-.17 0-.41 0-.59a.6.6 0 0 1 .37-.77c1.2-.72.81-.72 1.84.16a1.57 1.57 0 0 0 1.8.47m-.71 9.68a4 4 0 0 0 5-2.17 3.94 3.94 0 0 0-2.18-5 3.85 3.85 0 0 0-5 2.17 3.93 3.93 0 0 0 2.13 5.08z"/><circle class="cls-7" cx="3245.57" cy="540.23" r="5.98" transform="rotate(-12.17 1386.738 14767.9)"/><circle class="cls-2" cx="3245.57" cy="540.23" r="2.77" transform="rotate(-11.48 1560.59 14825.29)"/><rect class="cls-23 cls-24" x="3373.2" y="580.24" width="63.87" height="29.52" rx="6" ry="6" transform="rotate(-5.28 1101.05 33536.31)"/><rect class="cls-25 cls-2" x="3389.09" y="588.19" width="32.52" height="13.59" rx="6" ry="6" transform="rotate(-5.28 1101.37 33536.32)"/><rect class="cls-23 cls-24" x="3337.28" y="207.45" width="61.15" height="28.26" rx="6" ry="6" transform="rotate(-15.54 1583.81 11329.35)"/><rect class="cls-25 cls-2" x="3352.42" y="214.68" width="31.13" height="13.01" rx="6" ry="6" transform="rotate(-15.54 1584.16 11328.95)"/><rect class="cls-23 cls-24" x="3427.59" y="467.68" width="31.44" height="46.09" rx="6" ry="6" transform="rotate(-52.14 1849.25 3562.63)"/><rect class="cls-25 cls-2" x="3435.33" y="479.03" width="15.96" height="23.4" rx="6" ry="6" transform="rotate(-52.15 1848.96 3562.04)"/><rect class="cls-23 cls-24" x="3307.05" y="358.66" width="31.44" height="46.09" rx="6" ry="6" transform="rotate(-43.41 1711.8 4165.69)"/><rect class="cls-25 cls-2" x="3314.99" y="369.72" width="16.87" height="24.74" rx="6" ry="6" transform="rotate(-43.41 1712.67 4166.03)"/><rect class="cls-23 cls-24" x="3327.26" y="480.03" width="37.85" height="30.46" rx="6" ry="6" transform="rotate(-51.56 1750.87 3607.53)"/><rect class="cls-25 cls-2" x="3335.2" y="487.82" width="21.62" height="14.18" rx="6" ry="6" transform="rotate(-51.55 1751.08 3607.76)"/><path class="cls-23 cls-24" d="M550.71 357.07a5.84 5.84 0 0 0-6.9 4.75l-5.33 31a6.2 6.2 0 0 0 4.87 7.08l18.14 3.59a5.84 5.84 0 0 0 6.9-4.75l5.33-31a6.2 6.2 0 0 0-4.87-7.08z"/><path class="cls-25 cls-2" d="M556.85 367.6a5.84 5.84 0 0 0-6.9 4.75L547.78 385a6.21 6.21 0 0 0 4.87 7.08l2.16.43a5.84 5.84 0 0 0 6.9-4.75l2.17-12.66a6.2 6.2 0 0 0-4.87-7.08z"/></svg>