<svg id="Shapes" xmlns="http://www.w3.org/2000/svg" viewBox="0 0 607.94 601.38"><defs><style>.cls-1{fill:#878d8c;}.cls-17,.cls-2,.cls-4{fill:#fff;}.cls-3{fill:#e1d5b1;}.cls-18,.cls-19,.cls-22,.cls-3,.cls-4,.cls-5{fill-rule:evenodd;}.cls-5{fill:#d9cb9e;}.cls-16,.cls-20,.cls-6{fill:none;stroke-miterlimit:10;}.cls-6{stroke:#d9cb9e;}.cls-7{fill:#dc3522;}.cls-19,.cls-21,.cls-22,.cls-8{fill:#18afe5;}.cls-17,.cls-9{opacity:0.3;}.cls-10{isolation:isolate;}.cls-11{fill:#a1a1a1;}.cls-12{fill:#828282;}.cls-13{fill:#c3c3c3;}.cls-14{fill:#d7d7d7;}.cls-15{fill:#bababa;}.cls-16,.cls-20{stroke:#fff;}.cls-16{stroke-width:2px;}.cls-18{fill:#e35d4e;}.cls-19{opacity:0.5;}.cls-20{stroke-width:3px;}.cls-21{opacity:0.1;}.cls-23{opacity:0.8;}.cls-24{fill:#afb3b3;}.cls-25{opacity:0.7;}</style></defs><title>main-header-image</title><polygon class="cls-1" points="147.89 275.35 80.37 195.28 114.98 96.43 217.09 77.65 284.61 157.72 250.01 256.57 147.89 275.35"/><polygon class="cls-2" points="155.68 255.09 103.36 193.04 130.18 116.42 209.32 101.87 261.64 163.92 234.83 240.54 155.68 255.09"/><circle class="cls-1" cx="3225.47" cy="252.71" r="38.78" transform="translate(-3007.23 711.25) rotate(-13.92)"/><path class="cls-3" d="M3188.58,293.84c-1.18-1.2-2.35-2.42-3.55-3.61-1-.94-1.94-1.86-2.95-2.73s-1.2-1.56-.36-2.74a17.45,17.45,0,0,0,1-1.57c0.91-1.6,1.81-3.2,2.67-4.82a0.93,0.93,0,0,0,0-.77c-1.35-2.37-2.74-4.72-4.08-7.1a1.28,1.28,0,0,0-1.31-.84c-2.88.1-5.77,0.11-8.72,0.16-0.25-.85-0.52-1.71-0.77-2.58-0.67-2.37-1.3-4.74-2-7.1A0.83,0.83,0,0,1,3169,259c2.33-1.28,4.63-2.6,7-3.86a1.4,1.4,0,0,0,.82-1.48c0-2.55,0-5.1.07-7.66a1.1,1.1,0,0,0-.67-1.18c-2.14-1.14-4.24-2.35-6.36-3.52-0.42-.23-0.89-0.36-1.3-0.61a0.76,0.76,0,0,1-.31-0.62c0.67-2.62,1.38-5.22,2.06-7.84,0.19-.72.3-1.46,0.46-2.26,1.81,0,3.57.07,5.34,0.08,1.49,0,3,0,4.47-.1a2,2,0,0,0,.93-1c0.55-1,1-2,1.54-2.95a11.93,11.93,0,0,1,1.63-2.71c1-1,.62-1.7,0-2.65-1.43-2.2-2.75-4.48-4.14-6.71a0.69,0.69,0,0,1,.06-1c0.44-.42.9-0.8,1.33-1.24,1.92-2,3.82-4,5.78-6l4.35,2.56c1.31,0.76,2.62,1.52,3.92,2.31a0.76,0.76,0,0,0,1,0,30,30,0,0,1,7.06-4.24,1,1,0,0,0,.38-0.76c-0.06-2.38-.16-4.75-0.24-7.13,0-.33,0-0.66,0-1,0-1.44,0-1.43,1.44-1.84,2.71-.76,5.42-1.51,8.12-2.3a0.84,0.84,0,0,1,1.19.48c1.34,2.44,2.73,4.84,4.08,7.28a1,1,0,0,0,1.11.61c2.78-.13,5.55-0.2,8.33-0.24a0.83,0.83,0,0,0,.85-0.55c1.22-2.3,2.51-4.58,3.69-6.9a1.28,1.28,0,0,1,1.72-.82c1,0.3,2,.58,3,0.85,1.91,0.51,3.81,1,5.74,1.47a0.73,0.73,0,0,1,.62.91c0,2.85,0,5.71,0,8.58,1.54,0.73,3.12,1.4,4.62,2.22,1.33,0.72,2.56,1.61,3.86,2.39a0.68,0.68,0,0,0,.59,0c2.38-1.43,4.75-2.89,7.14-4.31a0.73,0.73,0,0,1,.68.07c1,1,2,2,3,2.92s2.07,1.93,3.1,2.91c0.45,0.43.86,0.91,1.36,1.45-0.69,1.17-1.4,2.35-2.09,3.54s-1.46,2.43-2.12,3.67a1.14,1.14,0,0,0,0,1,37.78,37.78,0,0,1,4.78,8,0.89,0.89,0,0,0,.7.34c2.63,0,5.26-.12,7.89-0.18,0.15,0,.3,0,0.65,0,0.38,1.54.75,3.11,1.16,4.68s0.93,3.42,1.45,5.12a0.7,0.7,0,0,1-.39,1c-2.21,1.23-4.4,2.48-6.62,3.7a0.89,0.89,0,0,0-.54,1,38.48,38.48,0,0,1,.08,9.16,0.93,0.93,0,0,0,.42.73c1.45,0.83,2.92,1.6,4.39,2.39,0.84,0.45,1.67.92,2.53,1.34a0.62,0.62,0,0,1,.4.88c-0.72,2.58-1.41,5.17-2.09,7.75-0.18.68-.3,1.38-0.47,2.18l-4.4-.06c-1.37,0-2.73,0-4.1-.09a0.79,0.79,0,0,0-.88.53,43,43,0,0,1-4.58,7.95,0.71,0.71,0,0,0,.05.94c0.79,1.21,1.58,2.41,2.34,3.64,0.66,1.08,1.29,2.17,1.89,3.28a0.81,0.81,0,0,1-.09.76c-1.53,1.57-3.1,3.1-4.64,4.66-0.85.86-1.66,1.76-2.51,2.67l-5.33-3.13c-0.76-.44-1.54-0.86-2.27-1.34a0.67,0.67,0,0,0-.93.06,38.32,38.32,0,0,1-7.6,4.39,0.94,0.94,0,0,0-.56,1.07c0.09,2.7.19,5.41,0.25,8.11a0.81,0.81,0,0,1-.39.64c-3.28,1-6.57,1.88-9.93,2.83-0.25-.42-0.48-0.8-0.7-1.18-1.22-2.16-2.45-4.31-3.64-6.48a1,1,0,0,0-1.14-.58c-2.6.09-5.21,0.17-7.81,0.15-1.35,0-1.57.19-2.19,1.45-1.13,2.3-2.4,4.54-3.61,6.79l-9.16-2.3-0.51-.13a0.92,0.92,0,0,1-.78-1.11c0.06-2.76,0-5.51,0-8.26a0.78,0.78,0,0,0-.33-0.58c-0.88-.48-1.82-0.87-2.7-1.36-1.71-1-3.41-2-5.1-3a0.68,0.68,0,0,0-.86,0C3193.78,290.75,3191.24,292.25,3188.58,293.84Zm68.89-52.27c-4.2-17.75-22.82-28.78-40.46-24.35A33.46,33.46,0,1,0,3257.47,241.57Z" transform="translate(-3041.15 -72.07)"/><path class="cls-4" d="M3214.36,241.09l0.72-.81a14.11,14.11,0,0,1,4-3.15,14.61,14.61,0,0,1,9.23-1.48l0.22,0.06c-0.46.18-.88,0.34-1.3,0.51a11.87,11.87,0,0,0-3.63,2.36,12.37,12.37,0,0,0-3.51,5.75,12.51,12.51,0,0,0-.33,5.36,12.56,12.56,0,0,0,16,10.13l1.17-.38-0.11.15c-0.07.07-.15,0.13-0.22,0.2a14.55,14.55,0,0,1-23.73-16.41l0.47-.93Z" transform="translate(-3041.15 -72.07)"/><path class="cls-5" d="M3223.26,121.22l1,1.32a20.8,20.8,0,0,1,3.57,7,22.28,22.28,0,0,1,.81,8.4,23.28,23.28,0,0,1-1.47,6.34c0,0.1-.09.19-0.16,0.33-0.13-.76-0.24-1.46-0.38-2.15a17.81,17.81,0,0,0-2.49-6.22,18.13,18.13,0,0,0-7.75-6.83,19.05,19.05,0,0,0-8.17-1.79,20.08,20.08,0,0,0-8.87,2.05,21.1,21.1,0,0,0-7.95,6.66,20.74,20.74,0,0,0-3.08,6.08,19.65,19.65,0,0,0-.86,7.75c0.06,0.64.14,1.27,0.21,1.91l-0.2-.2c-0.08-.13-0.15-0.26-0.24-0.39a21.37,21.37,0,0,1-3.68-7.65,22.43,22.43,0,0,1-.6-7.68,23.64,23.64,0,0,1,2.66-8.94,24.62,24.62,0,0,1,5.87-7.31,23.91,23.91,0,0,1,10.51-5.26,22.53,22.53,0,0,1,10.26.08,21.21,21.21,0,0,1,7.87,3.7l1.28,1Z" transform="translate(-3041.15 -72.07)"/><path class="cls-5" d="M3115.38,165.76l1.63-.34a22.32,22.32,0,0,1,15.62,2.44,21.62,21.62,0,0,1,4.92,3.79c0.07,0.07.13,0.15,0.23,0.27-0.73-.19-1.4-0.38-2.07-0.54a18.57,18.57,0,0,0-6.63-.37,19.45,19.45,0,0,0-14.88,10.17,18.83,18.83,0,0,0-2.24,8.4A18.93,18.93,0,0,0,3124.61,208c0.59,0.21,1.19.39,1.78,0.58l-0.27.09c-0.15,0-.3,0-0.45.06a22.33,22.33,0,0,1-8.43.08,22.07,22.07,0,0,1-7-2.57,21.78,21.78,0,0,1-10.44-13.81,21.48,21.48,0,0,1,.16-11.1,22,22,0,0,1,4.76-8.75,22.29,22.29,0,0,1,6.86-5.25l1.43-.71Z" transform="translate(-3041.15 -72.07)"/><path class="cls-5" d="M3329.84,182.68c-0.27.48-.54,1-0.81,1.46a20.85,20.85,0,0,1-5,6.06,22.32,22.32,0,0,1-7.4,4.06,23.41,23.41,0,0,1-6.4,1.16h-0.37c0.65-.42,1.24-0.79,1.83-1.19a17.87,17.87,0,0,0,4.73-4.75,18.17,18.17,0,0,0,3.21-9.82,19.06,19.06,0,0,0-1.59-8.21,20.08,20.08,0,0,0-5.38-7.33,21.13,21.13,0,0,0-9.26-4.67,20.79,20.79,0,0,0-6.81-.42,19.62,19.62,0,0,0-7.46,2.28c-0.56.31-1.11,0.63-1.67,0.95,0-.09.07-0.18,0.11-0.27s0.18-.25.26-0.38a21.27,21.27,0,0,1,5.58-6.41,22.35,22.35,0,0,1,6.82-3.59,23.74,23.74,0,0,1,9.27-1.1,24.7,24.7,0,0,1,9,2.51,23.87,23.87,0,0,1,9,7.57,22.6,22.6,0,0,1,4,9.46,21.3,21.3,0,0,1-.29,8.7l-0.37,1.55Z" transform="translate(-3041.15 -72.07)"/><path class="cls-5" d="M3333.89,319.45l-1.66.21a20.85,20.85,0,0,1-7.87-.46,22.41,22.41,0,0,1-7.66-3.54,23.35,23.35,0,0,1-4.73-4.47c-0.07-.08-0.12-0.17-0.21-0.31,0.72,0.27,1.38.53,2,.76a17.77,17.77,0,0,0,6.63,1,18.14,18.14,0,0,0,9.81-3.24,19.09,19.09,0,0,0,5.67-6.16,20.07,20.07,0,0,0,2.71-8.69,21.07,21.07,0,0,0-1.74-10.22,20.78,20.78,0,0,0-3.7-5.73,19.65,19.65,0,0,0-6.26-4.65l-1.76-.78,0.28-.08c0.15,0,.3,0,0.45,0a21.29,21.29,0,0,1,8.47.69,22.36,22.36,0,0,1,6.93,3.36,23.69,23.69,0,0,1,6.38,6.81,24.77,24.77,0,0,1,3.34,8.76,23.93,23.93,0,0,1-.77,11.72,22.55,22.55,0,0,1-5.25,8.82,21.32,21.32,0,0,1-7.17,4.93l-1.47.62Z" transform="translate(-3041.15 -72.07)"/><line class="cls-6" x1="60.24" y1="105.52" x2="37.31" y2="94.23"/><line class="cls-6" x1="160.04" y1="49.59" x2="157.51" y2="24.16"/><line class="cls-6" x1="281.67" y1="83.42" x2="300.47" y2="66.09"/><line class="cls-6" x1="307.31" y1="233.39" x2="330.53" y2="244.09"/><circle class="cls-7" cx="3359.01" cy="123.65" r="8.49" transform="translate(-2630.61 1665.5) rotate(-30.8)"/><circle class="cls-2" cx="3359.01" cy="123.65" r="3.93" transform="translate(-2630.13 1666.38) rotate(-30.82)"/><circle class="cls-7" cx="3059.13" cy="156.66" r="8.49" transform="translate(-2689.85 1516.55) rotate(-30.8)"/><path class="cls-2" d="M3061.15,160a3.93,3.93,0,1,1,1.36-5.38A3.93,3.93,0,0,1,3061.15,160Z" transform="translate(-3041.15 -72.07)"/><circle class="cls-7" cx="3049.64" cy="283.47" r="8.49" transform="translate(-2756.12 1529.57) rotate(-30.8)"/><circle class="cls-2" cx="3049.64" cy="283.47" r="3.93" transform="translate(-2756.21 1529.39) rotate(-30.8)"/><circle class="cls-7" cx="3082.96" cy="379.07" r="8.49" transform="translate(-2800.31 1560.27) rotate(-30.81)"/><circle class="cls-2" cx="3082.96" cy="379.07" r="3.93" transform="translate(-2800.27 1560.35) rotate(-30.81)"/><circle class="cls-7" cx="3251.9" cy="425.57" r="8.49" transform="translate(-2800.15 1653.67) rotate(-30.81)"/><circle class="cls-2" cx="3251.9" cy="425.57" r="3.93" transform="translate(-2800.25 1653.43) rotate(-30.81)"/><circle class="cls-7" cx="3393.31" cy="322.56" r="8.49" transform="translate(-2727.68 1711.04) rotate(-30.8)"/><circle class="cls-2" cx="3393.31" cy="322.56" r="3.93" transform="translate(-2727.54 1711.32) rotate(-30.81)"/><circle class="cls-7" cx="3194.31" cy="80.56" r="8.49" transform="translate(-2631.83 1575) rotate(-30.8)"/><circle class="cls-2" cx="3194.31" cy="80.56" r="3.93" transform="translate(-2631.68 1575.26) rotate(-30.81)"/><path class="cls-5" d="M3226.43,377.72c-0.33-.44-0.66-0.89-1-1.34a20.86,20.86,0,0,1-3.45-7.09,22.39,22.39,0,0,1-.66-8.42,23.26,23.26,0,0,1,1.58-6.31c0-.1.09-0.19,0.16-0.34,0.12,0.77.21,1.46,0.34,2.16a17.79,17.79,0,0,0,2.38,6.26,18.14,18.14,0,0,0,7.63,7,19,19,0,0,0,8.15,1.93,20.12,20.12,0,0,0,8.9-1.9,21.07,21.07,0,0,0,8.06-6.52,20.83,20.83,0,0,0,3.19-6,19.67,19.67,0,0,0,1-7.73c0-.64-0.12-1.27-0.18-1.91l0.2,0.2a4.1,4.1,0,0,0,.23.39,21.33,21.33,0,0,1,3.54,7.72,22.37,22.37,0,0,1,.46,7.69,23.55,23.55,0,0,1-2.81,8.89,24.58,24.58,0,0,1-6,7.2,23.86,23.86,0,0,1-10.6,5.08,22.52,22.52,0,0,1-10.26-.26,21.21,21.21,0,0,1-7.81-3.83l-1.26-1Z" transform="translate(-3041.15 -72.07)"/><line class="cls-6" x1="205.23" y1="312.62" x2="207.38" y2="334.71"/><path class="cls-5" d="M3121,332.56c0.13-.54.26-1.08,0.38-1.63a20.8,20.8,0,0,1,3.16-7.22,22.28,22.28,0,0,1,6-6,23.12,23.12,0,0,1,5.83-2.89,3,3,0,0,1,.36-0.1c-0.5.58-1,1.11-1.42,1.65a17.8,17.8,0,0,0-3.22,5.88,18.15,18.15,0,0,0-.36,10.33,19,19,0,0,0,3.81,7.45,20.12,20.12,0,0,0,7.21,5.55,21.09,21.09,0,0,0,10.2,1.91,20.76,20.76,0,0,0,6.66-1.49,19.66,19.66,0,0,0,6.53-4.26c0.46-.45.9-0.92,1.34-1.37,0,0.09,0,.19,0,0.29s-0.11.28-.15,0.43a21.32,21.32,0,0,1-3.57,7.7,22.43,22.43,0,0,1-5.56,5.34,23.65,23.65,0,0,1-8.59,3.63,24.64,24.64,0,0,1-9.37.1,23.93,23.93,0,0,1-10.74-4.78,22.56,22.56,0,0,1-6.45-8,21.25,21.25,0,0,1-2.14-8.43c0-.53-0.05-1.07-0.07-1.6C3120.81,334.26,3120.89,333.41,3121,332.56Z" transform="translate(-3041.15 -72.07)"/><line class="cls-6" x1="79.12" y1="279.01" x2="57.89" y2="293.54"/><path class="cls-5" d="M3091.72,264.06l0.78-1a16.07,16.07,0,0,1,4.41-3.77,16.49,16.49,0,0,1,10.32-2.16l0.25,0.05-1.44.64a13.83,13.83,0,0,0-4,2.86,14.38,14.38,0,0,0-3.87,12.76,14,14,0,0,0,18.42,10.62l1.3-.48-0.11.18c-0.08.08-.16,0.15-0.24,0.24a16.5,16.5,0,0,1-4.83,4,16.33,16.33,0,0,1-5.25,1.78,16.11,16.11,0,0,1-12.42-3.12,15.9,15.9,0,0,1-5.05-6.47,16.55,16.55,0,0,1,.22-13.46l0.49-1.07Z" transform="translate(-3041.15 -72.07)"/><line class="cls-6" x1="49.06" y1="203.37" x2="25.29" y2="208"/><path class="cls-8" d="M3228.4,558.65a25.53,25.53,0,1,0,.79-36.1A25.52,25.52,0,0,0,3228.4,558.65Z" transform="translate(-3041.15 -72.07)"/><path class="cls-2" d="M3236.95,550.18a13.08,13.08,0,1,0,.4-18.5A13.08,13.08,0,0,0,3236.95,550.18Z" transform="translate(-3041.15 -72.07)"/><g class="cls-9"><g class="cls-10"><polygon class="cls-11" points="478.03 405.06 494.77 402.71 566.2 415.98 549.46 418.33 478.03 405.06"/><polygon class="cls-12" points="579.87 556.73 596.61 554.38 538.73 599.03 521.99 601.38 579.87 556.73"/><polygon class="cls-13" points="478.03 405.06 549.46 418.33 591.2 481.22 579.87 556.73 521.99 601.38 450.56 588.11 408.13 524.82 419.46 449.31 478.03 405.06"/><polygon class="cls-14" points="549.46 418.33 566.2 415.98 607.94 478.87 591.2 481.22 549.46 418.33"/><polygon class="cls-15" points="591.2 481.22 607.94 478.87 596.61 554.38 579.87 556.73 591.2 481.22"/></g></g><path class="cls-8" d="M3345.92,564.39a17.46,17.46,0,1,0,.54-24.69A17.46,17.46,0,0,0,3345.92,564.39Z" transform="translate(-3041.15 -72.07)"/><circle class="cls-2" cx="3358.53" cy="552.31" r="7.91" transform="translate(-2490.88 2403.38) rotate(-43.74)"/><line class="cls-16" x1="370.28" y1="332.87" x2="384.98" y2="344.68"/><line class="cls-16" x1="335.38" y1="326.19" x2="351.38" y2="326.34"/><polygon class="cls-17" points="333.94 412.28 364.91 408.04 384.07 383.87 380.22 353.93 356.06 334.77 325.73 337.6 306.56 361.76 309.78 393.11 333.94 412.28"/><circle class="cls-2" cx="3385.8" cy="444.5" r="18.85" transform="translate(-2107.5 2749.03) rotate(-51.58)"/><circle class="cls-2" cx="3545.24" cy="576.16" r="44.28" transform="translate(-1332.94 3590.5) rotate(-68.47)"/><path class="cls-18" d="M3572.5,627.37a0.83,0.83,0,0,0-1-.16c-2.18.94-4.37,1.86-6.57,2.73-1.13.45-2.31,0.76-3.44,1.19a0.94,0.94,0,0,0-.48.64c-0.46,3.29-.91,6.59-1.29,9.89a1.11,1.11,0,0,1-1.11,1.21l-0.64.07-11.34,1.28c-1.08-2.89-2.25-5.77-3.23-8.71-0.54-1.61-.77-1.88-2.39-2.09-3.12-.4-6.22-0.91-9.32-1.43a1.25,1.25,0,0,0-1.46.51c-1.77,2.41-3.59,4.79-5.39,7.17-0.32.43-.67,0.85-1,1.31-3.86-1.67-7.65-3.3-11.43-5a1,1,0,0,1-.36-0.83c0.51-3.23,1.06-6.45,1.6-9.67a1.13,1.13,0,0,0-.5-1.37,46.36,46.36,0,0,1-8.39-6.47,0.82,0.82,0,0,0-1.11-.22c-1,.46-2,0.83-2.94,1.25l-6.88,2.9c-0.87-1.22-1.7-2.43-2.58-3.59-1.59-2.11-3.23-4.2-4.81-6.32a1,1,0,0,1,0-.92c0.89-1.24,1.83-2.45,2.79-3.63,1.1-1.35,2.25-2.66,3.38-4a0.85,0.85,0,0,0,.21-1.12,51.63,51.63,0,0,1-4.2-10.24,1,1,0,0,0-1-.78c-1.64-.15-3.28-0.35-4.92-0.54l-5.28-.63c-0.08-1-.11-1.84-0.22-2.68-0.4-3.21-.82-6.41-1.26-9.61a0.76,0.76,0,0,1,.62-1c1.09-.36,2.17-0.79,3.25-1.2,1.88-.71,3.77-1.4,5.63-2.16a1.13,1.13,0,0,0,.62-0.8,46.39,46.39,0,0,1,1.56-10.95,1.07,1.07,0,0,0-.49-1.29c-2.46-1.81-4.88-3.67-7.33-5.49a0.84,0.84,0,0,1-.32-1.21q1.32-2.93,2.54-5.9c0.75-1.8,1.44-3.63,2.14-5.41,0.43,0,.61,0,0.78.07,3.14,0.5,6.27,1,9.41,1.48a1.07,1.07,0,0,0,.9-0.29,45.67,45.67,0,0,1,7-8.8,1.38,1.38,0,0,0,.19-1.19c-0.6-1.6-1.29-3.16-1.95-4.73l-1.94-4.57c0.68-.56,1.25-1.07,1.86-1.52,1.38-1,2.79-2,4.17-3s2.65-2,4-3a0.88,0.88,0,0,1,.82,0c2.63,2.09,5.23,4.21,7.86,6.3a0.81,0.81,0,0,0,.69.13c1.67-.73,3.29-1.6,5-2.25,1.93-.73,3.92-1.29,5.89-1.92,0.46-3.43.93-6.84,1.37-10.26a0.88,0.88,0,0,1,.88-1c2.37-.24,4.73-0.54,7.1-0.84q1.86-.23,3.72-0.53a1.54,1.54,0,0,1,1.92,1.26c1,3,2.21,5.89,3.31,8.84a1,1,0,0,0,.93.79c3.32,0.49,6.63,1,9.93,1.61a1.21,1.21,0,0,0,1.42-.55c2-2.7,4.05-5.35,6-8.05a1,1,0,0,1,1.5-.39c3.1,1.39,6.22,2.71,9.34,4.06,1.64,0.71,1.64.7,1.43,2.43,0,0.39-.09.79-0.16,1.18-0.48,2.83-1,5.66-1.43,8.49a1.15,1.15,0,0,0,.34,1,36.26,36.26,0,0,1,7.77,6.2,0.91,0.91,0,0,0,1.19.19c1.67-.73,3.37-1.43,5.05-2.14l5.61-2.36c2,2.76,4,5.44,6,8.11,0.43,0.59.93,1.12,1.39,1.69a0.83,0.83,0,0,1-.09,1.2c-2,2.45-4,5-6,7.37-0.88,1-1.42,1.81-.41,3.16a14.43,14.43,0,0,1,1.52,3.51c0.48,1.25.87,2.53,1.37,3.77a2.34,2.34,0,0,0,1,1.36c1.75,0.39,3.55.61,5.33,0.84,2.11,0.28,4.23.5,6.4,0.76,0.06,1,.08,1.88.19,2.78,0.4,3.24.83,6.47,1.21,9.71a0.92,0.92,0,0,1-.47.7c-0.52.24-1.11,0.32-1.65,0.53-2.73,1.06-5.43,2.17-8.18,3.2a1.32,1.32,0,0,0-1,1.3c-0.34,3.06-.69,6.13-1.14,9.17a1.7,1.7,0,0,0,.74,1.9c2.59,1.88,5.13,3.84,7.71,5.73a1,1,0,0,1,.39,1.45c-1.2,2.71-2.34,5.45-3.52,8.18-0.43,1-.89,2-1.33,3-3.53-.53-7-1-10.41-1.58a1.55,1.55,0,0,0-1.7.8c-2,2.63-4,5.22-6,7.84a1.12,1.12,0,0,0-.16.91c0.78,2.08,1.6,4.14,2.43,6.19a21.79,21.79,0,0,0,1,2c0.83,1.54.61,2.26-.86,3.22s-2.67,1.83-4,2.8c-1.63,1.22-3.22,2.5-4.82,3.75C3578.07,631.82,3575.27,629.61,3572.5,627.37ZM3529,612.84a40.39,40.39,0,1,0,30.2-74.92c-20.4-8.12-44.44,2.11-52.3,22.67A40.27,40.27,0,0,0,3529,612.84Z" transform="translate(-3041.15 -72.07)"/><path class="cls-18" d="M3558.65,569.47c0.79,2.59.76,2.55-1.46,4.09a3.16,3.16,0,0,0-1,1.6c-0.26.83-.15,1.8-0.47,2.6a2.26,2.26,0,0,0,.74,2.67c1.25,1.33,1.27,1.6.29,3.1l-0.1.15c-0.86,1.38-.88,1.44-2.41,1a5.29,5.29,0,0,0-3.94.38,5,5,0,0,0-3.12,3.76,3.15,3.15,0,0,1-.23.7,0.7,0.7,0,0,1-.33.4,16.56,16.56,0,0,1-3.26.09,2.28,2.28,0,0,1-.91-1.35,4.51,4.51,0,0,0-2.83-2.75,4.63,4.63,0,0,0-4.08,0c-1.5.7-1.58,0.65-2.65-.55-1.78-2-1.56-1.31-.5-3.55a3.65,3.65,0,0,0,.47-2.72c-0.49-2-1.3-3.48-3.25-4.19a1.58,1.58,0,0,1-1.07-2c0-.27.06-0.55,0.1-0.82,0.25-1.52.25-1.63,1.8-1.73a3.74,3.74,0,0,0,3.42-2.05c0.77-1.35,1.75-2.44,1-4.11-0.14-.34,0-0.81-0.08-1.17a1.2,1.2,0,0,1,.73-1.53c2.38-1.43,1.6-1.42,3.64.33,1.12,1,2.12,1.55,3.56.93a1.42,1.42,0,0,1,.81-0.08c1.71,0.36,2.62-.75,3.53-1.87,0.25-.31.46-0.64,0.72-0.95a0.76,0.76,0,0,1,.41-0.32,15.83,15.83,0,0,1,2.64,1,1.92,1.92,0,0,1,.29,1.22,12.89,12.89,0,0,1,0,2,2.25,2.25,0,0,0,.93,2c0.92,0.81,1.53,2.14,2.56,2.61s2.51,0.24,3.83.31C3558.54,569.06,3558.59,569.27,3558.65,569.47ZM3541.29,582a8,8,0,0,0,9.9-4.29,7.81,7.81,0,0,0-4.32-10,7.63,7.63,0,0,0-10,4.29A7.79,7.79,0,0,0,3541.29,582Z" transform="translate(-3041.15 -72.07)"/><circle class="cls-2" cx="3299.31" cy="578.93" r="30.61" transform="translate(-1491.18 3363.49) rotate(-68.47)"/><path class="cls-18" d="M3318.77,614.33a0.57,0.57,0,0,0-.71-0.11c-1.51.65-3,1.28-4.54,1.89-0.78.31-1.6,0.53-2.38,0.82a0.65,0.65,0,0,0-.34.44c-0.32,2.28-.63,4.55-0.89,6.84a0.77,0.77,0,0,1-.77.84l-0.44.05-7.84.89c-0.75-2-1.56-4-2.23-6-0.37-1.11-.53-1.3-1.65-1.44-2.15-.28-4.3-0.63-6.44-1a0.86,0.86,0,0,0-1,.35c-1.22,1.67-2.48,3.31-3.73,5-0.23.3-.46,0.59-0.71,0.9-2.67-1.16-5.29-2.28-7.9-3.44a0.67,0.67,0,0,1-.25-0.58c0.35-2.23.73-4.46,1.11-6.68a0.78,0.78,0,0,0-.35-0.95,32,32,0,0,1-5.8-4.47,0.56,0.56,0,0,0-.77-0.15c-0.66.32-1.35,0.58-2,.86l-4.76,2c-0.6-.84-1.18-1.68-1.78-2.48-1.1-1.46-2.23-2.9-3.33-4.37a0.69,0.69,0,0,1,0-.64q0.92-1.28,1.93-2.51c0.76-.93,1.55-1.84,2.34-2.75a0.59,0.59,0,0,0,.14-0.77,35.75,35.75,0,0,1-2.9-7.08,0.66,0.66,0,0,0-.67-0.54c-1.13-.11-2.27-0.25-3.4-0.38l-3.65-.44c-0.05-.68-0.08-1.27-0.15-1.85-0.28-2.22-.56-4.43-0.87-6.64a0.52,0.52,0,0,1,.43-0.69c0.76-.25,1.5-0.55,2.24-0.83,1.3-.49,2.61-1,3.89-1.49a0.78,0.78,0,0,0,.43-0.56,32.2,32.2,0,0,1,1.08-7.57,0.74,0.74,0,0,0-.34-0.89c-1.7-1.25-3.37-2.53-5.06-3.79a0.58,0.58,0,0,1-.22-0.84q0.91-2,1.76-4.08c0.52-1.25,1-2.51,1.48-3.74l0.54,0c2.17,0.34,4.33.7,6.51,1a0.74,0.74,0,0,0,.62-0.2,31.5,31.5,0,0,1,4.83-6.08,1,1,0,0,0,.13-0.82c-0.41-1.11-.89-2.18-1.35-3.27l-1.34-3.16c0.47-.39.86-0.74,1.28-1,1-.7,1.93-1.36,2.88-2.07s1.84-1.41,2.77-2.09a0.61,0.61,0,0,1,.57,0c1.82,1.44,3.61,2.91,5.43,4.35a0.56,0.56,0,0,0,.48.09c1.16-.51,2.28-1.1,3.45-1.55,1.33-.51,2.71-0.89,4.07-1.33,0.32-2.37.64-4.73,0.94-7.09a0.61,0.61,0,0,1,.61-0.68c1.64-.16,3.27-0.37,4.9-0.58q1.29-.16,2.57-0.37a1.07,1.07,0,0,1,1.33.87c0.72,2.05,1.53,4.07,2.29,6.11a0.69,0.69,0,0,0,.64.55c2.29,0.34,4.58.7,6.86,1.12a0.84,0.84,0,0,0,1-.38c1.38-1.86,2.8-3.7,4.18-5.57a0.71,0.71,0,0,1,1-.27c2.14,1,4.3,1.88,6.46,2.8,1.13,0.49,1.14.49,1,1.68,0,0.27-.06.55-0.11,0.82-0.33,2-.68,3.91-1,5.87a0.8,0.8,0,0,0,.23.67,25,25,0,0,1,5.38,4.29,0.63,0.63,0,0,0,.82.13c1.16-.51,2.33-1,3.49-1.48l3.88-1.63c1.4,1.91,2.75,3.76,4.12,5.61,0.3,0.4.65,0.77,1,1.17a0.57,0.57,0,0,1-.07.83c-1.4,1.69-2.74,3.43-4.17,5.1-0.61.71-1,1.25-.29,2.19a9.92,9.92,0,0,1,1,2.43c0.33,0.86.6,1.75,0.95,2.6a1.63,1.63,0,0,0,.66.94c1.21,0.27,2.45.42,3.68,0.58,1.46,0.19,2.92.35,4.43,0.52,0,0.67.05,1.3,0.13,1.92,0.27,2.24.58,4.47,0.84,6.71a0.64,0.64,0,0,1-.33.48c-0.36.17-.77,0.22-1.14,0.37-1.89.73-3.76,1.5-5.65,2.21a0.91,0.91,0,0,0-.68.9c-0.23,2.12-.48,4.23-0.79,6.34a1.17,1.17,0,0,0,.51,1.32c1.79,1.3,3.55,2.65,5.33,4a0.69,0.69,0,0,1,.27,1c-0.83,1.88-1.62,3.77-2.43,5.65-0.3.69-.62,1.38-0.92,2.05-2.44-.37-4.82-0.7-7.2-1.09a1.07,1.07,0,0,0-1.18.55c-1.37,1.82-2.78,3.6-4.15,5.42a0.77,0.77,0,0,0-.11.63c0.54,1.44,1.1,2.86,1.68,4.28a14.85,14.85,0,0,0,.69,1.41c0.57,1.07.42,1.56-.59,2.23s-1.85,1.26-2.74,1.93c-1.13.84-2.23,1.73-3.34,2.59C3322.62,617.41,3320.68,615.88,3318.77,614.33Zm-30.06-10a27.92,27.92,0,1,0,20.87-51.79c-14.1-5.61-30.72,1.46-36.15,15.67A27.84,27.84,0,0,0,3288.71,604.28Z" transform="translate(-3041.15 -72.07)"/><path class="cls-19" d="M3309.19,574.3c0.55,1.79.53,1.76-1,2.83a2.18,2.18,0,0,0-.72,1.1c-0.18.58-.1,1.25-0.33,1.8a1.56,1.56,0,0,0,.51,1.84c0.87,0.92.88,1.1,0.2,2.15l-0.06.11c-0.6,1-.61,1-1.66.72a3.66,3.66,0,0,0-2.72.26,3.47,3.47,0,0,0-2.16,2.6,2.26,2.26,0,0,1-.16.48,0.49,0.49,0,0,1-.23.28,11.58,11.58,0,0,1-2.25.06,1.58,1.58,0,0,1-.63-0.93,3.12,3.12,0,0,0-2-1.9,3.2,3.2,0,0,0-2.82,0c-1,.49-1.09.45-1.84-0.38-1.23-1.37-1.08-.9-0.35-2.46a2.52,2.52,0,0,0,.33-1.88,3.61,3.61,0,0,0-2.25-2.89,1.09,1.09,0,0,1-.74-1.38c0-.19,0-0.38.07-0.57,0.17-1,.17-1.13,1.25-1.2a2.58,2.58,0,0,0,2.37-1.42c0.53-.93,1.21-1.69.72-2.84-0.1-.24,0-0.56-0.05-0.81a0.83,0.83,0,0,1,.51-1.06c1.64-1,1.11-1,2.51.22a2.14,2.14,0,0,0,2.46.64,1,1,0,0,1,.56-0.06c1.18,0.25,1.81-.52,2.44-1.29,0.17-.21.32-0.44,0.49-0.66a0.53,0.53,0,0,1,.28-0.22,10.82,10.82,0,0,1,1.82.67,1.34,1.34,0,0,1,.2.84,9.12,9.12,0,0,1,0,1.39,1.57,1.57,0,0,0,.64,1.39c0.64,0.56,1.06,1.48,1.77,1.8a7.79,7.79,0,0,0,2.65.22C3309.12,574,3309.15,574.17,3309.19,574.3Zm-12,8.66a5.51,5.51,0,0,0,6.85-3,5.4,5.4,0,0,0-3-6.88,5.27,5.27,0,0,0-6.9,3A5.39,5.39,0,0,0,3297.19,583Z" transform="translate(-3041.15 -72.07)"/><circle class="cls-20" cx="3299.44" cy="575.78" r="65.29" transform="translate(-1488.16 3361.62) rotate(-68.47)"/><path class="cls-19" d="M3387.11,437.6c0.13-.15.23-0.32,0.36-0.48a0.38,0.38,0,0,1,.21-0.16,8,8,0,0,1,1.33.49,1,1,0,0,1,.15.62,6.44,6.44,0,0,1,0,1,1.14,1.14,0,0,0,.47,1,7.07,7.07,0,0,0,1.29,1.32,5.68,5.68,0,0,0,1.93.16c0,0.16.06,0.27,0.1,0.37,0.4,1.31.38,1.29-.74,2.06a1.59,1.59,0,0,0-.53.81c-0.13.42-.08,0.91-0.24,1.31a1.14,1.14,0,0,0,.37,1.35c0.63,0.67.64,0.81,0.14,1.57l0,0.08c-0.44.7-.44,0.73-1.22,0.53a2.67,2.67,0,0,0-2,.19,2.54,2.54,0,0,0-1.58,1.9,1.59,1.59,0,0,1-.12.35,0.35,0.35,0,0,1-.16.2,8.21,8.21,0,0,1-1.65,0,1.15,1.15,0,0,1-.46-0.68,2.28,2.28,0,0,0-1.43-1.39,2.35,2.35,0,0,0-2.06,0c-0.76.36-.79,0.33-1.34-0.28-0.9-1-.79-0.66-0.26-1.79a1.85,1.85,0,0,0,.24-1.37,2.63,2.63,0,0,0-1.64-2.11,0.8,0.8,0,0,1-.54-1c0-.14,0-0.28.05-0.41,0.13-.77.12-0.82,0.91-0.87a1.89,1.89,0,0,0,1.73-1c0.39-.68.88-1.23,0.53-2.08-0.07-.17,0-0.41,0-0.59a0.6,0.6,0,0,1,.37-0.77c1.2-.72.81-0.72,1.84,0.16a1.57,1.57,0,0,0,1.8.47m-0.71,9.68a4,4,0,0,0,5-2.16,4,4,0,0,0-2.18-5,3.85,3.85,0,0,0-5,2.17A3.93,3.93,0,0,0,3384.21,448.27Z" transform="translate(-3041.15 -72.07)"/><circle class="cls-21" cx="3385.7" cy="444.65" r="4.37" transform="translate(-1311.29 3359.03) rotate(-68.48)"/><circle class="cls-2" cx="3433.71" cy="421.43" r="4.37" transform="translate(-1259.57 3388.84) rotate(-68.47)"/><path class="cls-22" d="M3435.12,414.38c0.13-.15.23-0.32,0.36-0.48a0.38,0.38,0,0,1,.21-0.16,7.8,7.8,0,0,1,1.33.49,1,1,0,0,1,.14.62,6.53,6.53,0,0,1,0,1,1.14,1.14,0,0,0,.47,1,7.11,7.11,0,0,0,1.29,1.32,5.67,5.67,0,0,0,1.94.16c0,0.16.07,0.27,0.1,0.37,0.4,1.31.38,1.29-.74,2.07a1.59,1.59,0,0,0-.53.81c-0.13.42-.08,0.91-0.24,1.31a1.14,1.14,0,0,0,.37,1.35c0.63,0.67.64,0.81,0.14,1.57l0,0.08c-0.43.7-.44,0.73-1.22,0.53a2.66,2.66,0,0,0-2,.19,2.54,2.54,0,0,0-1.58,1.9,1.56,1.56,0,0,1-.12.35,0.36,0.36,0,0,1-.16.2,8.35,8.35,0,0,1-1.65,0,1.15,1.15,0,0,1-.46-0.68,2.28,2.28,0,0,0-1.43-1.39,2.34,2.34,0,0,0-2.06,0c-0.76.35-.79,0.33-1.34-0.28-0.9-1-.79-0.66-0.25-1.8a1.84,1.84,0,0,0,.24-1.37,2.63,2.63,0,0,0-1.64-2.11,0.8,0.8,0,0,1-.54-1c0-.14,0-0.28.05-0.41,0.13-.77.12-0.82,0.91-0.88a1.88,1.88,0,0,0,1.73-1c0.39-.68.88-1.23,0.53-2.08a5.91,5.91,0,0,1,0-.59,0.6,0.6,0,0,1,.37-0.77c1.2-.73.81-0.72,1.84,0.16a1.56,1.56,0,0,0,1.8.47m-0.71,9.68a4,4,0,0,0,5-2.16,3.94,3.94,0,0,0-2.18-5,3.85,3.85,0,0,0-5,2.17A3.93,3.93,0,0,0,3432.22,425.05Z" transform="translate(-3041.15 -72.07)"/><circle class="cls-2" cx="3403.32" cy="397.88" r="4.37" transform="translate(-1256.89 3345.66) rotate(-68.47)"/><path class="cls-22" d="M3404.74,390.83c0.12-.16.23-0.33,0.36-0.48a0.38,0.38,0,0,1,.21-0.16,7.9,7.9,0,0,1,1.33.49,1,1,0,0,1,.15.62,6.65,6.65,0,0,1,0,1,1.14,1.14,0,0,0,.47,1,7.11,7.11,0,0,0,1.29,1.32,5.71,5.71,0,0,0,1.93.16c0,0.16.06,0.27,0.1,0.37,0.4,1.3.38,1.29-.74,2.06a1.6,1.6,0,0,0-.53.81c-0.13.42-.08,0.91-0.24,1.31a1.14,1.14,0,0,0,.37,1.35c0.63,0.67.64,0.81,0.14,1.57l0,0.08c-0.44.7-.44,0.73-1.22,0.53a2.67,2.67,0,0,0-2,.19,2.54,2.54,0,0,0-1.58,1.9,1.63,1.63,0,0,1-.11.35,0.36,0.36,0,0,1-.17.2,8.23,8.23,0,0,1-1.65,0,1.15,1.15,0,0,1-.46-0.68,2.28,2.28,0,0,0-1.43-1.39,2.35,2.35,0,0,0-2.06,0c-0.76.36-.79,0.33-1.34-0.28-0.9-1-.79-0.66-0.26-1.79a1.85,1.85,0,0,0,.24-1.37,2.63,2.63,0,0,0-1.64-2.11,0.8,0.8,0,0,1-.54-1c0-.14,0-0.28.05-0.41,0.13-.77.13-0.83,0.91-0.88a1.89,1.89,0,0,0,1.73-1c0.39-.68.88-1.23,0.53-2.07a6,6,0,0,1,0-.59,0.6,0.6,0,0,1,.37-0.77c1.2-.72.81-0.72,1.84,0.17a1.57,1.57,0,0,0,1.8.47m-0.71,9.68a4,4,0,0,0,5-2.16,3.94,3.94,0,0,0-2.18-5,3.85,3.85,0,0,0-5,2.17A3.93,3.93,0,0,0,3401.84,401.49Z" transform="translate(-3041.15 -72.07)"/><circle class="cls-2" cx="3367.21" cy="399.33" r="4.37" transform="translate(-1281.01 3313.04) rotate(-68.47)"/><path class="cls-22" d="M3368.62,392.28c0.13-.15.23-0.32,0.36-0.48a0.39,0.39,0,0,1,.21-0.16,8,8,0,0,1,1.33.49,1,1,0,0,1,.15.62,6.53,6.53,0,0,1,0,1,1.14,1.14,0,0,0,.47,1,7.12,7.12,0,0,0,1.29,1.32,5.69,5.69,0,0,0,1.93.16c0,0.16.06,0.27,0.1,0.37,0.4,1.31.38,1.29-.74,2.06a1.59,1.59,0,0,0-.53.81c-0.13.42-.08,0.91-0.24,1.31a1.14,1.14,0,0,0,.37,1.35c0.63,0.67.64,0.81,0.14,1.57l0,0.08c-0.43.7-.44,0.73-1.22,0.53a2.67,2.67,0,0,0-2,.19,2.54,2.54,0,0,0-1.58,1.9,1.6,1.6,0,0,1-.11.35,0.36,0.36,0,0,1-.16.2,8.43,8.43,0,0,1-1.65,0,1.15,1.15,0,0,1-.46-0.68,2.29,2.29,0,0,0-1.43-1.39,2.35,2.35,0,0,0-2.06,0c-0.76.36-.79,0.33-1.34-0.28-0.9-1-.79-0.66-0.26-1.79a1.84,1.84,0,0,0,.24-1.37,2.63,2.63,0,0,0-1.64-2.11,0.8,0.8,0,0,1-.54-1c0-.14,0-0.28.05-0.41,0.13-.77.12-0.82,0.91-0.88a1.89,1.89,0,0,0,1.73-1c0.39-.68.88-1.23,0.53-2.07-0.07-.17,0-0.41,0-0.59a0.6,0.6,0,0,1,.37-0.77c1.2-.72.81-0.72,1.84,0.16a1.57,1.57,0,0,0,1.8.47m-0.71,9.68a4,4,0,0,0,5-2.17,3.94,3.94,0,0,0-2.18-5,3.85,3.85,0,0,0-5,2.17A3.93,3.93,0,0,0,3365.72,403Z" transform="translate(-3041.15 -72.07)"/><circle class="cls-7" cx="3245.57" cy="540.23" r="5.98" transform="translate(-3082.1 624.23) rotate(-12.17)"/><circle class="cls-2" cx="3245.57" cy="540.23" r="2.77" transform="matrix(0.98, -0.21, 0.21, 0.98, -3082.1, 624.23)"/><g class="cls-23"><rect class="cls-24" x="3373.2" y="580.24" width="63.87" height="29.52" rx="6" ry="6" transform="translate(-3081.44 243.62) rotate(-5.28)"/></g><g class="cls-25"><rect class="cls-2" x="3389.09" y="588.19" width="32.52" height="13.59" rx="6" ry="6" transform="translate(-3081.44 243.65) rotate(-5.28)"/></g><g class="cls-23"><rect class="cls-24" x="3337.28" y="207.45" width="61.15" height="28.26" rx="6" ry="6" transform="translate(-2977.36 838.48) rotate(-15.54)"/></g><g class="cls-25"><rect class="cls-2" x="3352.42" y="214.68" width="31.13" height="13.01" rx="6" ry="6" transform="translate(-2977.24 838.56) rotate(-15.54)"/></g><g class="cls-23"><rect class="cls-24" x="3427.59" y="467.68" width="31.44" height="46.09" rx="6" ry="6" transform="translate(-2098.44 2836.13) rotate(-52.14)"/></g><g class="cls-25"><rect class="cls-2" x="3435.33" y="479.03" width="15.96" height="23.4" rx="6" ry="6" transform="translate(-2098.21 2836.36) rotate(-52.15)"/></g><g class="cls-23"><rect class="cls-24" x="3307.05" y="358.66" width="31.44" height="46.09" rx="6" ry="6" transform="translate(-2394.47 2315.88) rotate(-43.41)"/></g><g class="cls-25"><rect class="cls-2" x="3314.99" y="369.72" width="16.87" height="24.74" rx="6" ry="6" transform="translate(-2394.46 2316.57) rotate(-43.41)"/></g><g class="cls-23"><rect class="cls-24" x="3327.26" y="480.03" width="37.85" height="30.46" rx="6" ry="6" transform="translate(-2163.27 2736.13) rotate(-51.56)"/></g><g class="cls-25"><rect class="cls-2" x="3335.2" y="487.82" width="21.62" height="14.18" rx="6" ry="6" transform="translate(-2163.22 2735.7) rotate(-51.55)"/></g><g class="cls-23"><path class="cls-24" d="M3591.86,429.14a5.84,5.84,0,0,0-6.9,4.75l-5.33,31a6.2,6.2,0,0,0,4.87,7.08l18.14,3.59a5.84,5.84,0,0,0,6.9-4.75l5.33-31a6.2,6.2,0,0,0-4.87-7.08Z" transform="translate(-3041.15 -72.07)"/></g><g class="cls-25"><path class="cls-2" d="M3598,439.67a5.84,5.84,0,0,0-6.9,4.75l-2.17,12.65a6.21,6.21,0,0,0,4.87,7.08l2.16,0.43a5.84,5.84,0,0,0,6.9-4.75l2.17-12.66a6.2,6.2,0,0,0-4.87-7.08Z" transform="translate(-3041.15 -72.07)"/></g></svg>