<svg id="Shapes" xmlns="http://www.w3.org/2000/svg" viewBox="0 0 419.21 305.4"><defs><style>.cls-1{fill:#fff;}</style></defs><title>mobile-header</title><path class="cls-1" d="M31.22,112.57a79,79,0,0,0,1.65,17.25,65.62,65.62,0,0,0,3.86,12.31,49.67,49.67,0,0,0,4.22,7.9c1.35,2,2.39,3.55,3.12,4.78q-20.56,0-32.32-10.47T0,112.2A67.77,67.77,0,0,1,9.36,77.67,93.51,93.51,0,0,1,34.71,49.58,128.26,128.26,0,0,1,72.17,30.66a147.17,147.17,0,0,1,45.73-7q21.67,0,37.65,5.33T182,43.52a59.41,59.41,0,0,1,20.75,45.18,58.38,58.38,0,0,1-7.34,27.73,65.54,65.54,0,0,1-21.3,23.33q28.28,2.93,45.36,22.4t17.08,54.35a165.3,165.3,0,0,1-2.57,27,104.06,104.06,0,0,1-9.37,29,67.19,67.19,0,0,1-18.91,23.33q-12.12,9.54-30.85,9.55a58.08,58.08,0,0,1-15.43-2,43.79,43.79,0,0,1-13-5.88,27.78,27.78,0,0,1-12.31-23.69q0-2.2.37-6.07a36.06,36.06,0,0,1,1.1-6.43,27.31,27.31,0,0,0,12.85,11.2,38.16,38.16,0,0,0,14.33,3.13q9.17,0,15.24-5.15a33.61,33.61,0,0,0,9.36-13.22,72,72,0,0,0,4.59-17.81,146.59,146.59,0,0,0,1.28-19.28q0-34.89-13.35-50.32t-37.09-15.42c-2.92,0-6.34.12-10.73,0.36s-8.56.62-12.56,1.1V299.7h-41v-236l41-5.51V141.7h4.64a39,39,0,0,0,19.15-5.2,53.31,53.31,0,0,0,15.5-13.16A63.54,63.54,0,0,0,169,105.47a54.78,54.78,0,0,0,3.66-19.32q0-21.67-14.69-35.46T114.22,36.91A105.05,105.05,0,0,0,83.38,41.5,77.85,77.85,0,0,0,56.74,55.45,68.62,68.62,0,0,0,38.19,79.15Q31.22,93.47,31.22,112.57Z"/><path class="cls-1" d="M380.27,43.7A169.43,169.43,0,0,1,352,41.14c-10.16-1.71-20.55-3.79-31.55-6.25V275.7h-40V29a46.35,46.35,0,0,0-8-.32h-7.16c-20.56,0-36.3,3.52-47.2,11s-16.35,20.89-16.35,40.48c0,14.69,1.66,25.84,5,33.56s6.72,13.5,10.17,17.42a51.65,51.65,0,0,1-17.13-2.77,34.11,34.11,0,0,1-13.8-9A42.91,42.91,0,0,1,176.81,103q-3.32-10.11-3.31-25.16a73.85,73.85,0,0,1,5.89-29q5.89-14,19-24.79T232.22,6.61Q253,0,283.22,0a252.46,252.46,0,0,1,26.69,1.29q12,1.29,22.44,2.94T353.1,7.16a173,173,0,0,0,21.67,1.29q15.42,0,25.89-2.39A106.16,106.16,0,0,0,418.1.74a75.81,75.81,0,0,1,1.11,12.49Q419.21,43.71,380.27,43.7Z"/></svg>