<svg id="Shapes" xmlns="http://www.w3.org/2000/svg" viewBox="0 0 77.44 77.44"><defs><style>.cls-1{fill:#fff;}.cls-2{fill:#293130;}</style></defs><title>nav-logo</title><circle class="cls-1" cx="38.72" cy="38.72" r="38.72"/><path class="cls-2" d="M15.87 36.37a10.18 10.18 0 0 0 .21 2.21 8.47 8.47 0 0 0 .49 1.57 6.47 6.47 0 0 0 .54 1c.17.25.31.45.4.61a6 6 0 0 1-4.13-1.34 5.23 5.23 0 0 1-1.5-4.11 8.66 8.66 0 0 1 1.2-4.41 11.94 11.94 0 0 1 3.24-3.59 16.36 16.36 0 0 1 4.78-2.41 18.79 18.79 0 0 1 5.85-.9 15.25 15.25 0 0 1 4.81.68 9.7 9.7 0 0 1 3.38 1.85 7.6 7.6 0 0 1 2.65 5.77 7.46 7.46 0 0 1-.94 3.54 8.36 8.36 0 0 1-2.72 3 8.58 8.58 0 0 1 5.8 2.86 10.19 10.19 0 0 1 2.18 6.95 21.17 21.17 0 0 1-.33 3.45 13.34 13.34 0 0 1-1.2 3.71 8.6 8.6 0 0 1-2.42 3A6.19 6.19 0 0 1 34.22 61a7.43 7.43 0 0 1-2-.26 5.62 5.62 0 0 1-1.63-.74A3.55 3.55 0 0 1 29 57v-.78a4.64 4.64 0 0 1 .14-.82 3.49 3.49 0 0 0 1.64 1.43 4.86 4.86 0 0 0 1.83.4 2.91 2.91 0 0 0 1.95-.66 4.29 4.29 0 0 0 1.2-1.69 9.15 9.15 0 0 0 .59-2.28 18.59 18.59 0 0 0 .16-2.46q0-4.46-1.71-6.43a5.93 5.93 0 0 0-4.74-2h-1.51s-.75.08-1.75.14v18.37h-5V30.13l5-.7v10.8h.88a5.06 5.06 0 0 0 2.45-.73 6.94 6.94 0 0 0 2-1.71 8.26 8.26 0 0 0 1.31-2.3 7.1 7.1 0 0 0 .5-2.49 6 6 0 0 0-1.88-4.54 7.9 7.9 0 0 0-5.59-1.76 13.46 13.46 0 0 0-3.94.58 10 10 0 0 0-3.41 1.78 8.76 8.76 0 0 0-2.37 3 9.65 9.65 0 0 0-.88 4.31z"/><path class="cls-2" d="M60.49 27.57a21.47 21.47 0 0 1-3.6-.33 37.05 37.05 0 0 1-4-.8v30.78h-5V25.69a2.14 2.14 0 0 1-1.15-.47h-.95a10.56 10.56 0 0 0-6 1.62c-1.39 1-2.09 2.78-2.09 5.28a11.5 11.5 0 0 0 .64 4.34 8.66 8.66 0 0 0 1.3 2.25 6.58 6.58 0 0 1-2.19-.34 4.33 4.33 0 0 1-1.76-1.14 5.46 5.46 0 0 1-1.18-2.09 10.43 10.43 0 0 1-.42-3.22 9.43 9.43 0 0 1 .75-3.71 8.31 8.31 0 0 1 2.43-3.17 12.76 12.76 0 0 1 4.33-2.23 21.73 21.73 0 0 1 6.48-.81 32.1 32.1 0 0 1 3.41.17q1.53.16 2.87.38t2.64.35a22.31 22.31 0 0 0 2.77.16 15 15 0 0 0 3.31-.31 13.47 13.47 0 0 0 2.23-.68 9.84 9.84 0 0 1 .14 1.6q.02 3.9-4.96 3.9z"/></svg>