<svg id="Shapes" xmlns="http://www.w3.org/2000/svg" viewBox="0 0 77.46 77"><defs><style>.cls-1{fill:#fff;}</style></defs><title>print-icon</title><path class="cls-1" d="M76.36 0H20.55c-.67 0-1.09 1-1.09 1.71V6h-9.18a1.65 1.65 0 0 0-.92.71 1 1 0 0 0-.29.88L9.55 11H1.22a1.53 1.53 0 0 0-1 .73A1.48 1.48 0 0 0 0 12.92l18.62 63.42a1 1 0 0 0 1.17.66h56.57c.67 0 1.1 0 1.1-.65V1.72C77.46 1 77 0 76.36 0zm-56.9 9v56.56L11.68 9h7.78zm-9.58 4L16 58 2.85 13h7zm65.26 62H21.46V3h54v72h-.32zM43.46 12h-20V7h20v5zm30 0h-20V7h20v5zM44.37 9.83a4.09 4.09 0 1 1 4.09 4.09 4.09 4.09 0 0 1-4.09-4.09zM70.46 39h-17V21h17v18zm-25-16h-20v-2h20v2zm-20 6h20v2h-20v-2zm0 8h21v2h-21v-2zm0 8h45v2h-45v-2zm0 8h45v2h-45v-2zm0 8h45v2h-45v-2z"/></svg>