<svg id="Shapes" xmlns="http://www.w3.org/2000/svg" viewBox="0 0 122.92 122.92"><defs><style>.cls-1{fill:gray;fill-rule:evenodd;opacity:0.5;}</style></defs><title>printdesignbackground</title><path class="cls-1" d="M12.22,98.53C11.3,97,10.39,95.39,9.44,93.84,8.68,92.62,7.9,91.4,7.06,90.23s-0.86-1.94.34-3A18.89,18.89,0,0,0,8.9,85.91c1.37-1.43,2.72-2.87,4-4.34a1,1,0,0,0,.17-0.81c-0.79-2.82-1.64-5.64-2.42-8.46a1.38,1.38,0,0,0-1.15-1.22C6.5,70.43,3.48,69.7.38,69c0-1-.1-1.92-0.13-2.89C0.16,63.45.11,60.8,0,58.16a0.9,0.9,0,0,1,.8-1.07c2.76-.73,5.51-1.52,8.28-2.23a1.51,1.51,0,0,0,1.24-1.33c0.62-2.68,1.33-5.33,2.06-8a1.18,1.18,0,0,0-.39-1.4C10,42.39,8.16,40.59,6.25,38.81c-0.38-.35-0.84-0.61-1.2-1a0.81,0.81,0,0,1-.16-0.73c1.38-2.56,2.8-5.1,4.19-7.65,0.38-.71.69-1.46,1.06-2.24,1.89,0.5,3.72,1,5.56,1.47,1.56,0.39,3.12.8,4.7,1a2.1,2.1,0,0,0,1.24-.82c0.82-.86,1.57-1.8,2.37-2.68a12.8,12.8,0,0,1,2.41-2.41c1.28-.79,1.09-1.62.69-2.76-0.92-2.67-1.71-5.39-2.59-8.08a0.74,0.74,0,0,1,.31-1c0.57-.32,1.16-0.6,1.71-0.94,2.52-1.57,5-3.15,7.6-4.77L38,10c1.17,1.14,2.34,2.27,3.5,3.42a0.82,0.82,0,0,0,1.05.23,32.45,32.45,0,0,1,8.49-2.6,1,1,0,0,0,.6-0.69c0.56-2.5,1.07-5,1.6-7.51,0.07-.35.17-0.69,0.26-1,0.39-1.5.39-1.5,2-1.55,3-.09,6.06-0.17,9.09-0.31a0.91,0.91,0,0,1,1.12.81c0.77,2.89,1.6,5.76,2.38,8.65a1.08,1.08,0,0,0,1,.92C72,11,75,11.62,77.86,12.3a0.9,0.9,0,0,0,1-.35c1.88-2.09,3.81-4.13,5.65-6.25a1.38,1.38,0,0,1,2-.41Q88,6.14,89.46,6.94c1.86,1,3.73,2,5.62,3a0.78,0.78,0,0,1,.41,1.11c-0.76,3-1.49,6-2.23,9,1.42,1.17,2.9,2.28,4.26,3.52,1.2,1.09,2.26,2.34,3.41,3.5a0.73,0.73,0,0,0,.62.12c2.86-.88,5.72-1.79,8.59-2.65a0.79,0.79,0,0,1,.69.25c0.81,1.26,1.55,2.56,2.34,3.82s1.67,2.55,2.48,3.84c0.36,0.57.66,1.17,1,1.87l-3.11,3.16c-1.07,1.09-2.15,2.15-3.17,3.29a1.23,1.23,0,0,0-.23,1,40.6,40.6,0,0,1,2.92,9.58,1,1,0,0,0,.65.53c2.76,0.64,5.53,1.24,8.3,1.85,0.15,0,.31.09,0.67,0.2,0,1.71,0,3.45,0,5.19,0,1.91.09,3.82,0.18,5.72a0.75,0.75,0,0,1-.66.9c-2.63.71-5.25,1.45-7.88,2.15a1,1,0,0,0-.83.91,41.28,41.28,0,0,1-2.29,9.59,1,1,0,0,0,.25.87c1.3,1.24,2.64,2.43,4,3.63,0.76,0.69,1.51,1.4,2.3,2.06a0.67,0.67,0,0,1,.19,1c-1.42,2.51-2.81,5-4.2,7.55-0.36.67-.67,1.36-1.06,2.15l-4.59-1.2c-1.42-.38-2.85-0.75-4.26-1.16a0.85,0.85,0,0,0-1.06.33A46.18,46.18,0,0,1,96,100.77a0.76,0.76,0,0,0-.19,1c0.51,1.47,1,2.93,1.5,4.4q0.62,1.94,1.13,3.92a0.88,0.88,0,0,1-.29.77c-2,1.25-4,2.44-6.06,3.67-1.11.68-2.19,1.41-3.32,2.13L84,112c-0.68-.66-1.39-1.3-2-2a0.73,0.73,0,0,0-1-.18,41.26,41.26,0,0,1-9.09,2.62,1,1,0,0,0-.87,1c-0.6,2.85-1.2,5.7-1.84,8.54a0.87,0.87,0,0,1-.57.57c-3.68.15-7.36,0.27-11.12,0.39-0.15-.5-0.3-1-0.43-1.42-0.71-2.57-1.44-5.13-2.12-7.71a1.12,1.12,0,0,0-1-.9c-2.74-.58-5.49-1.18-8.21-1.86-1.41-.36-1.69-0.21-2.67.95-1.78,2.11-3.69,4.12-5.53,6.16l-9-4.77L28,113.1a1,1,0,0,1-.53-1.37c0.77-2.86,1.47-5.74,2.17-8.62a0.84,0.84,0,0,0-.19-0.69c-0.8-.73-1.68-1.37-2.47-2.11q-2.32-2.17-4.56-4.41a0.74,0.74,0,0,0-.91-0.2C18.46,96.65,15.41,97.56,12.22,98.53Zm85.6-36.75c0.21-19.62-16.4-36-36-35.9A36,36,0,1,0,97.81,61.78Z"/></svg>