<svg id="Shapes" xmlns="http://www.w3.org/2000/svg" viewBox="0 0 222 222"><defs><style>.cls-1{fill:gray;fill-rule:evenodd;opacity:0.5;}</style></defs><title>printdesignbackground</title><path class="cls-1" d="M22.07,178c-1.67-2.82-3.3-5.67-5-8.46-1.37-2.21-2.78-4.41-4.29-6.53-1.64-2.32-1.54-3.51.61-5.33a34.12,34.12,0,0,0,2.7-2.47c2.47-2.58,4.91-5.19,7.31-7.83a1.82,1.82,0,0,0,.31-1.46c-1.43-5.1-3-10.18-4.37-15.29a2.49,2.49,0,0,0-2.08-2.2c-5.49-1.17-10.94-2.48-16.55-3.78-0.08-1.72-.18-3.47-0.24-5.23C0.29,114.59.21,109.81,0,105a1.62,1.62,0,0,1,1.44-1.94c5-1.32,10-2.74,15-4a2.73,2.73,0,0,0,2.24-2.41C19.76,91.83,21,87,22.35,82.25a2.13,2.13,0,0,0-.71-2.53c-3.5-3.15-6.9-6.42-10.36-9.62-0.68-.63-1.52-1.1-2.16-1.76A1.47,1.47,0,0,1,8.82,67c2.49-4.63,5.06-9.21,7.57-13.82,0.7-1.28,1.25-2.64,1.92-4C21.72,50,25,51,28.36,51.8c2.81,0.71,5.63,1.45,8.49,1.89,0.66,0.1,1.62-.83,2.24-1.48,1.49-1.55,2.83-3.25,4.29-4.84S46,44.07,47.73,43c2.31-1.43,2-2.92,1.25-5-1.66-4.82-3.09-9.74-4.68-14.59a1.33,1.33,0,0,1,.57-1.85C45.89,21,47,20.5,48,19.88c4.54-2.83,9.07-5.69,13.73-8.62l7,6.85c2.11,2.06,4.23,4.1,6.31,6.18a1.48,1.48,0,0,0,1.9.42c4.94-2.08,9.94-4,15.33-4.69a1.85,1.85,0,0,0,1.08-1.25c1-4.51,1.93-9,2.88-13.56,0.13-.63.3-1.24,0.46-1.86,0.7-2.71.7-2.7,3.58-2.79C105.73,0.39,111.2.25,116.66,0a1.65,1.65,0,0,1,2,1.46c1.38,5.22,2.89,10.41,4.29,15.63a2,2,0,0,0,1.8,1.67c5.3,1,10.58,2.22,15.84,3.45a1.63,1.63,0,0,0,1.86-.64c3.39-3.77,6.87-7.46,10.2-11.28,1.14-1.31,2.16-1.62,3.63-.74q2.6,1.54,5.26,3c3.37,1.84,6.73,3.69,10.14,5.45,1,0.51,1,1.08.75,2-1.37,5.38-2.69,10.77-4,16.17,2.57,2.11,5.24,4.11,7.69,6.35,2.17,2,4.09,4.23,6.16,6.31a1.31,1.31,0,0,0,1.11.21c5.17-1.58,10.33-3.23,15.51-4.79a1.43,1.43,0,0,1,1.25.46c1.45,2.27,2.79,4.62,4.23,6.9s3,4.61,4.49,6.94c0.65,1,1.19,2.12,1.89,3.37-1.85,1.89-3.74,3.79-5.61,5.7s-3.88,3.89-5.72,5.93a2.23,2.23,0,0,0-.42,1.89c2.21,5.63,4.49,11.23,5.28,17.3a1.73,1.73,0,0,0,1.18,1c5,1.15,10,2.24,15,3.35,0.28,0.06.55,0.16,1.21,0.36,0,3.08,0,6.23,0,9.37,0.06,3.45.16,6.89,0.33,10.34a1.35,1.35,0,0,1-1.19,1.63c-4.75,1.28-9.48,2.62-14.23,3.88a1.73,1.73,0,0,0-1.49,1.64c-0.89,5.88-1.86,11.75-4.13,17.32a1.81,1.81,0,0,0,.46,1.57c2.34,2.23,4.77,4.39,7.17,6.56,1.38,1.25,2.73,2.53,4.15,3.72a1.22,1.22,0,0,1,.34,1.85c-2.56,4.53-5.08,9.08-7.58,13.64-0.66,1.2-1.21,2.46-1.91,3.88-2.71-.71-5.5-1.43-8.29-2.17-2.57-.68-5.14-1.35-7.69-2.09a1.54,1.54,0,0,0-1.91.59A83.41,83.41,0,0,1,173.33,182a1.37,1.37,0,0,0-.35,1.8c0.91,2.65,1.86,5.29,2.71,8q1.12,3.51,2,7.08a1.59,1.59,0,0,1-.53,1.38c-3.62,2.25-7.31,4.4-11,6.63-2,1.22-4,2.54-6,3.86l-8.6-8.4c-1.23-1.2-2.51-2.34-3.67-3.6a1.31,1.31,0,0,0-1.79-.33c-5.22,2.44-10.83,3.54-16.41,4.72a1.83,1.83,0,0,0-1.57,1.76c-1.09,5.14-2.17,10.29-3.32,15.42a1.57,1.57,0,0,1-1,1c-6.65.28-13.3,0.48-20.08,0.7-0.27-.9-0.54-1.73-0.77-2.56-1.29-4.64-2.61-9.27-3.84-13.93a2,2,0,0,0-1.88-1.63c-5-1-9.91-2.12-14.82-3.36-2.55-.64-3.06-0.38-4.82,1.71-3.21,3.82-6.66,7.44-10,11.13l-16.24-8.62c-0.3-.16-0.6-0.34-0.91-0.49-1.08-.54-1.28-1.25-1-2.47,1.39-5.17,2.66-10.37,3.93-15.57a1.51,1.51,0,0,0-.35-1.24c-1.45-1.31-3-2.48-4.46-3.82q-4.19-3.91-8.24-8a1.34,1.34,0,0,0-1.64-.36C33.33,174.55,27.83,176.2,22.07,178Zm154.59-66.37c0.38-35.44-29.62-65-65-64.84-36.18.11-65.57,29.58-65.15,65.65a64.89,64.89,0,0,0,66.11,64.36C147.86,176.36,177,147.37,176.66,111.58Z"/></svg>