<svg id="Shapes" xmlns="http://www.w3.org/2000/svg" viewBox="0 0 77.46 77"><defs><style>.cls-1{fill:#fff;}</style></defs><title>print-icon</title><path class="cls-1" d="M76.36,0H20.55c-0.67,0-1.09,1-1.09,1.71V6H10.28a1.65,1.65,0,0,0-.92.71,1,1,0,0,0-.29.88L9.55,11H1.22a1.53,1.53,0,0,0-1,.73A1.48,1.48,0,0,0,0,12.92L18.62,76.34a1,1,0,0,0,1.17.66H76.36c0.67,0,1.1,0,1.1-.65V1.72C77.46,1,77,0,76.36,0ZM19.46,9V65.56L11.68,9h7.78ZM9.88,13L16,58,2.85,13h7ZM75.14,75H21.46V3h54V75H75.14ZM43.46,12h-20V7h20v5h0Zm30,0h-20V7h20v5h0ZM44.37,9.83a4.09,4.09,0,1,1,4.09,4.09A4.09,4.09,0,0,1,44.37,9.83ZM70.46,39h-17V21h17V39h0Zm-25-16h-20V21h20v2Zm-20,6h20v2h-20V29Zm0,8h21v2h-21V37Zm0,8h45v2h-45V45Zm0,8h45v2h-45V53Zm0,8h45v2h-45V61Z"/></svg>