<svg id="Shapes" xmlns="http://www.w3.org/2000/svg" viewBox="0 0 122.92 122.92"><defs><style>.cls-1{fill:gray;fill-rule:evenodd;opacity:0.5;}</style></defs><title>printdesignbackground</title><path class="cls-1" d="M12.22 98.53c-.92-1.53-1.83-3.14-2.78-4.69-.76-1.22-1.54-2.44-2.38-3.61s-.86-1.94.34-3a18.89 18.89 0 0 0 1.5-1.32c1.37-1.43 2.72-2.87 4-4.34a1 1 0 0 0 .17-.81c-.79-2.82-1.64-5.64-2.42-8.46a1.38 1.38 0 0 0-1.15-1.22C6.5 70.43 3.48 69.7.38 69c0-1-.1-1.92-.13-2.89C.16 63.45.11 60.8 0 58.16a.9.9 0 0 1 .8-1.07c2.76-.73 5.51-1.52 8.28-2.23a1.51 1.51 0 0 0 1.24-1.33c.62-2.68 1.33-5.33 2.06-8a1.18 1.18 0 0 0-.39-1.4c-1.99-1.74-3.83-3.54-5.74-5.32-.38-.35-.84-.61-1.2-1a.81.81 0 0 1-.16-.73c1.38-2.56 2.8-5.1 4.19-7.65.38-.71.69-1.46 1.06-2.24 1.89.5 3.72 1 5.56 1.47 1.56.39 3.12.8 4.7 1a2.1 2.1 0 0 0 1.24-.82c.82-.86 1.57-1.8 2.37-2.68a12.8 12.8 0 0 1 2.41-2.41c1.28-.79 1.09-1.62.69-2.76-.92-2.67-1.71-5.39-2.59-8.08a.74.74 0 0 1 .31-1c.57-.32 1.16-.6 1.71-.94 2.52-1.57 5-3.15 7.6-4.77L38 10c1.17 1.14 2.34 2.27 3.5 3.42a.82.82 0 0 0 1.05.23 32.45 32.45 0 0 1 8.49-2.6 1 1 0 0 0 .6-.69c.56-2.5 1.07-5 1.6-7.51.07-.35.17-.69.26-1 .39-1.5.39-1.5 2-1.55 3-.09 6.06-.17 9.09-.31a.91.91 0 0 1 1.12.81c.77 2.89 1.6 5.76 2.38 8.65a1.08 1.08 0 0 0 1 .92C72 11 75 11.62 77.86 12.3a.9.9 0 0 0 1-.35c1.88-2.09 3.81-4.13 5.65-6.25a1.38 1.38 0 0 1 2-.41q1.49.85 2.95 1.65c1.86 1 3.73 2 5.62 3a.78.78 0 0 1 .41 1.11c-.76 3-1.49 6-2.23 9 1.42 1.17 2.9 2.28 4.26 3.52 1.2 1.09 2.26 2.34 3.41 3.5a.73.73 0 0 0 .62.12c2.86-.88 5.72-1.79 8.59-2.65a.79.79 0 0 1 .69.25c.81 1.26 1.55 2.56 2.34 3.82s1.67 2.55 2.48 3.84c.36.57.66 1.17 1 1.87l-3.11 3.16c-1.07 1.09-2.15 2.15-3.17 3.29a1.23 1.23 0 0 0-.23 1 40.6 40.6 0 0 1 2.92 9.58 1 1 0 0 0 .65.53c2.76.64 5.53 1.24 8.3 1.85.15 0 .31.09.67.2v5.19c0 1.91.09 3.82.18 5.72a.75.75 0 0 1-.66.9c-2.63.71-5.25 1.45-7.88 2.15a1 1 0 0 0-.83.91 41.28 41.28 0 0 1-2.29 9.59 1 1 0 0 0 .25.87c1.3 1.24 2.64 2.43 4 3.63.76.69 1.51 1.4 2.3 2.06a.67.67 0 0 1 .19 1c-1.42 2.51-2.81 5-4.2 7.55-.36.67-.67 1.36-1.06 2.15l-4.59-1.2c-1.42-.38-2.85-.75-4.26-1.16a.85.85 0 0 0-1.06.33 46.18 46.18 0 0 1-6.77 7.15.76.76 0 0 0-.19 1c.51 1.47 1 2.93 1.5 4.4q.62 1.94 1.13 3.92a.88.88 0 0 1-.29.77c-2 1.25-4 2.44-6.06 3.67-1.11.68-2.19 1.41-3.32 2.13L84 112c-.68-.66-1.39-1.3-2-2a.73.73 0 0 0-1-.18 41.26 41.26 0 0 1-9.09 2.62 1 1 0 0 0-.87 1c-.6 2.85-1.2 5.7-1.84 8.54a.87.87 0 0 1-.57.57c-3.68.15-7.36.27-11.12.39-.15-.5-.3-1-.43-1.42-.71-2.57-1.44-5.13-2.12-7.71a1.12 1.12 0 0 0-1-.9c-2.74-.58-5.49-1.18-8.21-1.86-1.41-.36-1.69-.21-2.67.95-1.78 2.11-3.69 4.12-5.53 6.16l-9-4.77-.55-.29a1 1 0 0 1-.53-1.37c.77-2.86 1.47-5.74 2.17-8.62a.84.84 0 0 0-.19-.69c-.8-.73-1.68-1.37-2.47-2.11q-2.32-2.17-4.56-4.41a.74.74 0 0 0-.91-.2c-3.05.95-6.1 1.86-9.29 2.83zm85.6-36.75c.21-19.62-16.4-36-36-35.9a36 36 0 1 0 35.99 35.9z"/></svg>