<svg id="Background" xmlns="http://www.w3.org/2000/svg" xmlns:xlink="http://www.w3.org/1999/xlink" viewBox="0 0 1399 890"><defs><style>.cls-1{fill:none;}.cls-2{fill:#1f2524;}.cls-3{opacity:0.5;}.cls-4{clip-path:url(#clip-path);}.cls-5{opacity:0.04;}.cls-6{fill:#fff;fill-rule:evenodd;}</style><clipPath id="clip-path"><rect class="cls-1" x="-25" y="2" width="1425" height="915"/></clipPath></defs><title>texture</title><rect class="cls-2" width="1399" height="890"/><g class="cls-3"><g class="cls-4"><g class="cls-5"><path class="cls-6" d="M871.21-1a16.27,16.27,0,0,1-19.84,16.32c-4.16-.89-6.23.43-8.78,3q-88.16,88.12-176.42,176.12L335,525Q294.82,565,254.67,605.09c-2.42,2.42-5,4.68-7.9,7.39l-1-3.83,1.2,0.72c-1.63,2.75-2.77,6-5,8.18C215.74,644,189.24,670.3,163,696.81a12.52,12.52,0,0,0-3.36,8q-0.23,335.55-.21,671.09c0,3.27.79,4.64,3.8,6.43,5.17,3.07,8.23,7.7,7.5,13.7H137.5c-0.65-6,3-10.73,8.24-14.45,1.49-1,2.32-3,3-4.85,0.45-1.22.08-2.6,0.08-4q0-335.5-.09-670.93A13.69,13.69,0,0,1,153.2,691c25-24.64,49.71-49.46,74.53-74.23L636.25,209.06q97.09-96.91,194.17-193.67C835,10.84,841.24,6,838-1h33.21Z"/><path class="cls-6" d="M215.34,1396c-0.72-6,2.28-10.74,7.51-13.67,3.39-1.9,3.87-3.83,3.86-7.17-0.08-37.8-.06-75.47-0.05-113.27q0-159.25,0-318.42,0-121.17-.12-242.32a12.08,12.08,0,0,1,3.82-9.49q76.27-75.85,152.32-151.91c2.78-2.77,5.43-5.67,8.77-9.17l0.63,3.31c-1.1-5.5,4.87-8.2,8.61-12q36.69-37,73.74-73.61c1.61-1.59,4-2.36,5.32-3.09,0-.58-0.3-1.84.19-2.4,2-2.27,4.21-4.32,6.34-6.45Q649.42,273.62,812.54,110.88a28.78,28.78,0,0,1,4.23-2.83,29,29,0,0,1,3.46-4.85c29.3-29.35,58.68-58.47,88-87.79,4.55-4.55,10.86-9.4,7.6-16.4H949a16.51,16.51,0,0,1-20.36,16.28c-3.44-.76-5.29,0-7.53,2.28q-43.9,44-87.94,87.82l-329.63,329-92.7,92.5Q326.37,611.22,241.8,695.52a13.85,13.85,0,0,0-4.59,10.75q0.18,334,0,668c0,4.1.66,6.29,4.63,8.62,4.79,2.81,7.45,7.05,6.68,13.05H215.34Z"/><path class="cls-6" d="M187.31,1396c0.11-2,.3-3.6.3-5.66,0-37.11,0-73.95,0-111.06,0-2.31-1.16-5.4,2.12-5.24-0.28-.34-1.62-1.19-1.52-1.91,0.13-.92,1.41-1.65,1.89-2.15-0.28-.21-1.69-0.76-1.87-1.58s0.95-1.84,1.15-2.18c-0.54-1.41-1.69-3-1.71-4.62-0.15-12.43-.08-24.85-0.08-37.28q0-55.4.07-110.8c0-1.81,1.06-3.61,1.7-5.63a1.8,1.8,0,0,1-1.13-1.22,1.86,1.86,0,0,1,.93-1.47c-0.22-.54-1.06-1.69-1-2.75,0.07-.89,1.23-1.7,1.69-2.27a7.12,7.12,0,0,1-2.12-1.55c-0.43-.54-0.16-1.66-0.16-2.52q0-74.56.06-149.11c0-1.52,1-3,1.5-4.56l1.36,0.41,0.23-.17-2.66-1.5,2-2.63c-0.24-.2-1.63-0.78-1.83-1.64s1-1.81,1.14-2.05c-0.55-1.47-1.69-3.11-1.71-4.76-0.14-16.22-.08-32.44-0.08-48.67q0-49.7.08-99.41c0-1.82,1.1-3.63,1.39-3.33-0.33-1.17-1-2.4-.87-3.5s1.27-1.78,1-1.46c-0.22-.54-1.09-1.69-1-2.78,0.06-.87,1.28-1.66,1.44-1.85-0.51-.87-1.93-2.16-1.93-3.46-0.14-22.61-.17-45.22,0-67.82,0-1.85,1.79-4,3.27-5.46q50-50.06,100.09-100,30.62-30.56,61.27-61.1a20.56,20.56,0,0,1,2-1.47l0.61,3.44,0.06,0.08a1.12,1.12,0,0,1-.06-0.5c1-2.4,1.42-5.4,3.13-7.11q160.32-160.32,321-320.33c5.3-5.27,10.16-10.95,15.7-16,6.24-5.7,12-11.9,18-17.88l17.61-17.57,18-17.94q9-9,18-17.94c3.23-3.2,6.52-6.34,10.17-9.86L777,110c1.09-1.74,2.28-4.71,4.35-6.79C814.8,69.66,848.33,36.39,881.82,3a48.07,48.07,0,0,1,3.92-4h14.53c-1.16,1-2.21,2.86-3.51,4.16q-51.14,51.11-102.33,102.1Q581.83,317.46,369.22,529.63c-1.92,1.92-3.95,3.72-6.44,6.08l-0.64-5c0.94,3.81-1,7.08-4.35,10.42Q280.24,618.24,202.85,695.5a13.8,13.8,0,0,0-4.38,10.84q0.21,199.86.18,399.72c0,95.1-.06,189.67-0.09,284.77,0,1.9.11,4.16,0.17,5.16H187.31Z"/><path class="cls-6" d="M1399,1180.56c-6,.74-10.8-2.08-13.71-7.07-2.13-3.65-4.53-4.2-8.22-4.2q-266.16.1-532.26,0.06-59.15,0-118.27-.06c-3.19,0-5.24.58-7,3.68-3.65,6.38-10.49,9-17.83,7.63a16.89,16.89,0,0,1-13.15-13.11c-1.35-7.32,1.28-14.19,7.67-17.8,3.09-1.75,3.74-3.75,3.74-7q-0.15-51.53-.06-103.05c0-15.68,0-31.37,0-47,0-2.78-.47-4.55-3.28-6.13a16.57,16.57,0,0,1-7.76-19.59,17.09,17.09,0,0,1,32.71.14,16.67,16.67,0,0,1-7.91,19.54c-2.53,1.45-3.19,3-3.19,5.67q0.1,75.6,0,151.21c0,3,.72,4.75,3.52,6.06,1.79,0.84,3.85,2.34,4.55,4,2.06,5.09,5.94,5.11,10.46,5.11q323.75-.1,647.5,0c4,0,7.53.15,9.16-4.53a6,6,0,0,1,3.12-3.32c5.72-2,5.44-6.45,5.44-11.25,0-65.58.17-131.15,0.16-196.73q0-111.57-.15-223.15c0-3.61-.71-5.8-4.16-7.77-6.66-3.8-9.45-12.21-7-19.49a16.27,16.27,0,0,1,16-11.13v499.26Z"/><path class="cls-6" d="M1399,481.4V499h-34v43h34v18.12c-15-.11-31.22-0.36-46.93-0.22-4.24,0-5.49-1.07-5.45-5.44,0.21-22.42.15-44.85,0.16-67.28,0-1.52.17-3,.28-5.26,4.49,0,8.56,0,12.82,0C1373,481.76,1387,481.57,1399,481.4Z"/><path class="cls-6" d="M1399,85.72c-7-.42-12.83-2.77-15.77-10.14-0.44-1.1-2.93-1.87-4.53-1.88-17.12-.13-34.19-0.08-51.31-0.08q-52.66,0-105.29,0c-3.14,0-5.2.3-6.7,3.84-2.65,6.25-9.45,9.05-16,7.53a14.1,14.1,0,0,1-11.1-13.81A14.35,14.35,0,0,1,1199.18,57c6.38-1.61,13,1.73,16.26,7.67a24.21,24.21,0,0,1,1.85,4.29h5.21c51.71,0,103.41-.42,155.12-0.35,3.33,0,5.31-.5,7-4.2,2.68-6,8.42-8.21,14.42-7.73v5.18c-7,.57-11.67,4.28-11.09,9.86C1388.46,77.1,1393,80,1399,79.5v6.21ZM1211.59,71.24a8.88,8.88,0,1,0-17.76-.51A8.88,8.88,0,0,0,1211.59,71.24Z"/><path class="cls-6" d="M1399,572.55c-19-.11-39.13-0.34-58.8-0.22-4.54,0-6.78-.9-6.74-5.89,0.25-30.33-.46-60.66-0.46-91V470h66v5h-59v92h59v5.55Z"/><path class="cls-6" d="M1207-1V14h7.28c59.65,0,119.08.55,178.73,0.56,2.07,0,4,.66,6,0.72V20H1201V-1h6Z"/><path class="cls-6" d="M1399,176h-21V132h21v12.76c-2,1.87-6.31,3.17-7.9,5.73-3.24,5.21.9,10.34,7.9,12.91V176Z"/><path class="cls-6" d="M1399,40.14c-29-.06-58.83-0.13-88.36-0.18-14.16,0-28.21-.1-42.37.05-4,0-4.75-1.53-3.66-5.38,4.34,0,8.66-.36,12.87.08,7.38,0.78,14.7-.29,22-0.29,31.26,0,62.3,0,93.56,0,2,0,3.92-.32,5.92-0.5v6.21Z"/><path class="cls-6" d="M135.43-1c-5.05,4-10,10.22-15.17,15.27q-12.19,12-24.61,23.59a8,8,0,0,1-5,2c-30.08.11-60,.05-90.11,0A2.89,2.89,0,0,1-1,39.5V34H28.74c1.71,0,3.43.24,5.14,0.27,4.55,0.07,9.65-1.32,12.31,4.3a0.22,0.22,0,0,0-.13-0.1,1.36,1.36,0,0,1-.5,0c-0.61-.81-1.18-1.63-1.77-2.45,0.64-.43,1.3-1.26,1.91-1.22,6.2,0.38,12.41,1.37,18.56,1,1.48-.08,2.77-0.18,4.36-0.13C75.76,35.91,83,35,90.12,34.47a4,4,0,0,0,2.34-1C104.39,22,116.27,10,128.16-1h7.27Z"/><path class="cls-6" d="M367.89-1c-3.11,2-4.38,5.67-3.25,10.44,1.57,6.61-2.89,12.78-9.07,15A14.61,14.61,0,0,1,339,19.23a14.3,14.3,0,0,1,.75-17.59c0.75-.92,1.5-1.64,2.24-2.64h25.94Z"/><path class="cls-6" d="M251.66-1c-3.93,2-5,5.53-3.62,10.5,1.67,5.86-2.84,12.3-8.72,14.66a14.57,14.57,0,0,1-16.75-4.44,14,14,0,0,1-.36-17.1A22.61,22.61,0,0,1,225.71-1h25.94Z"/><path class="cls-6" d="M79-1V19H-1V14H73V-1h6Z"/><path class="cls-6" d="M192.5-1c-3.25,2-3.93,6.3-2.9,11,1.34,6-2.94,11.94-8.66,14.24a14.61,14.61,0,0,1-16.77-4.5,14.36,14.36,0,0,1-.61-16.75,28.61,28.61,0,0,1,3-3.94H192.5Zm-8.15,12a9,9,0,0,0-8.67-9.1,9.15,9.15,0,0,0-9.1,8.74,8.85,8.85,0,0,0,8.74,9A8.69,8.69,0,0,0,184.35,11Z"/><path class="cls-6" d="M309.77-1c-3.13,2-4.91,5.28-3.45,10.24,1.82,6.22-2.79,12.75-8.89,15a14.59,14.59,0,0,1-16.68-4.82,14.09,14.09,0,0,1,.32-17.55C281.94,0.86,282.91,0,283.83-1h25.94Zm-8.52,11.83a9.23,9.23,0,0,0-8.94-9,9.06,9.06,0,0,0-9,8.87,8.81,8.81,0,0,0,8.86,8.84A9,9,0,0,0,301.25,10.83Z"/><path class="cls-6" d="M1399.44,0.78c-18.32.06-36.64,0.16-55,.17q-52.9,0-105.8-.09c-1.76,0-3.52-1.41-5.28-2.16q81.2,0,162.41.08C1397.07-1.21,1399.93-2.88,1399.44.78Z"/><path class="cls-6" d="M1399,261.8c-8-1-14.14-6.24-14.42-13.89C1384.3,240,1390,234.62,1399,232.8V239a0.92,0.92,0,0,0-.74-0.27c-4.78.5-7.38,3.45-8,7.93-0.67,4.7,2.76,8,8.76,10v5.18Z"/><path class="cls-6" d="M1399,339.49c-8-1-14.14-6.24-14.42-13.89-0.28-7.87,5.42-13.29,14.42-15.11v6.21a0.92,0.92,0,0,0-.74-0.27c-4.78.5-7.38,3.45-8,7.93-0.67,4.69,2.76,8,8.76,10v5.18Z"/><path class="cls-6" d="M1399,230.73c-11-2.11-16.81-10-13.61-19.11,2.23-6.35,7.61-9.54,13.61-9.89v5.18a30.51,30.51,0,0,0-3.64,1.27c-3.79,2.09-6,5.31-4.89,9.66s3.53,7.3,8.53,6.67v6.21Z"/><path class="cls-6" d="M1399,386.1c-11-2.13-16.81-10-13.61-19.11,2.23-6.35,7.61-9.54,13.61-9.89v5.18a30.51,30.51,0,0,0-3.64,1.27c-3.79,2.09-6,5.3-4.89,9.66s3.53,7.29,8.53,6.67v6.21Z"/><path class="cls-6" d="M1399,417.18c-8-1-14.14-6.24-14.42-13.89-0.28-7.87,5.42-13.29,14.42-15.11v6.21a0.92,0.92,0,0,0-.74-0.27c-4.78.5-7.38,3.45-8,7.93-0.67,4.69,2.76,8,8.76,10v5.18Z"/><path class="cls-6" d="M1399,308.42c-12-1-17.58-13.25-12.39-21.92,2.81-4.71,7.39-6.59,12.39-7.08v5.18a30.51,30.51,0,0,0-3.64,1.27c-3.79,2.09-6,5.3-4.89,9.66s3.53,7.29,8.53,6.67v6.21Z"/><path class="cls-6" d="M1399,117.83c-5-1-9-4.19-9-8.85s4-7.89,9-8.76v17.61Z"/><path class="cls-6" d="M47.22-1c-1,1-1.93,2-2.9,2C30,1.15,15.77,1.22,1.5,1.08c-1,0-2-1.08-3.06-2.08H47.22Z"/><path class="cls-6" d="M114.67-1c-5.19,7-14.89,7-21.79,0h21.79Z"/><path class="cls-6" d="M1399,446.18a56.35,56.35,0,0,0-6.35-.18c-3.86.29-5-1.36-3.83-5.51,3.41,0.17,7.18.34,10.18,0.52v5.18Z"/><path class="cls-6" d="M1131.43,412q-69.27,0-138.54-.06c-3.38,0-5.93.31-7.39,3.91a7.73,7.73,0,0,1-3.79,4.08c-5.05,1.88-4.89,5.71-4.88,10q0.11,113.39,0,226.77c0,3.58.71,5.79,4.06,7.84,6.18,3.78,8.42,9.91,7.25,17a16.46,16.46,0,0,1-13.85,13.62c-7.17,1.2-13.15-1.28-17-7.35-2-3.13-4-4-7.45-4q-212,.1-423.91,0c-3.38,0-5.56.64-7.49,3.89-4,6.76-12,9.28-19.46,6.9a17,17,0,0,1,.81-32.6,16.44,16.44,0,0,1,18.84,7.43c1.76,3.12,3.79,3.7,7,3.7q212.21-.09,424.43,0c3.17,0,5.55-.32,7-3.7a8.52,8.52,0,0,1,4.12-4.46c5.11-1.9,4.87-5.76,4.86-10q-0.12-57,0-113.93,0-56.47.05-112.94c0-3.34-.64-5.42-3.88-7.42a16.6,16.6,0,0,1,.26-28.45c2.76-1.71,3.64-3.43,3.64-6.53q-0.13-76.15,0-152.3c0-3.35-1-5.11-3.92-6.9-9.5-5.94-10.76-20-2.19-26.6,3.74-2.9,8.35-6.21,13.6-4.27,4,1.49,8.52,3.45,11.24,6.56,6.88,7.87,4.08,18.75-5.32,25.33-1.5,1.05-2.46,3.89-2.46,5.91-0.15,34.18-.11,68.36-0.11,102.54,0,16.55.06,33.1-.06,49.65,0,3,.42,5.12,3.49,6.63a11.78,11.78,0,0,1,5.1,4.94c1.74,3.51,4.12,4.22,7.8,4.21q138.8-.16,277.59,0c3.39,0,5.9-.38,7.38-4a8.8,8.8,0,0,1,4.17-4.44c4.5-1.9,4.91-5.19,4.9-9.46q-0.18-74.81,0-149.62c0-3.41-.67-5.51-4-7.36-6.6-3.71-9.3-11.61-7.26-18.87a17.13,17.13,0,0,1,32.68-.46,16.5,16.5,0,0,1-7.15,19.37c-3,1.76-3.79,3.69-3.78,6.95q0.14,75.61,0,151.22c0,3.55.66,5.73,4.06,7.84,10.57,6.56,10.14,22-.67,28.46-2.66,1.6-3.38,3.23-3.38,6.08q0.09,115.49,0,231c0,3,1,4.48,3.56,6a16.64,16.64,0,0,1,7.46,19.28,17.09,17.09,0,0,1-32.7.11c-2.18-7.46.57-15.5,7.36-19.31,3.11-1.74,3.81-3.67,3.8-6.92q-0.12-114.69,0-229.38c0-3.21-.37-5.53-3.77-6.94a8.63,8.63,0,0,1-4.48-4.11c-2-4.95-5.73-4.87-10.06-4.86Q1200.18,412.08,1131.43,412Z"/><path class="cls-6" d="M470.64,1109c0,54,0,108.56,0,163.09,0,28.65.05,57,.28,85.69a7.09,7.09,0,0,0,2.88,5c6.74,4.6,9.74,10.85,8.25,18.56-1.28,6.64-6.71,11.75-13.79,13.05s-13.29-1.88-17.7-8.2a7.48,7.48,0,0,0-5.14-3q-77.31-.24-154.62,0c-1.74,0-4.05,1.53-5.1,3-4.83,6.94-12.08,9.93-19.78,7.68a17,17,0,0,1,.43-32.74c7.56-2.06,14.79,1.16,19.56,8.26a6.73,6.73,0,0,0,4.7,2.72q77.57,0.21,155.14.07a6,6,0,0,0,3.72-1.08c3.38-3,6.57-6.31,9.74-9.58a4,4,0,0,0,.88-2.25,39.91,39.91,0,0,0,0-4.14q0-247.28.07-494.56c0-3.9-.68-6.31-4.42-8.67-10.31-6.5-9.86-21.79.7-28.16,3.06-1.85,3.71-3.76,3.7-6.94q-0.1-136.2,0-272.4c0-3.48-.87-5.46-4.08-7.29-6.52-3.73-9.17-11.7-7.09-19a17.16,17.16,0,0,1,32.72-.14c2.14,7.22-.42,15.31-6.94,19-3.51,2-4.11,4.26-4.1,7.83q0.13,108.2.07,216.4c0,18.79,0,37.59,0,56.38,0,2.61.33,4.45,3.08,5.76,2.08,1,4.39,2.77,5.25,4.77,1.91,4.45,5.18,4.54,9.17,4.53q145.54-.1,291.07,0c3.64,0,6.19-.39,8.33-4.13,3.75-6.56,11.86-9,19-6.7a17,17,0,0,1,.17,32.38c-7.18,2.3-15.31,0-19.12-6.53-2.14-3.64-4.58-4.25-8.29-4.25q-146.06.11-292.11,0c-3.49,0-6.35.11-7.86,4a7.54,7.54,0,0,1-3.84,4c-5.07,1.85-5.32,5.67-5.31,10,0.07,77.14-.35,154.28-0.35,231.42v16h0.64Z"/><path class="cls-6" d="M1059,579H990V423h69V579Zm-59-144V568h49V435h-49Z"/><path class="cls-6" d="M950,395H880V241h70V395ZM891,251V385h49V251H891Z"/><path class="cls-6" d="M1111,859V787h155v72H1111Zm145-59H1122v48h134V800Z"/><path class="cls-6" d="M1028,5h70V161h-70V5Zm12,11V149h47V16h-47Z"/><path class="cls-6" d="M351,950V796h72V950H351Zm62-143H362V939h51V807Z"/><path class="cls-6" d="M691,653h-5.79c-40.63,0-81.26.55-121.9,0.49-3.44,0-5.9.41-7.64,4.4-2.7,6.2-9.78,8.88-16.19,7.07a14.24,14.24,0,0,1,.27-27.63,13.83,13.83,0,0,1,16.14,7.25c1.28,2.56,2.39,4,5.62,4,40.28-.13,80.36-0.08,120.65-0.09,1.18,0,1.83-.17,3.83-0.31V304.74c-9-5-12.82-10.65-11-18.26a14.71,14.71,0,0,1,14.23-10.86,14,14,0,0,1,13.45,11.18c1.66,7.72-1.71,13.17-11.71,18V653Zm7.06-363a8.74,8.74,0,0,0-8.89-8.81,8.9,8.9,0,0,0-8.89,8.88,9.14,9.14,0,0,0,9,8.9A9,9,0,0,0,698.06,290ZM552.24,651.14a9,9,0,1,0-8.84,9.07A9.24,9.24,0,0,0,552.24,651.14Z"/><path class="cls-6" d="M314,1005.56c1,0.1,2.8.26,4.32,0.26,16.95,0,33.61,0,50.55.06,3,0,4.74-.5,6.18-3.7a13.6,13.6,0,0,1,15.9-7.55,14.36,14.36,0,0,1-.3,28,13.86,13.86,0,0,1-15.87-7.85c-1.36-3-3.12-3.47-5.93-3.46-18.85.08-37.7,0-56.55,0.11-3.79,0-5.44-.62-5.43-5q0.2-133.85.11-267.72c0-1.35.14-2.73,0.25-4.73H313c18.5,0,37,0,55.51.07,3,0,4.89-.36,6.33-3.64,2.84-6.48,9.62-9.26,16.44-7.62a14.36,14.36,0,0,1,0,27.81c-6.81,1.65-13.13-1.36-16.68-7.49-0.92-1.58-3-3.55-4.53-3.57-18.33-.24-36.09-0.15-54.42-0.12a11,11,0,0,0-1.65.41v265.71Zm82.57-269.09a9,9,0,1,0-8.71,9.12A9.06,9.06,0,0,0,396.57,736.47Zm-8.83,263.21a8.95,8.95,0,1,0,8.83,9.08A9.24,9.24,0,0,0,387.74,999.67Z"/><path class="cls-6" d="M1322,748H1055.69c-0.1,2-.26,3.83-0.26,5.49,0,16.74,0,33.64-.06,50.38,0,3.17.43,5.28,3.85,6.8,6.23,2.77,9,9.57,7.34,16.06a14.25,14.25,0,0,1-14,10.94,14.45,14.45,0,0,1-14-11c-1.53-6.43,1.33-13.3,7.53-16,3.49-1.51,3.87-3.59,3.86-6.71-0.09-18.26,0-36.51,0-54.76V743h277.83c0,19,.06,39.09,0,58.4,0,4.4-.09,7.89,5.19,10.19,5.77,2.51,7.75,10.16,5.75,16.22a14.39,14.39,0,0,1-27.54-.68c-1.67-6.61.88-13.52,7-16.21,3.8-1.67,4.17-3.82,4.13-7.45-0.18-15.53-.31-31.06-0.31-46.59V748Zm12,75.48a9,9,0,0,0-8.79-9,8.77,8.77,0,0,0-8.92,8.76,9,9,0,0,0,8.69,9.06A9.17,9.17,0,0,0,1334,823.48Zm-272.53,0a8.74,8.74,0,0,0-8.67-9,9,9,0,0,0-9.08,8.72,9.24,9.24,0,0,0,8.79,9.1A9,9,0,0,0,1061.43,823.51Z"/><path class="cls-6" d="M840,451.26c20,0,38.58.06,57.59-.13,1.34,0,3.11-1.6,3.84-2.94,3.69-6.71,9.65-9.78,16.75-8.21a14.35,14.35,0,0,1,.41,27.8c-7.09,1.85-13.35-1.33-17.28-8.18a6.63,6.63,0,0,0-5-2.66c-18.67-.2-37.35.06-56,0.06H835V179.52c1-.09,3.4-0.25,5.24-0.25,18.5,0,36.85-.08,55.35.05,3.28,0,5.14-.66,6.62-4a13.53,13.53,0,0,1,14-7.66,14.31,14.31,0,0,1,12.4,10.9,13.87,13.87,0,0,1-5.54,15c-6.72,4.5-16.79,3.63-20.86-4.77-1.71-3.53-3.78-3.53-7.16-3.51-16.6.12-33.2,0.64-49.8,0.64H840V451.26Zm74.48-278.17A8.94,8.94,0,1,0,914.9,191,8.94,8.94,0,0,0,914.48,173.09Zm9.1,280.66a8.88,8.88,0,0,0-9.07-8.68,8.86,8.86,0,1,0,.35,17.72A8.9,8.9,0,0,0,923.58,453.75Z"/><path class="cls-6" d="M662,628h-6.34c-43.56,0-87.13.53-130.69,0.44-3.86,0-6.51.51-8.46,4.84-2.73,6.08-10,8.49-16.41,6.52a14,14,0,0,1-10-14,14.29,14.29,0,0,1,27-6.25c1.24,2.48,2.2,4,5.51,4,43.56-.14,87.11-0.09,130.68-0.1a37.07,37.07,0,0,0,3.79-.29V402.4a2.91,2.91,0,0,0-1.72-.6c-15.39,0-30.77-.16-46.15.11-1.52,0-3.45,2.17-4.4,3.8-4,6.91-12.19,9.66-19.22,6.18a14.31,14.31,0,0,1-6.83-18.49,13.51,13.51,0,0,1,12-8.58c6.09-.46,11.24,1.77,13.68,7.33,1.7,3.85,3.92,4.15,7.5,4.12q22.3-.23,44.6-0.25H662V628ZM600.82,399.12a8.86,8.86,0,0,0-8.8-8.95,9.05,9.05,0,0,0-9.1,8.73,9.18,9.18,0,0,0,8.87,9A9,9,0,0,0,600.82,399.12ZM513.24,626.46a8.89,8.89,0,1,0-17.77-.47A8.89,8.89,0,0,0,513.24,626.46Z"/><path class="cls-6" d="M293.08,877.6q0,75.32-.06,150.64c0,3.21.5,5.14,3.91,6.63,6.16,2.7,9,9.67,7.4,16.07a14.27,14.27,0,0,1-14.09,10.8,14.05,14.05,0,0,1-13.77-10.47c-1.75-6.5.8-13.42,6.91-16.22,3.69-1.69,4.36-3.81,4.36-7.47q-0.14-151.16-.15-302.31a13,13,0,0,1,3.93-10C318.43,687.71,345.15,660,372,632.4c2.38-2.45,3.53-4.27,2-7.95-2.52-6.23.41-13.14,6.07-16.54a14.4,14.4,0,0,1,19.79,19.75,13.78,13.78,0,0,1-16.59,6.07c-3.31-1.25-4.89-.2-7,2-26.63,27.58-53.39,55-79.93,82.69a12.78,12.78,0,0,0-3.19,8C293,776.83,293.08,827.21,293.08,877.6Zm103.5-257.52a9,9,0,1,0-8.85,9.06A9.24,9.24,0,0,0,396.57,620.07ZM290.47,1056.34a8.87,8.87,0,1,0-.28-17.74A8.87,8.87,0,0,0,290.47,1056.34Z"/><path class="cls-6" d="M638,431h-5.88q-30.35,0-60.7-.12c-2.36,0-4,.12-5.25,2.78-3.29,7-10,10-17,8.15a13.83,13.83,0,0,1-10.53-14.16,14.35,14.35,0,0,1,10.93-13.48c7.18-1.61,13.4,1.41,16.82,8.58,0.37,0.76.76,1.25,1.24,2.25H643V596h-6.34c-37.53,0-75.05-.57-112.58-0.64-3.32,0-5.62,0-7.15,3.76-2.4,6-9.28,8.42-15.87,6.9a13.52,13.52,0,0,1-11-13.62,14.24,14.24,0,0,1,10.74-14.15A14,14,0,0,1,517,585.44c1.27,2.48,2.3,4,5.57,4,37.18-.14,74.63-0.1,111.81-0.11,1,0,2.62-.13,3.62-0.21V431Zm-76.07-2.71a9,9,0,0,0-8.76-9,8.86,8.86,0,0,0-.33,17.71A9,9,0,0,0,561.93,428.29ZM504.3,583.16a9.18,9.18,0,0,0-8.83,9,8.89,8.89,0,0,0,17.77-.12A9.19,9.19,0,0,0,504.3,583.16Z"/><path class="cls-6" d="M1086.76,768c0,13-.1,26,0.16,38.71,0,1.24,2,2.85,3.46,3.65,6.23,3.49,9.3,10,7.52,16.58a14.41,14.41,0,0,1-28.09-.91c-1.24-5.94,1.51-12.61,7.36-15.11,3.77-1.61,4.07-3.86,4-7.16-0.13-11.55-.09-23.43-0.1-35,0-2,0-3.77,0-6.77h215.16c0.08,2,.24,3.86.24,5.68,0,12.25.08,24.66,0,36.91,0,2.85.53,4.6,3.52,5.94a13.87,13.87,0,0,1,7.79,15.91,14.45,14.45,0,0,1-14.31,11.25,14.23,14.23,0,0,1-13.78-11.17,13.55,13.55,0,0,1,7.64-15.87c3.24-1.42,3.75-3.37,3.72-6.41C1290.91,792.35,1291,780,1291,768H1086.76Zm215.92,55.35a9.16,9.16,0,0,0-9-8.86,8.88,8.88,0,0,0-8.87,8.88,9.09,9.09,0,0,0,8.9,8.94A9.35,9.35,0,0,0,1302.69,823.35Zm-218.53-8.86a9.09,9.09,0,0,0-9.14,8.7,9,9,0,0,0,17.92.34A9,9,0,0,0,1084.16,814.5Z"/><path class="cls-6" d="M999.39,726.38a14.24,14.24,0,0,1,10.3-13.93c6.57-1.79,13.57.66,16.34,6.74,1.79,4,4.19,4.46,7.91,4.46q156.1-.12,312.19,0c3.52,0,5.86-.31,7.57-4.23,2.68-6.15,9.61-8.7,16.21-7a14.35,14.35,0,0,1-.18,27.79c-6.55,1.58-13.31-1.13-16.16-7.27-1.5-3.22-3.27-4-6.61-4q-157.13.13-314.26,0c-3.09,0-4.81.6-6.22,3.74-2.88,6.39-9.85,9.23-16.51,7.51A14.33,14.33,0,0,1,999.39,726.38Zm14.51-9a8.69,8.69,0,0,0-9,8.67,8.83,8.83,0,0,0,8.63,9.06,9,9,0,0,0,9.08-8.72A8.93,8.93,0,0,0,1013.89,717.41ZM1375,726.22a8.83,8.83,0,0,0-8.91-8.81,9.1,9.1,0,0,0-9,8.87,9.22,9.22,0,0,0,9,8.87A9,9,0,0,0,1375,726.22Z"/><path class="cls-6" d="M860,216.32V419.46a20.47,20.47,0,0,0,3.48.48c11.07,0,21.94-.05,33,0.08,2.75,0,4.1-.68,5.34-3.4a13.79,13.79,0,0,1,16.22-7.92,14.3,14.3,0,0,1,11.1,13.85,14.57,14.57,0,0,1-11,14,13.89,13.89,0,0,1-16.35-7.83c-1.36-3.09-2.65-3.45-5.44-3.43-13.82.08-27.41,0-41.41,0V211h25.92c3.8,0,7.61-.35,11.41-0.2,4.56,0.17,8.19,0,10.85-5.31,1.66-3.34,6.71-5,10.24-7.46,0.48,0.39,1,.76,1.45,1.15l0.35,4.67a39.06,39.06,0,0,0-4.74,1.73A8.7,8.7,0,0,0,907.16,218a8.8,8.8,0,0,0,12.67,2.51,8.64,8.64,0,0,0,1.67-12.74c-1.25-1.45-3.11-2.37-4.55-3.68-0.65-.58-1.48-1.64-1.32-2.25a2.87,2.87,0,0,1,2.15-1.51c4.5-.38,7.3,2.37,9.36,5.81a14.2,14.2,0,0,1-5.41,19.69c-7,3.93-16.08,1.6-19.51-5.76-1.69-3.61-3.77-4.13-7.13-4.08-10.2.14-20,0-30.21,0.07C863.19,216.06,862,216.22,860,216.32Zm54.79,197.5a9.06,9.06,0,0,0-9.08,8.73,9.28,9.28,0,0,0,8.88,9,9,9,0,0,0,9-8.82A8.8,8.8,0,0,0,914.79,413.82Z"/><path class="cls-6" d="M834,722h6.49q56.28,0,112.56.05c3.13,0,5.21-.31,6.76-3.79a13.59,13.59,0,0,1,16.06-7.33,14,14,0,0,1,10.84,14,14.27,14.27,0,0,1-27,6.44c-1.16-2.32-2-3.84-5.14-3.83-37.52.13-75,.09-112.53,0.11a23.16,23.16,0,0,0-3,.32v5.73c0,36.93,0,73.86-.12,110.79,0,4,1,6.93,4,9.4a48.27,48.27,0,0,1,4.78,4.74c3.38,3.63,6.18,6.92,12.47,4.42,5.57-2.21,12.19,2.06,14.94,7.61a14.43,14.43,0,0,1-2.95,16.68,14.2,14.2,0,0,1-16.78,2.33c-5.55-3-9.19-9.29-7.09-15.16,1.92-5.36.15-8.43-3.73-11.2-9.3-6.62-11.29-15.43-11.07-26.68,0.73-35.87.51-71.76,0.51-107.64v-7Zm138.48,11.78a8.95,8.95,0,0,0-.09-17.89A8.95,8.95,0,0,0,972.48,733.78ZM871.1,877.19a9.21,9.21,0,0,0-8.69-9.19,9.07,9.07,0,0,0-9.07,8.75,8.78,8.78,0,0,0,8.62,9.07A9,9,0,0,0,871.1,877.19Z"/><path class="cls-6" d="M332.43,974.52c13,0,25.8.12,38.57-.17,1.34,0,3-2.27,3.88-3.83,4-6.88,12.25-9.55,19.24-6a14.33,14.33,0,0,1,6.68,18.55,13.66,13.66,0,0,1-12.56,8.58c-6,.25-11-2.37-13.38-8-1.38-3.21-3-3.84-6.15-3.81-13.81.13-28.7,0.06-41.7,0.06V765h5.35c12.27,0,24.55.09,36.82,0.2,2.68,0,4.22-.43,5.47-3.23a14,14,0,0,1,16.26-8A14.55,14.55,0,0,1,402,767.87a14.39,14.39,0,0,1-10.91,14c-6.76,1.66-13.38-1.16-16.36-7.7-1.35-3-3-3.58-5.89-3.55q-16.33.18-32.67,0c-2.9,0-4.38.53-4.38,3.94q0.14,98.87.11,197.73A13.56,13.56,0,0,0,332.43,974.52Zm55-197.7a9,9,0,0,0,9.16-8.62,9,9,0,0,0-17.93-.4A9,9,0,0,0,387.41,776.82Zm9.15,200.75a9,9,0,0,0-17.93-.51A9,9,0,0,0,396.56,977.57Z"/><path class="cls-6" d="M615,567H512V465H615V567Zm-8-5V470H518v92h89Z"/><path class="cls-6" d="M873,751H975V854H873V751Zm97,6H879v91h91V757Z"/><path class="cls-6" d="M1371,209.7V409.21c-6,0-12.66.09-18.82,0-2.82-.06-4.6.43-6,3.47-2.93,6.6-9.57,9.47-16.31,7.84a14.35,14.35,0,0,1-11.07-13.9,14.57,14.57,0,0,1,11-14,14,14,0,0,1,16.33,7.9c1.24,2.74,3,3.51,5.74,3.39,4.44-.2,9.06-0.05,14.06-0.05V216h-18.2c-0.63,1-1.24,2.39-2,3.72a14.31,14.31,0,0,1-16.46,6.62,14.65,14.65,0,0,1-10.49-14,14.44,14.44,0,0,1,10.58-13.81c6.53-1.78,13.42.73,16.26,6.85,1.7,3.65,3.87,4.56,7.57,4.36C1358.93,209.49,1365,209.7,1371,209.7Zm-28.77,197.44a9.18,9.18,0,0,0-8.35-9.5,9,9,0,0,0-9.42,8.32,8.71,8.71,0,0,0,8.24,9.41A9,9,0,0,0,1342.23,407.14Zm0-194.76a9,9,0,0,0-8.93-8.86,8.74,8.74,0,0,0-8.88,8.81,9,9,0,0,0,8.83,9A9.18,9.18,0,0,0,1342.24,212.38Z"/><path class="cls-6" d="M737,496.39V615h5.57q55.25,0,110.51.14c4.14,0,7.33-.79,9.91-4.11a35.76,35.76,0,0,1,5.11-5.12c3.71-3.16,6-6,3.75-11.71-2.18-5.47,2-12.21,7.48-15a14.53,14.53,0,0,1,16.76,2.73,14.23,14.23,0,0,1,2.26,17.18c-3.12,5.48-9.47,8.86-15.37,6.73-5-1.79-7.84-.21-10.41,3.38-6.73,9.41-15.6,11.58-27.15,11.33-36-.8-71.94-0.55-107.91-0.55H731v-6.08c0-37.63-.13-75.26,0-112.89,0-3.06-.58-4.87-3.76-6.29-6.51-2.91-9.35-9.65-7.62-16.37a14,14,0,0,1,14.12-10.67,14.36,14.36,0,0,1,6.4,27.13C739,495.39,738,495.84,737,496.39ZM886,600.81a9,9,0,0,0,8.8-9,9.29,9.29,0,0,0-9.18-8.73,9.09,9.09,0,0,0-8.7,9.1A8.75,8.75,0,0,0,886,600.81ZM733.57,473.11a8.82,8.82,0,0,0-9,8.72,8.73,8.73,0,0,0,8.71,9A8.84,8.84,0,1,0,733.57,473.11Z"/><path class="cls-6" d="M761,480H863V583H761V480Zm97,96V485H766v91h92Z"/><path class="cls-6" d="M1189,506V607.35c-27,0-54,0-81.06-.09-0.38,0-.89-1.36-0.79-1.17-6.3,3.38-13.15.32-20.15,1.47V506h102Zm-5,5h-92v92h92V511Z"/><path class="cls-6" d="M1101.09,468c24.23,0,48.44.35,72.62-.2,8.11-.18,13.84,2,19.29,8,9.29,10.21,19.55,19.54,29.11,29.51a12.21,12.21,0,0,1,3.15,7.55c0.26,18.46.21,36.93,0.08,55.4,0,3.1.64,4.85,3.76,6.29,6.5,3,9.21,9.64,7.45,16.46a14.26,14.26,0,0,1-13.75,10.56,14.42,14.42,0,0,1-14.1-10.83c-1.62-6.72,1.28-13.42,7.84-16.31,3-1.32,3.52-3,3.5-5.82-0.1-17.93,0-35.85-.17-53.78a10.68,10.68,0,0,0-2.71-6.68q-15.69-16.18-31.91-31.85a10.7,10.7,0,0,0-6.69-2.79q-36.83-.29-73.66,0a6.87,6.87,0,0,0-5,2.81c-4.05,7-10,10.11-17.16,8.22a14,14,0,0,1-10.48-14.25,14.17,14.17,0,0,1,11.28-13.66c6.93-1.39,13,1.9,16.36,8.85Zm-14.58-6.2a9,9,0,0,0-8.87,8.9,8.86,8.86,0,0,0,17.71.05A9.05,9.05,0,0,0,1086.52,461.83Zm136,134.42a9,9,0,0,0,9-8.79,8.63,8.63,0,0,0-8.65-9,8.87,8.87,0,0,0-9.05,8.67A9.14,9.14,0,0,0,1222.53,596.25Z"/><path class="cls-6" d="M1260.46,502.35c0,8.63.11,17.26-.11,25.88,0,1.45-1.52,2.86-2.33,4.28-1-1.46-2.78-2.92-2.8-4.39-0.2-15.87,0-31.75-.27-47.62a12.19,12.19,0,0,0-3.06-7.56q-15.26-15.87-31.16-31.11a12.11,12.11,0,0,0-7.59-3.08c-33-.2-66-0.13-99.05-0.14a30.05,30.05,0,0,1-5.18-.08c-4.94-.88-8.43.59-11.17,5-3.73,6.07-9.12,7.87-15.39,6a14.4,14.4,0,0,1-10.12-14,14,14,0,0,1,10.66-13.6c6-1.62,12.91.6,15.56,6.31,2.13,4.6,5.07,4.9,9.29,4.89q53.68-.19,107.35.07a12.82,12.82,0,0,1,8,3.29c11.7,11.25,23.16,22.75,34.48,34.39a10.94,10.94,0,0,1,2.75,6.66C1260.66,485.78,1260.47,494.07,1260.46,502.35Zm-165.11-66.29a8.86,8.86,0,1,0-9.22,8.77A8.92,8.92,0,0,0,1095.36,436.05Z"/><path class="cls-6" d="M1121,200V122.53c0-27.74.12-55.49,0.21-83.23,0-3-.3-4.86-3.56-6.28-6.5-2.82-9.29-9.6-7.64-16.37A14.43,14.43,0,0,1,1123.7,6a14.26,14.26,0,0,1,14.19,10.65c1.68,6.81-1.08,13.52-7.57,16.4-3.24,1.43-3.69,3.26-3.68,6.29q0.11,78.1.06,156.21c0,2.31-.44,4.39,2.71,5.81,7.33,3.3,10.26,9.73,8.5,16.87a14.41,14.41,0,0,1-28-.58c-1.43-7.3,1.73-13.33,9-16.64C1119.55,200.69,1120,200.45,1121,200Zm3.76,5.67a8.89,8.89,0,0,0-9.64,8,8.89,8.89,0,1,0,17.71,1.53A8.78,8.78,0,0,0,1124.76,205.72Zm-0.54-176.59a8.85,8.85,0,0,0,8.65-9.09,8.89,8.89,0,1,0-17.76.47A8.89,8.89,0,0,0,1124.22,29.13Z"/><path class="cls-6" d="M1117,663V621h43v42h-43Zm30.86-20.34A8.95,8.95,0,1,0,1130,643,8.95,8.95,0,0,0,1147.86,642.66Z"/><path class="cls-6" d="M588,863v43H546V863h42Zm-12.31,21.75a8.71,8.71,0,0,0-8.66-9,8.89,8.89,0,0,0-9.11,8.61,9.17,9.17,0,0,0,8.72,9.14A9.05,9.05,0,0,0,575.69,884.75Z"/><path class="cls-6" d="M1319,132h44v43h-44V132Zm22.13,31a9,9,0,0,0-.16-17.91A9,9,0,0,0,1341.13,163Z"/><path class="cls-6" d="M1059,621h43v42h-43V621Zm30.37,21.65a9.07,9.07,0,0,0-9-8.77,9.22,9.22,0,0,0-8.72,9.15,9,9,0,0,0,9.1,8.66A8.8,8.8,0,0,0,1089.37,642.65Z"/><path class="cls-6" d="M445,598H404V555h41v43Zm-20.62-13.14a8.92,8.92,0,0,0,9-8.7,8.78,8.78,0,0,0-8.67-9,8.94,8.94,0,0,0-9.11,8.64A9.07,9.07,0,0,0,424.38,584.86Z"/><path class="cls-6" d="M530,906H486V863h44v43Zm-12.64-21.52a8.88,8.88,0,0,0-17.76.16,9,9,0,0,0,8.94,8.87A9.15,9.15,0,0,0,517.36,884.48Z"/><path class="cls-6" d="M814,702v42H772V702h42Zm-12.17,20.83a8.94,8.94,0,0,0-8.71-9.06A8.93,8.93,0,1,0,801.83,722.83Z"/><path class="cls-6" d="M1311,377V334h44v43h-44Zm22.5-30.11a9.07,9.07,0,0,0-9.06,8.74,8.68,8.68,0,0,0,8.65,9,8.91,8.91,0,0,0,9.15-8.59A9.24,9.24,0,0,0,1333.5,346.89Z"/><path class="cls-6" d="M814,463H772V420h42v43Zm-12.17-20.83A8.8,8.8,0,0,0,793,433.3c-4.91,0-9.38,4.45-9.21,9.19,0.16,4.44,4.72,8.7,9.27,8.64A9,9,0,0,0,801.83,442.17Z"/><path class="cls-6" d="M663,382H621V338h42v44Zm-30-15.94c1,0.14,1.9,0,2.3.39,3.32,3.26,7,3.83,10.9,1.36s5.26-6.4,3.73-10.72c-1.47-4.15-4.87-6.16-9.32-5.75a8.87,8.87,0,0,0-7.88,8.79A57.62,57.62,0,0,0,633,366.06Z"/><path class="cls-6" d="M646.95,906H603V862.78c7,0,13.13-.28,19.38.19,1.63,0.12,3.26,2.62,4,4.56-0.52-1-.94-2-1.46-3a24.62,24.62,0,0,1,4.62-1.26c1.19-.1,2.47.49,3.81,0.8a9.12,9.12,0,0,0,.36-1c3.39,1.93,6.69-1.54,10-.21,1.27,0.52,3.15,1.88,3.17,2.85C647,879,646.95,892,646.95,906Zm-12.79-21.66a9,9,0,0,0-17.9.43A9,9,0,0,0,634.16,884.34Z"/><path class="cls-6" d="M1043,621v42h-42V621h42Zm-21.08,12.89a9,9,0,0,0-8.61,9.19,8.82,8.82,0,0,0,9.1,8.61,8.93,8.93,0,0,0,8.66-9.1A9.17,9.17,0,0,0,1021.92,633.89Z"/><path class="cls-6" d="M1014,166H971V123h43v43Zm-13-21.22a8.89,8.89,0,1,0-17.77-.42A8.89,8.89,0,0,0,1001,144.78Z"/><path class="cls-6" d="M1096,344h-42V302h42v42Zm-20.64-29.4a8.86,8.86,0,1,0,0,17.72,8.79,8.79,0,0,0,8.88-8.82A8.88,8.88,0,0,0,1075.36,314.6Z"/><path class="cls-6" d="M1330,904h-42V861h42v43Zm-11.43-21.86a8.82,8.82,0,0,0-9.11-8.6,8.93,8.93,0,0,0-8.65,9.11,9.17,9.17,0,0,0,9.15,8.69A9,9,0,0,0,1318.57,882.14Z"/><path class="cls-6" d="M1112,302h43v42h-43V302Zm21.65,30.31a9,9,0,0,0,9-8.77A9,9,0,1,0,1133.65,332.31Z"/><path class="cls-6" d="M971,66h43v42H971V66Zm30,20.37a8.89,8.89,0,1,0-8.95,8.8A8.93,8.93,0,0,0,1001,86.37Z"/><path class="cls-6" d="M1014,6V48H971V6h43Zm-13,21.88a8.89,8.89,0,0,0-17.78.31A9,9,0,0,0,992.6,37,8.8,8.8,0,0,0,1001,27.88Z"/><path class="cls-6" d="M996,302h43v42H996V302Zm29.88,21.27a9,9,0,0,0-9.11-8.67,8.89,8.89,0,0,0-8.64,9.09A8.88,8.88,0,0,0,1025.88,323.27Z"/><path class="cls-6" d="M1359.28,767.22c2.92,4.36,5.13,5.15,11.09,3.76a15.93,15.93,0,0,1,.4,3.38c-0.59,6.19-1.85,12.36-1.87,18.54-0.16,48-.06,96-0.14,144,0,3.52.33,5.85,4.25,7.56,6.21,2.72,8.77,9.73,7,16.16a14.32,14.32,0,0,1-13.7,10.66,14.51,14.51,0,0,1-14.11-10.87,13.67,13.67,0,0,1,7.3-16.07c3.31-1.54,3.88-3.51,3.87-6.73-0.08-52,0-103.91-.13-155.87,0-2.42-.32-5.5-1.77-7.11-2.88-3.18-3.25-2.85-2.2-7.45Zm6.55,198.55a8.94,8.94,0,0,0,.61-17.88A8.94,8.94,0,1,0,1365.83,965.77Z"/><path class="cls-6" d="M798.6,371.51c-7.39-4.55-10.29,2.62-14.27,7.12-12.93,14.61-25.71,29.35-38.64,44-1.9,2.14-2.58,3.74-1.2,6.7a13.81,13.81,0,0,1-5,17.38,14.38,14.38,0,0,1-20.86-18.59,13.89,13.89,0,0,1,16.71-6.88c2.88,0.89,4.31.06,6.07-2,14.39-16.55,28.79-33.08,43.41-49.43,2.48-2.77,2.48-4.85,1.13-8.08-2.43-5.85-.2-12.29,4.88-16.1a14.36,14.36,0,0,1,22.28,15.86C811.27,367.47,805.84,371.47,798.6,371.51Zm-67.4,72.24a8.93,8.93,0,1,0,.36-17.86A8.93,8.93,0,0,0,731.2,443.75Z"/><path class="cls-6" d="M792,311.55c-15.85,18.08-31.71,36.06-47.33,54.25-0.94,1.1-.38,4,0.23,5.83a14.42,14.42,0,1,1-27.22,9.53A14.13,14.13,0,0,1,727,363c2.39-.7,5.34-1.06,7.59-0.28,3.46,1.2,5.26.15,7.43-2.36,14.35-16.57,28.9-33,43.21-49.56a6.74,6.74,0,0,0,1.17-5.56c-2.49-7.23-.94-14,4.72-18a14.4,14.4,0,0,1,18.14,1.16,14.16,14.16,0,0,1,2.83,17.5c-3.36,6.08-10.05,8.63-17.38,6.59C793.87,312.21,793.08,311.9,792,311.55Zm16.33-12.66a9.12,9.12,0,0,0-8.87-9,9.29,9.29,0,0,0-9,8.91,9,9,0,0,0,9,8.82A8.78,8.78,0,0,0,808.36,298.89Z"/><path class="cls-6" d="M1224,888.16a13.44,13.44,0,0,1,7.88-12c5.42-2.69,10.81-2.21,15.55,1.63,4.54,3.68,6.51,8.66,4.81,14.29-1,3.35-.31,5.14,2.26,7.34q24.74,21.28,49.17,42.9c2.22,2,3.84,3,7.09,1.42a13.77,13.77,0,0,1,17.35,5,14.35,14.35,0,0,1-18.69,20.72,13.87,13.87,0,0,1-7.05-16.21c0.91-3,.43-4.6-1.84-6.57q-25.08-21.67-49.93-43.61c-2.25-2-3.92-2.25-6.79-1.07C1234.18,905.94,1224.13,899.21,1224,888.16Zm101,68.44a8.94,8.94,0,0,0-9.06-8.72,8.94,8.94,0,1,0,.47,17.88A8.92,8.92,0,0,0,1325,956.6Z"/><path class="cls-6" d="M534.26,723.21a13.93,13.93,0,0,1,8.13-12.34,13.61,13.61,0,0,1,15.11,1.61c4.65,3.6,6.78,8.67,5.11,14.2-1.2,4,.08,5.82,2.81,8.16Q589.94,756,614.2,777.42c2.15,1.89,3.79,2.58,6.76,1.24a13.92,13.92,0,0,1,17.42,4.94,14.36,14.36,0,0,1-1.13,17.71,14.56,14.56,0,0,1-17.53,3.11,14,14,0,0,1-6.89-16.72c0.73-2.51.48-3.93-1.54-5.68q-25.47-22-50.71-44.28c-2.13-1.88-3.61-2-6.28-.86C544.6,741,534.23,734,534.26,723.21Zm14.2-8.37a8.94,8.94,0,0,0,.45,17.88A8.94,8.94,0,1,0,548.47,714.84Z"/><path class="cls-6" d="M1180.56,102.44c0,0.49.25,1.78-.26,2.51-4.16,5.93.31,9.26,3.66,13.07q20,22.72,39.89,45.56c2,2.3,3.58,3.29,6.94,2.29a13.81,13.81,0,0,1,16.48,7.47,14.28,14.28,0,0,1-3.67,17.34,14.54,14.54,0,0,1-17.79.53,13.92,13.92,0,0,1-4.43-17.52c1.18-2.53.75-3.9-.92-5.79-14.84-16.81-29.7-33.62-44.29-50.65-2.49-2.92-4.61-1.75-7.21-1.26a14.29,14.29,0,1,1-4-28.25C1173.68,87.12,1180.52,93.33,1180.56,102.44Zm-5.39-.23a9,9,0,0,0-8.65-9.13,8.81,8.81,0,0,0-9.05,8.63,8.6,8.6,0,0,0,8.56,9A8.82,8.82,0,0,0,1175.17,102.2Z"/><path class="cls-6" d="M1222.73,287.07c-15.76-18-31.4-35.91-47.27-53.64-1-1.13-3.91-1.21-5.75-.85-7.82,1.49-15.47-2.93-17.32-10.35a14.4,14.4,0,0,1,9.35-17.36c7.51-2.43,15.76,1.3,17.89,8.85a19.7,19.7,0,0,1-.39,10.48c-0.81,2.71-.7,4.24,1.14,6.32q22.13,25,44,50.2c1.56,1.79,2.73,2.81,5.59,1.94,7.3-2.24,13.9.72,17.13,6.93a14.36,14.36,0,0,1-21.47,18c-5.59-4.21-7.13-11.06-4.05-18.07C1222,288.78,1222.3,288,1222.73,287.07Zm-56.53-77.35a8.58,8.58,0,0,0-8.73,8.87,8.88,8.88,0,0,0,8.89,8.83,9.1,9.1,0,0,0,8.82-9A8.8,8.8,0,0,0,1166.19,209.72Z"/><path class="cls-6" d="M1131.14,944.53c4.41-.7,7.94-1.89,11.37-1.68A13.85,13.85,0,0,1,1155.36,959a14.54,14.54,0,0,1-17.1,12c-8.15-1.75-13.31-9.63-11-17.54,0.91-3.14.35-4.83-2.09-6.93q-25-21.51-49.68-43.36c-2.21-2-3.88-2.41-6.77-1.13a14,14,0,0,1-17.39-5.07,14.18,14.18,0,0,1,1.25-17.68,14.58,14.58,0,0,1,17.54-3c6,3.21,8.57,9.82,7,16.79-0.35,1.5-.15,3.95.82,4.81C1095.82,913.72,1113.9,929.45,1131.14,944.53Zm-59-55.58a9,9,0,0,0-17.9-.17A9,9,0,0,0,1072.19,888.95Z"/><path class="cls-6" d="M729.5,274.31c-4.11-.15-8.52-2.78-11.06-8.07a13.48,13.48,0,0,1,1.65-15.06c3.62-4.56,8.64-6.78,14.24-5,4,1.29,5.81-.22,8.13-2.89q21.18-24.46,42.63-48.68c1.83-2.07,2.77-3.58,1.29-6.66-3.07-6.39-.76-13.47,4.83-17.4a14.4,14.4,0,0,1,17.74,1A14.2,14.2,0,0,1,812.23,189a14,14,0,0,1-16.66,7.1c-2.88-.85-4.36-0.22-6.15,1.84q-21.91,25.19-44,50.2c-1.92,2.17-1.94,3.74-.86,6.34C748.58,264.27,741.72,274.37,729.5,274.31Zm78.86-91.93a8.86,8.86,0,0,0-8.89-8.84,9.05,9.05,0,0,0-9,8.81,9.18,9.18,0,0,0,9,8.91A9,9,0,0,0,808.36,182.38Z"/><path class="cls-6" d="M1180.55,161c0,0.43.24,1.73-.29,2.45-4,5.45-.08,8.65,3.15,12.25,6.69,7.46,13.23,15,19.83,22.57,7.05,8,14.18,16,21.11,24.18,1.82,2.13,3.32,2.66,6.13,1.8a13.86,13.86,0,0,1,16.64,7.09,14.36,14.36,0,0,1-21,18.35,13.73,13.73,0,0,1-4.79-17.41c1.53-3.11.47-4.59-1.32-6.63q-21.72-24.66-43.29-49.44c-2.05-2.37-3.68-3.14-6.92-2.18a13.94,13.94,0,0,1-17.63-11.44,14.26,14.26,0,0,1,13-16.65C1173.67,145.3,1180.61,151.81,1180.55,161ZM1243.23,238a9,9,0,0,0-8.75-9,9.15,9.15,0,0,0-9,8.79,9,9,0,0,0,8.81,9A8.83,8.83,0,0,0,1243.23,238Z"/><path class="cls-6" d="M676,736.64c-5.87.36-10.38,1.54-14.48,0.71-7.73-1.57-12-9.66-10-17.24a14.46,14.46,0,0,1,17.27-10.31c7.73,1.95,12.71,9.3,10.53,16.9-1.14,4,.17,5.8,2.86,8.12q24.5,21.14,48.76,42.55c2.1,1.84,3.72,2.69,6.74,1.32a13.9,13.9,0,0,1,17.44,4.86,14.32,14.32,0,0,1-1.05,17.7,14.53,14.53,0,0,1-17.5,3.21c-6-3.14-8.67-9.68-7.19-16.74,0.32-1.56.25-4-.71-4.89C710.71,766.91,692.61,751.17,676,736.64Zm-10.66-21.82a8.95,8.95,0,0,0,.19,17.9A8.95,8.95,0,0,0,665.32,714.82Z"/><path class="cls-6" d="M1213.76,958.71c-0.1,4-2.72,8.37-8,11a13.48,13.48,0,0,1-15.1-1.51c-4.6-3.57-6.83-8.52-5.14-14.16,1.14-3.81.09-5.76-2.72-8.17q-24.36-20.9-48.39-42.2c-2.36-2.08-4.2-3.15-7.6-1.6-6.2,2.83-13.12.5-17-4.9a14.34,14.34,0,0,1,.91-17.71,14.51,14.51,0,0,1,17.47-3.34c5.84,3,9.22,9.63,7.23,16.12-1.1,3.6.11,5.25,2.51,7.33q24.47,21.18,48.74,42.58c2.38,2.1,4.11,2.94,7.54,1.48C1203.7,939.56,1213.73,946.61,1213.76,958.71Zm-5.39-1.63a9.16,9.16,0,0,0-8.67-9.19,8.95,8.95,0,0,0-.49,17.88A9.13,9.13,0,0,0,1208.38,957.08Z"/><path class="cls-6" d="M1272.08,958.94c-0.11,4-2.85,8.32-8.13,10.85a13.53,13.53,0,0,1-14.67-1.46c-4.94-3.65-7-8.85-5.31-14.59,1.09-3.76-.05-5.53-2.63-7.76q-24.49-21.14-48.74-42.55c-2.25-2-3.93-3-7.16-1.46a13.84,13.84,0,0,1-17.06-4.64A14.39,14.39,0,0,1,1186.43,876c5.88,2.9,9.34,9.37,7.37,16-1.15,3.87.23,5.54,2.74,7.72q24.27,21,48.35,42.22c2.5,2.21,4.31,3.17,8,1.6C1262.28,939.52,1272.21,946.79,1272.08,958.94Zm-83.24-69.88a8.76,8.76,0,0,0-8.65-9,8.88,8.88,0,0,0-9.1,8.62,9.06,9.06,0,0,0,8.69,9.1A8.92,8.92,0,0,0,1188.84,889.07Z"/><path class="cls-6" d="M685.66,806.06c-10.31.16-17.08-8.47-14.45-18.34,0.79-2.95,0-4.33-2-6.05Q644,759.78,618.94,737.73c-2.12-1.87-3.6-2.08-6.27-.85a14,14,0,0,1-17.12-4.46,14.62,14.62,0,0,1,.38-17.76,14.26,14.26,0,0,1,17.33-3.84c6,2.85,9.55,9.26,7.67,15.87-1.13,4,.16,5.83,2.87,8.16q24.31,21,48.35,42.22c2.45,2.17,4.33,2.85,7.63,1.44,5.75-2.46,11.26-1.14,15.6,3.48,4.19,4.46,5,9.79,2.68,15.35A13.48,13.48,0,0,1,685.66,806.06Zm8.13-14.12a9.06,9.06,0,0,0-8.71-9.09,8.93,8.93,0,0,0-9,8.71,8.75,8.75,0,0,0,8.66,9A8.89,8.89,0,0,0,693.78,791.93Z"/><path class="cls-6" d="M777.58,772.84c-1.66-.72-2.79-0.93-3.54-1.58q-20-17.36-40-34.81c-0.38-.33-0.86-0.56-1.29.4-4.47.18-9.16,1.3-13.37,0.34-7.7-1.74-11.67-10-9.38-17.5a14.35,14.35,0,0,1,27.69,7.46c-0.59,2.33-1.36,4.12,1.14,6.26,17.14,14.69,34,29.65,51.19,44.33,1.24,1.07,4,1.33,5.68.76,7.07-2.4,14-.55,17.9,5.28a14.18,14.18,0,0,1-1.41,17.67,14.6,14.6,0,0,1-17.56,2.88c-5.93-3.26-8.4-9.78-6.84-16.86a7.73,7.73,0,0,0-1.31-5.16,75.94,75.94,0,0,0-6.11-7.75,9.48,9.48,0,0,0-1.48.87Zm24,27.74a9,9,0,0,0,9-8.76,9,9,0,0,0-17.9-.16A9,9,0,0,0,801.55,800.58Z"/><path class="cls-6" d="M1234.75,368.36c-1.17-2.9-1.1-4.49,2.27-5.56,4.82-1.53,7-5.64,6-10.07s-3.84-6.91-8.37-7.06-7.6,2.19-8.79,6.53c-1.26,4.65.55,8.33,4.86,10.17,3.1,1.33,3.7,3.06,2.62,6.38-2.51-1.36-6.48.32-6.78-4.51,0-.4-2.82-0.25-3.46-1a13.07,13.07,0,0,1-1.8-14.54c1.14-2.4,1.08-3.83-.7-5.84q-22.31-25.2-44.35-50.63c-2.13-2.47-4-2.17-6.69-1.53a14.17,14.17,0,0,1-17.08-9.78c-2.11-7.58,2.11-15.6,9.38-17.81s15.41,1.29,17.65,8.6a17.71,17.71,0,0,1-.17,10.45c-1.15,3.22-.49,4.92,1.52,7.19q21.62,24.43,43,49c2,2.26,3.45,3.3,6.88,2.38a14.12,14.12,0,0,1,18,12.28C1249.59,361.14,1243.49,368,1234.75,368.36Z"/><path class="cls-6" d="M944.63,1034.05c-2.38-4-1.5-7.26,1.77-10.51q42.44-42.18,84.76-84.49c1.46-1.46,3.2-2.64,5-4.08a40.92,40.92,0,0,0-2.63-3.4c-8.12-8.24-16.32-16.41-24.39-24.7-1.86-1.91-3.32-2.65-6.18-1.57a13.93,13.93,0,0,1-17.12-5.9,14.52,14.52,0,0,1,2.11-17.65,14.7,14.7,0,0,1,17.7-2.09,13.79,13.79,0,0,1,5.87,17.08c-1.29,3.14-.31,4.63,1.71,6.55,10.36,9.88,20.63,19.84,31.16,30-2.13,2.27-3.35,3.66-4.66,5q-46.42,46.25-92.84,92.51a21.47,21.47,0,0,0-2.29,3.3h0ZM1007,891.7a8.88,8.88,0,0,0-9.14-8.57,8.69,8.69,0,0,0-8.62,9,9,9,0,0,0,9.09,8.68A9.08,9.08,0,0,0,1007,891.7Z"/><path class="cls-6" d="M1208,39a9,9,0,0,1-1.84-2.36,2.27,2.27,0,0,1,1.23-1.73c6.4,0.3,12.82,1.16,19.18.87,1.57-.07,2.94,0,4.38,0,10.74,0.05,21.49-1.34,32.67-2,0.11,2,.18,3.22.3,5.22h-5.84c-24.38,0-48.76.53-73.13,0.43-3.05,0-4.89.74-6.33,3.91a13.84,13.84,0,0,1-16,7.66A14.3,14.3,0,0,1,1163,23a13.76,13.76,0,0,1,15.83,7.89c1.34,3,3.07,3.63,5.91,3.54,4.13-.13,8.27,0,12.4,0S1206.07,33.39,1208,39Zm-33.09-1.78A9,9,0,0,0,1157,37,9,9,0,0,0,1174.9,37.21Z"/><path class="cls-6" d="M769.44,270.72c5.32-6.07,10.44-12.08,15.77-17.89,2-2.16,2.44-3.8,1.1-6.72a13.87,13.87,0,0,1,5-17.34,14.66,14.66,0,0,1,17.34.81,14.2,14.2,0,0,1,3.75,17.3c-2.85,5.94-9.26,9.48-15.92,7.55-4.06-1.18-5.93.21-8.13,2.94-3.13,3.89-6.76,7.39-9.76,11.37C776.12,272,773.45,272.66,769.44,270.72Z"/><path class="cls-6" d="M1112.85,683.32a14.37,14.37,0,1,1-14.27,14.59A14.43,14.43,0,0,1,1112.85,683.32Z"/><path class="cls-6" d="M1016.57,220.57a14.4,14.4,0,1,1-14.26,14.74A14.62,14.62,0,0,1,1016.57,220.57Z"/><path class="cls-6" d="M1081.73,712a14.37,14.37,0,1,1,14.34-14.63A14.53,14.53,0,0,1,1081.73,712Z"/><path class="cls-6" d="M1143.53,683.31A14.37,14.37,0,1,1,1129.47,698,14.26,14.26,0,0,1,1143.53,683.31Z"/><path class="cls-6" d="M1033.83,196a14.31,14.31,0,0,1,28.61.13A14.31,14.31,0,1,1,1033.83,196Z"/><path class="cls-6" d="M768.37,272.59c1.33,4.53.23,7.7-2.64,10.81-6.91,7.5-13.42,15.34-20.26,22.9-1.89,2.08-2.18,3.66-1,6.33a13.92,13.92,0,0,1-4.84,17.44,14.7,14.7,0,0,1-17.4-.68,14.28,14.28,0,0,1-3.79-17.33,13.79,13.79,0,0,1,16.46-7.54c3.33,1,4.94.11,7-2.25,7.73-9.06,15.65-18,23.52-26.89C766.21,274.43,767.23,273.64,768.37,272.59Zm-36.75,36.83a8.89,8.89,0,0,0-9.09,8.64,8.75,8.75,0,0,0,8.61,9.07,9,9,0,0,0,9.18-8.59A9.11,9.11,0,0,0,731.62,309.42Z"/><path class="cls-6" d="M1033.83,273.59a14.09,14.09,0,0,1,10.1-13.52,14.34,14.34,0,0,1,16,5.63c1.38,2.09,3.61,4.24.23,7-1,.81-1.07,3.8-0.47,5.38,1.47,3.9-.8,5.79-3.36,7.55-4.67,3.2-9.69,3.4-14.74,1A13.77,13.77,0,0,1,1033.83,273.59Z"/><path class="cls-6" d="M1260,572.18c11,2.75,15.67,7,15.88,14.63a14.3,14.3,0,0,1-10.43,14.34,14.52,14.52,0,0,1-16.16-6.38c-3.45-5.7-2.85-13.16,2.24-17.5,3-2.59,3.66-5.29,3.61-8.89C1255,558.21,1255,548,1255,537.85c0-2.9,1-5.87,5-4.7v39Zm1.85,24.06a9.2,9.2,0,0,0,8.7-9.16,9,9,0,0,0-9.15-8.6,8.64,8.64,0,0,0-8.59,9A9,9,0,0,0,1261.85,596.24Z"/><path class="cls-6" d="M426.54,767.78A11.64,11.64,0,1,1,438.28,756,11.6,11.6,0,0,1,426.54,767.78Z"/><path class="cls-6" d="M272.74,710.66a11.62,11.62,0,1,1-11.91-11.55A11.52,11.52,0,0,1,272.74,710.66Z"/><path class="cls-6" d="M261.13,874a14.33,14.33,0,0,1,14.38,14.48,14.56,14.56,0,0,1-14.66,14.3,14.72,14.72,0,0,1-14.19-14.32A14.46,14.46,0,0,1,261.13,874ZM261,879.36a9.09,9.09,0,0,0-8.71,9.13,8.89,8.89,0,0,0,9.07,8.68,9.11,9.11,0,0,0,8.8-9A9.35,9.35,0,0,0,261,879.36Z"/><path class="cls-6" d="M948.06,103.12a14.39,14.39,0,1,1-14.58-14.28A14.34,14.34,0,0,1,948.06,103.12Zm-5.4.12a9.29,9.29,0,0,0-8.9-9,9,9,0,0,0-8.87,8.91,8.73,8.73,0,0,0,8.77,8.92A9.08,9.08,0,0,0,942.66,103.24Z"/><path class="cls-6" d="M1223.86,461.95a14.42,14.42,0,1,1-28.83-.45A14.42,14.42,0,0,1,1223.86,461.95Zm-14.42,8.87a9.12,9.12,0,0,0,8.88-9,8.88,8.88,0,0,0-8.89-8.87,9.1,9.1,0,0,0-9,8.88A9.31,9.31,0,0,0,1209.44,470.82Z"/><path class="cls-6" d="M275.52,810.64A14.54,14.54,0,0,1,261,825.08a14.73,14.73,0,0,1-14.32-14.19A14.43,14.43,0,1,1,275.52,810.64Zm-5.4,0a9.33,9.33,0,0,0-8.94-9,9.08,9.08,0,0,0-8.93,8.91,8.9,8.9,0,0,0,8.86,8.9A9.09,9.09,0,0,0,270.12,810.66Z"/><path class="cls-6" d="M889.48,161.41a14.26,14.26,0,0,1-14.11-14.71,14.42,14.42,0,0,1,14.35-14,14.68,14.68,0,0,1,14.49,14.53A14.53,14.53,0,0,1,889.48,161.41Zm9.13-14.18a8.8,8.8,0,0,0-8.76-9,9,9,0,0,0-9.1,8.68,9.22,9.22,0,0,0,8.82,9.07A9.11,9.11,0,0,0,898.61,147.22Z"/><path class="cls-6" d="M844.59,122.84a14.31,14.31,0,0,1-.37,28.61A14.31,14.31,0,1,1,844.59,122.84Zm8.63,14.4a8.93,8.93,0,0,0-17.87-.27A8.94,8.94,0,0,0,853.22,137.24Z"/><path class="cls-6" d="M1028,756.85a14.32,14.32,0,1,1-14.6-14.24A14.28,14.28,0,0,1,1028,756.85Zm-5.39.15a8.92,8.92,0,0,0-8.93-8.83,8.71,8.71,0,0,0-8.79,8.87,8.94,8.94,0,0,0,8.83,8.94A9.18,9.18,0,0,0,1022.64,757Z"/><path class="cls-6" d="M313,669.92a14.33,14.33,0,1,1-28.65.09A14.33,14.33,0,0,1,313,669.92Zm-5.4,0a8.88,8.88,0,0,0-9.1-8.64,8.64,8.64,0,0,0-8.63,9,8.87,8.87,0,0,0,9,8.73A9.11,9.11,0,0,0,307.62,669.93Z"/><path class="cls-6" d="M1028,788.54a14.32,14.32,0,0,1-28.64-.24A14.32,14.32,0,1,1,1028,788.54Zm-5.4-.49a8.89,8.89,0,0,0-9.15-8.58,8.64,8.64,0,0,0-8.56,9.07,8.85,8.85,0,0,0,9.05,8.65A9.06,9.06,0,0,0,1022.63,788.06Z"/><path class="cls-6" d="M335.18,647.89a14.33,14.33,0,1,1-28.66-.09A14.33,14.33,0,0,1,335.18,647.89Zm-5.52.16a8.86,8.86,0,0,0-8.72-9,9.11,9.11,0,0,0-9,8.83,8.91,8.91,0,0,0,8.83,8.93A8.67,8.67,0,0,0,329.66,648Z"/><path class="cls-6" d="M926.27,124.81a14.4,14.4,0,1,1-14.65-14.22A14.36,14.36,0,0,1,926.27,124.81Zm-5.41.18a9.28,9.28,0,0,0-8.9-9,9,9,0,0,0-8.88,8.9,8.73,8.73,0,0,0,8.77,8.92A9.08,9.08,0,0,0,920.87,125Z"/><path class="cls-6" d="M1033.83,234.59a14.3,14.3,0,1,1,14,14.77A14.14,14.14,0,0,1,1033.83,234.59Zm14-8.43a8.82,8.82,0,0,0-8.62,9.09,9,9,0,0,0,9.09,8.71,9.16,9.16,0,0,0,8.65-9.18A8.93,8.93,0,0,0,1047.87,226.16Z"/><path class="cls-6" d="M519.71,749.64a14.3,14.3,0,1,1-14.22-14.54A14.25,14.25,0,0,1,519.71,749.64Zm-14.18,8.61a8.71,8.71,0,0,0,8.77-8.89,9,9,0,0,0-9-8.86,9.14,9.14,0,0,0-8.81,9A8.79,8.79,0,0,0,505.52,758.25Z"/><path class="cls-6" d="M907.23,59.94A14.29,14.29,0,1,1,921.51,74.4,14.09,14.09,0,0,1,907.23,59.94Zm23.16,0.25a8.87,8.87,0,0,0-17.75-.25A9,9,0,0,0,921.37,69,9.11,9.11,0,0,0,930.39,60.19Z"/><path class="cls-6" d="M1256.7,451.17a14.39,14.39,0,1,1,14.35-14.48A14.29,14.29,0,0,1,1256.7,451.17Zm0.27-5.57a8.84,8.84,0,0,0,8.66-9.06,8.89,8.89,0,1,0-17.77.45A8.84,8.84,0,0,0,1257,445.6Z"/><path class="cls-6" d="M1121.2,269.14a14.35,14.35,0,0,1-14.39-14.47,14.42,14.42,0,0,1,28.84,0A14.36,14.36,0,0,1,1121.2,269.14Zm8.89-14.1a8.77,8.77,0,0,0-8.67-9,9.07,9.07,0,0,0-9.19,8.62,9.29,9.29,0,0,0,8.77,9.13A9,9,0,0,0,1130.09,255Z"/><path class="cls-6" d="M1016.57,288.18a14.31,14.31,0,1,1,.63-28.61A14.31,14.31,0,0,1,1016.57,288.18Zm0.28-23.24a8.89,8.89,0,0,0-8.94,8.81,8.74,8.74,0,0,0,8.77,8.92,9,9,0,0,0,9-8.75A9.12,9.12,0,0,0,1016.85,264.94Z"/><path class="cls-6" d="M899.4,67.94a14.19,14.19,0,0,1,14.34,14.45A14.42,14.42,0,1,1,899.4,67.94ZM899.08,91a8.86,8.86,0,1,0,.51-17.72A8.86,8.86,0,1,0,899.08,91Z"/><path class="cls-6" d="M1031.1,196.41a14.23,14.23,0,0,1-14.73,14.08,14.31,14.31,0,1,1,.51-28.61A14.12,14.12,0,0,1,1031.1,196.41Zm-5.39-.51a9.12,9.12,0,0,0-9.19-8.65,8.87,8.87,0,0,0-8.6,9.14A8.73,8.73,0,0,0,1017,205,9,9,0,0,0,1025.71,195.91Z"/><path class="cls-6" d="M1305.94,153.87a14.42,14.42,0,1,1-14.73-14.19A14.42,14.42,0,0,1,1305.94,153.87ZM1291.38,163a8.94,8.94,0,1,0-8.77-9.11A9.18,9.18,0,0,0,1291.38,163Z"/><path class="cls-6" d="M1231.74,469.7a14.28,14.28,0,1,1-.51,28.55A14.28,14.28,0,1,1,1231.74,469.7Zm8.8,14a9,9,0,0,0-9.17-8.6,8.87,8.87,0,0,0,.52,17.73A9,9,0,0,0,1240.54,483.72Z"/><path class="cls-6" d="M261,842.73a14.31,14.31,0,1,1,0,28.62A14.31,14.31,0,1,1,261,842.73Zm0.08,23.11a9,9,0,0,0,9-8.76,9.24,9.24,0,0,0-8.93-9,9,9,0,0,0-9,8.85A8.85,8.85,0,0,0,261.08,865.84Z"/><path class="cls-6" d="M880.72,115.09a14,14,0,0,1-14.51,14.21,14.18,14.18,0,0,1-14.09-14.17A14.3,14.3,0,1,1,880.72,115.09Zm-14.44,8.83a9.07,9.07,0,0,0,9.06-8.75,8.88,8.88,0,0,0-17.75-.34A9,9,0,0,0,866.29,123.92Z"/><path class="cls-6" d="M261.27,765a14.31,14.31,0,0,1,0,28.62c-8,0-14.76-6.62-14.64-14.34A14.52,14.52,0,0,1,261.27,765Zm0,5.38a8.87,8.87,0,0,0-.6,17.72,9,9,0,0,0,9.42-8.84A9.17,9.17,0,0,0,261.3,770.43Z"/><path class="cls-6" d="M505.35,703.92a13.93,13.93,0,0,1,14.37,14.29A14.3,14.3,0,1,1,505.35,703.92Zm8.95,14.16a8.88,8.88,0,1,0-8.77,8.93A8.89,8.89,0,0,0,514.29,718.08Z"/><path class="cls-6" d="M1337.39,457.49a14.37,14.37,0,0,1-.6-28.73c9.15-.25,14.25,6.28,14.09,18C1350.81,451.86,1343.84,457.4,1337.39,457.49Zm8.74-14.11a9,9,0,0,0-17.92-.47A9,9,0,0,0,1346.13,443.39Z"/><path class="cls-6" d="M1112.55,277c0.29,8.21-4.93,14-13,14.25a14.09,14.09,0,0,1-14.78-13.41c-0.32-8.35,5.44-14.84,13.48-15.17C1107,262.32,1112.21,267.53,1112.55,277Zm-4.75-.18a8.68,8.68,0,0,0-8.59-8.79c-4.56-.08-9.33,4.26-9.45,8.6-0.14,4.65,4.55,9.19,9.41,9.13S1107.74,282,1107.8,276.83Z"/><path class="cls-6" d="M355.46,698.92c-8.22-2.42-11.37-8.66-9.6-15.57a14.13,14.13,0,0,1,15-10.8A14.49,14.49,0,0,1,374.09,685c1,6.56-4.19,14.72-12.92,15.76,1.54-2.8,2.21-5.12,3.72-6.53,4.15-3.84,5.07-8.72,1.87-12.81a9,9,0,0,0-12.07-1.85c-4.14,2.86-4.82,8.22-2,12.82C354,694.33,354.58,696.71,355.46,698.92Z"/><path class="cls-6" d="M334.66,696.37c-0.91,1.92-1.44,4.17-2.79,5.69-3.86,4.35-4.3,9.13-.75,12.93a9,9,0,0,0,12.2.74c3.69-3.09,4-8,1.13-12.57a16.41,16.41,0,0,1-1.88-6.75c9.33,6,11.5,11.81,7.86,19a14.41,14.41,0,0,1-27.11-4.83C322.6,703.7,326.33,698,334.66,696.37Z"/><path class="cls-6" d="M880,560v-7h38v7H880Z"/><path class="cls-6" d="M880,513v-7h38v7H880Z"/><path class="cls-6" d="M1332,649v-7h40v7h-40Z"/><path class="cls-6" d="M1332,660v-7h40v7h-40Z"/><path class="cls-6" d="M1197,671h7v39h-7V671Z"/><path class="cls-6" d="M955,887v7H916v-7h39Z"/><path class="cls-6" d="M916,883v-8h39v8H916Z"/><path class="cls-6" d="M504,817h-7V777h7v40Z"/><path class="cls-6" d="M551,817h-7V777h7v40Z"/><path class="cls-6" d="M1353,237v7h-40v-7h40Z"/><path class="cls-6" d="M918,517v7H880v-7h38Z"/><path class="cls-6" d="M1313,291v-8h40v8h-40Z"/><path class="cls-6" d="M521,817V777h7v40h-7Z"/><path class="cls-6" d="M574,817h-7V777h7v40Z"/><path class="cls-6" d="M880,549v-9h38v9H880Z"/><path class="cls-6" d="M1332,673v-9h40v9h-40Z"/><path class="cls-6" d="M1181,710h-7V671h7v39Z"/><path class="cls-6" d="M1353,248v7h-40v-7h40Z"/><path class="cls-6" d="M1313,268v-8h40v8h-40Z"/><path class="cls-6" d="M918,495v7H880v-7h38Z"/><path class="cls-6" d="M1353,302h-40v-7h40v7Z"/><path class="cls-6" d="M1372,619v7h-40v-7h40Z"/><path class="cls-6" d="M1197,623h7v37h-7V623Z"/><path class="cls-6" d="M1215,660h-7V623h7v37Z"/><path class="cls-6" d="M1252,623v37h-7V623h7Z"/><path class="cls-6" d="M532,777h8v40h-8V777Z"/><path class="cls-6" d="M1174,623h7v37h-7V623Z"/><path class="cls-6" d="M1221,623h7v37h-7V623Z"/><path class="cls-6" d="M1252,710h-7V672h7v38Z"/><path class="cls-6" d="M1228,671v39h-7V671h7Z"/><path class="cls-6" d="M445,710v7H408v-7h37Z"/><path class="cls-6" d="M749,894H710v-7h39v7Z"/><path class="cls-6" d="M699,887v7H662v-7h37Z"/><path class="cls-6" d="M1359.25,767.12L1358,773.7a12.89,12.89,0,0,1-5.53-15.49,14.43,14.43,0,0,1,27.9,2.06c1.13,6.16-2.29,12.16-9.88,14.6a55.72,55.72,0,0,1,3-7.14c2.34-4,1.89-8.82-1.49-11.76a8.78,8.78,0,0,0-11.8.11c-3.49,3.16-3.81,7.06-.92,11.17A0.87,0.87,0,0,0,1359.25,767.12Z"/><path class="cls-6" d="M445,651v7H408v-7h37Z"/><path class="cls-6" d="M710,883v-8h39v8H710Z"/><path class="cls-6" d="M408,675h37v7H408v-7Z"/><path class="cls-6" d="M699,883H662v-8h37v8Z"/><path class="cls-6" d="M445,662v8H408v-8h37Z"/><path class="cls-6" d="M710,864h39v7H710v-7Z"/><path class="cls-6" d="M1208,671h7v39h-7V671Z"/><path class="cls-6" d="M1372,597v7h-40v-7h40Z"/><path class="cls-6" d="M445,706H408v-7h37v7Z"/><path class="cls-6" d="M682.46,864c0.14,1,.34,1.94.34,1.91,0.49-.49,1.42-2.19,2.44-2.26,4.76-.3,9.55-0.08,14.65-0.08,0.14,2.6.26,4.43,0.41,7.43H662v-7h20.46Z"/><path class="cls-6" d="M1313.56,272H1351v7h-37.07C1313.83,277,1313.71,275,1313.56,272Z"/><path class="cls-6" d="M955,863.9v7.46c-12,0-24.06,0-36-.07-0.93,0-2.56-.94-2.63-1.57-0.1-.91.93-1.94,1.32-2.64l-1.52-2.14c0.77-.49,1.56-1.41,2.32-1.39,5.78,0.16,11.55.61,17.33,0.75,3.22,0.08,6.48-.31,9.71-0.38S952,863.9,955,863.9Z"/><path class="cls-6" d="M1358.53,608.56l1.68-1.56,0.67,0.88c3.33-.41,6.26-1.05,9.49-1.45,0.39,2.82.71,5.57,1.09,7.57H1332v-7.41c6,2.36,15.29-3.89,20,4.78,0.16,0.06.23,0,.11,0a0.79,0.79,0,0,1-.4-0.07c-0.48-.9-0.88-1.82-1.34-2.74a34.07,34.07,0,0,1,5.7-1.37C1356.92,607.11,1357.89,608.18,1358.53,608.56Z"/><path class="cls-6" d="M1239,710h-7V671h7v39Z"/><path class="cls-6" d="M1332,637v-7h40v7h-40Z"/><path class="cls-6" d="M1192,710h-7V671h7v39Z"/><path class="cls-6" d="M1313,313v-6h40v6h-40Z"/><path class="cls-6" d="M1192,661h-7V623h7v38Z"/><path class="cls-6" d="M1239,661h-7V623h7v38Z"/><path class="cls-6" d="M918,483v7H880v-7h38Z"/><path class="cls-6" d="M562,817h-6V777h6v40Z"/><path class="cls-6" d="M517,817h-7V777h7v40Z"/><path class="cls-6" d="M445,639v7H408v-7h37Z"/><path class="cls-6" d="M408,694v-8h37v8H408Z"/><path class="cls-6" d="M915,529v7H880v-7h35Z"/><path class="cls-6" d="M946.67,472.68a8.93,8.93,0,1,1,8.68-9.12A9.06,9.06,0,0,1,946.67,472.68Z"/><path class="cls-6" d="M730.15,651.5a8.86,8.86,0,1,1-8.62-9.17A9,9,0,0,1,730.15,651.5Z"/><path class="cls-6" d="M808,651.22a8.86,8.86,0,1,1-8.89-8.91A9,9,0,0,1,808,651.22Z"/><path class="cls-6" d="M876.81,660.22a9,9,0,1,1,9-8.79A9.06,9.06,0,0,1,876.81,660.22Z"/><path class="cls-6" d="M1252.75,108.9a9,9,0,0,1-18,.16A9,9,0,0,1,1252.75,108.9Z"/><path class="cls-6" d="M946.56,610.18a8.94,8.94,0,1,1-9,8.86A9,9,0,0,1,946.56,610.18Z"/><path class="cls-6" d="M1321.49,117.86a9.11,9.11,0,0,1-8.85-9,9,9,0,0,1,17.95.24A9.13,9.13,0,0,1,1321.49,117.86Z"/><path class="cls-6" d="M1015.92,375.2a8.85,8.85,0,0,1-8.83,8.9,9.05,9.05,0,0,1-9.06-8.77,9.17,9.17,0,0,1,8.92-8.94A9,9,0,0,1,1015.92,375.2Z"/><path class="cls-6" d="M1084.75,366.39a9,9,0,0,1,9,8.78,8.84,8.84,0,0,1-8.8,8.93,9,9,0,0,1-9.09-8.73A9.18,9.18,0,0,1,1084.75,366.39Z"/><path class="cls-6" d="M1171.57,375a8.84,8.84,0,0,1-8.66,9.06,9,9,0,0,1-9.2-8.61,9.18,9.18,0,0,1,8.75-9.1A9,9,0,0,1,1171.57,375Z"/><path class="cls-6" d="M917.16,651.32a9,9,0,0,1-8.89,8.9,9,9,0,1,1,.1-17.9A9,9,0,0,1,917.16,651.32Z"/><path class="cls-6" d="M761.49,651.09a9,9,0,0,1-8.66,9.12,9,9,0,1,1-.35-17.9A9,9,0,0,1,761.49,651.09Z"/><path class="cls-6" d="M839.32,651.05a9,9,0,0,1-8.62,9.16,9,9,0,1,1-.43-17.9A9,9,0,0,1,839.32,651.05Z"/><path class="cls-6" d="M1116.09,366.4a9.17,9.17,0,0,1,9.12,8.74,9.06,9.06,0,0,1-8.86,9A8.86,8.86,0,1,1,1116.09,366.4Z"/><path class="cls-6" d="M946.41,641.54a8.85,8.85,0,0,1,8.94,8.8,9,9,0,0,1-8.78,9,9.12,9.12,0,0,1-9-8.85A8.93,8.93,0,0,1,946.41,641.54Z"/><path class="cls-6" d="M946.7,504a9.11,9.11,0,0,1-9.12-8.71,8.92,8.92,0,0,1,8.69-9.08,8.83,8.83,0,0,1,9.08,8.64A9,9,0,0,1,946.7,504Z"/><path class="cls-6" d="M1029.5,375.24a8.91,8.91,0,0,1,8.91-8.85,9.17,9.17,0,0,1,9,8.9,9.06,9.06,0,0,1-9,8.81A8.85,8.85,0,0,1,1029.5,375.24Z"/><path class="cls-6" d="M955.35,572.88a8.88,8.88,0,1,1-17.76-.3,8.92,8.92,0,0,1,9-8.72A8.83,8.83,0,0,1,955.35,572.88Z"/><path class="cls-6" d="M1284.11,109a9.15,9.15,0,0,1-9,8.85,8.86,8.86,0,0,1,.07-17.72A9,9,0,0,1,1284.11,109Z"/><path class="cls-6" d="M1193.92,384.11a8.84,8.84,0,0,1-8.74-9c0.07-5,3.84-8.52,9-8.53A8.75,8.75,0,1,1,1193.92,384.11Z"/><path class="cls-6" d="M955.35,541.21a8.88,8.88,0,0,1-17.76.61c-0.21-4.92,4-9.19,9.22-9.27C951.06,532.47,955.25,536.72,955.35,541.21Z"/><path class="cls-6" d="M1361.62,108.61c-0.14,5.57-3.72,9.34-8.8,9.25-5.27-.08-8.64-4.11-8.47-10.12,0.12-4.16,4.21-7.68,8.8-7.59A8.44,8.44,0,0,1,1361.62,108.61Z"/><path class="cls-6" d="M1379,441h8.67c0.91,5,1.33,5-8.67,4.7V441Z"/><path class="cls-6" d="M1363,446v-5h7.55c0.07,2,.14,3,0.22,5H1363Z"/><path class="cls-6" d="M334.22,698.52l2.19-1.12-2.4-1.53c7.09-2.45,8.74-1.37,7.75,4.74l-7.46-1.07C334.28,699.2,334.25,698.86,334.22,698.52Z"/><path class="cls-6" d="M354.71,695.15l7.27,1c-0.12,1.45.18,4.07-.48,4.34-1.58.65-4,.81-5.33,0C355.13,699.77,355.23,697.32,354.71,695.15Z"/><path class="cls-6" d="M1359,439.27v7.17c-3-.94-5.25-1.74-7.67-2.53A73.74,73.74,0,0,1,1359,439.27Z"/><path class="cls-6" d="M190.48,106.31c-2,1.44-4.57,4.48-5.92,4-4.53-1.55-9.63-3.45-12.69-6.86-6.25-7-4-18.27,3.7-23.69,8-5.62,19-3.74,24,4.64,1.95,3.21,4.05,3.94,7.45,3.94q211.88-.1,423.76,0c3.34,0,5.55-.54,7.46-3.87,3.92-6.81,12-9.38,19.38-7a17,17,0,0,1-.49,32.57c-7.14,2.09-15.12-.63-18.92-7.19-1.76-3-3.64-3.8-6.9-3.8q-212.4.11-424.8,0c-3.35,0-5,1.14-7,3.8-2.11,2.84-5.6,4.72-8.66,6.75-0.5.33-1.89-.68-2.87-1.07l1.41-2.89Z"/><path class="cls-6" d="M631,8.81V29.57c0-.28-1.18-0.56-1.65-0.84-1.47,1.91-4.21,3.81-4.21,5.72s2.8,3.82,4.27,5.72c0.47-.28,1.59-0.56,1.59-0.84V80H475.51c-0.14-2-.4-3-0.4-4.3,0-20.71,0-41.6-.07-62.3,0-3.28.48-5,4.44-5,49.1,0.12,98.45,0,147.55.06A28.77,28.77,0,0,1,631,8.81ZM621,19H485V69H621V19Z"/><path class="cls-6" d="M291,435.67L182.23,544.25,132.85,495,187,441l3.15,5.22c-0.82-.86-2.06-1.6-2-2.25,0.07-1,1.05-1.86,1.51-2.57-0.22-.67-1.23-2.17-0.83-2.83,0.95-1.58,2.55-2.78,3.9-4.12q23.47-23.43,47-46.84a16.82,16.82,0,0,1,1.76-1.39Zm-94.89,5.12c0.87,3.52-1,6.69-4.28,9.86-15.09,14.69-29.94,29.62-44.51,44.1l35.29,35.15,93.56-93.38-35.86-35.78-43.84,45.42Z"/><path class="cls-6" d="M137,375H66V220h71V375ZM126,231H76.71c-0.2,1-.37,1-0.37,1.32q0,64.17-.13,128.29c0,3.79,1.92,4.13,4.85,4.09,6.65-.08,13.31,0,20.31,0,0.13,1.75.25,3.51,0.33,4.55l0.57-4.92c6.09,0,11.9-.13,17.7.12,1,0,2,1.63,2.77,2.3,6.52-5.4,3.09-13.71,3.15-21.12,0.32-36.22.1-72.45,0.1-108.67V231Z"/><path class="cls-6" d="M42.74,196l2.44,8.36c-0.33-.46-1.51-1.41-1.35-2,0.26-1,1.38-1.74,1.79-2.2l-1.84-2.45c1-.39,2-1.17,2.88-1.07a6.43,6.43,0,0,1,3.22,1.52c8.73,7.34,12.54,20.12-1.24,29.44-1.5,1-2.45,3.88-2.46,5.89-0.14,40.73-.07,81.46-0.19,122.19,0,2.32-1.4,4.61-1.88,7-0.37,1.82-1.17,4.37-.32,5.47,4.19,5.46,1.79,11.57,2.16,17.34,0.2,3.19.78,5.19,3.8,7A16.3,16.3,0,0,1,57,411.23,16.76,16.76,0,0,1,40.35,423.5a16.7,16.7,0,0,1-16.11-12.26c-2.1-7.28.51-15,7.18-18.84,3.3-1.89,3.92-4.08,3.92-7.46q-0.12-75.58,0-151.15c0-3.47-.9-5.49-4.07-7.37A16.46,16.46,0,0,1,24.73,206,16.21,16.21,0,0,1,42.74,196Z"/><path class="cls-6" d="M-1,1180.46v-499c8-.33,13.38,4,15.74,10.87,2.49,7.27-.11,15.66-6.74,19.54-3.39,2-4.22,4.15-4.22,7.79q0.13,211.28,0,422.55c0,3.61.73,5.81,4.14,7.8,6.65,3.87,9.33,12.26,6.86,19.53C12.41,1176.44,7,1180.71-1,1180.46Z"/><path class="cls-6" d="M359.1,424.27c-13.92-13.85-27.43-27.43-41.21-40.75-1-1-4-.59-5.87-0.1-7.56,2-15.56-2.24-17.73-9.59a14.29,14.29,0,0,1,9.73-18,13.79,13.79,0,0,1,17.56,9.44,15.3,15.3,0,0,1-.17,9c-1.26,3.18-.15,4.64,1.81,6.59q21,20.8,41.85,41.73a12.66,12.66,0,0,1,.9,1L169.5,619.8c-5.92-5.94-12.46-12.53-19-19.09-8.06-8.07-16.05-16.21-24.31-24.07a6.91,6.91,0,0,0-5.6-1.25c-7.35,1.94-14-.28-17.57-6.35a14.43,14.43,0,0,1,2.44-17.6,14.66,14.66,0,0,1,17.29-2c6,3.53,8.35,10.36,6.24,17.56-0.41,1.39-.6,3.67.2,4.47,13.55,13.78,27.27,27.39,41.13,41.21ZM317,369.38a9.15,9.15,0,0,0-9.12-8.76,8.94,8.94,0,0,0,.38,17.88A9.12,9.12,0,0,0,317,369.38ZM124.25,562.53a9,9,0,0,0-8.12-9.61,9.14,9.14,0,0,0-9.62,8.17,8.91,8.91,0,0,0,8.19,9.51A8.73,8.73,0,0,0,124.25,562.53Z"/><path class="cls-6" d="M322.19,431.84c-8.32-8.3-17.4-17.51-26.73-26.46-0.87-.84-3.38-0.45-5,0-8.19,2.33-16.11-1.8-18.45-9.82a14.34,14.34,0,1,1,27.85-6.82c0.43,2.11.62,4.74-.26,6.56-1.91,3.94-.28,6.15,2.41,8.76,9.65,9.37,19.09,19,28.23,28.07l-153,152.7c-2.92-3.4-6.19-7.57-9.85-11.38-6.1-6.36-12.52-12.41-18.63-18.76-2-2.12-3.69-2.65-6.65-1.53-5.67,2.14-11,.72-15.12-3.77a13.43,13.43,0,0,1-3-14.41,10.54,10.54,0,0,1,1.95-2.54l0.63,0.75c3.06-6.93,8.88-9.49,15.9-7s11.34,10.22,8.81,17.08c-1.49,4-.34,6.12,2.36,8.75,8.3,8.06,16.36,16.37,24,24Zm-27.32-40.17a9,9,0,1,0-9,8.91A9.07,9.07,0,0,0,294.87,391.67ZM137.15,548.61a9.21,9.21,0,0,0,9.43-8.44,9,9,0,0,0-8.51-9.28,8.8,8.8,0,0,0-9.34,8.36A9,9,0,0,0,137.15,548.61Z"/><path class="cls-6" d="M411.83,155c0.25-2,.37-2.49.56-3.48a14.27,14.27,0,0,1,13.68-11.88,14.59,14.59,0,0,1,14.2,10.06,14.45,14.45,0,0,1-6.75,16.91c-5.87,3.26-13,2.38-17.45-2.85-2.19-2.59-4.43-3.21-7.54-3.2-29.56.08-59.12,0-88.67,0.19a12.88,12.88,0,0,0-8,3.24c-10.61,10.14-21,20.54-31.17,31.1a11.31,11.31,0,0,0-3,7.06c-0.19,36.06-.1,72.11-0.19,108.17,0,2.93.73,4.46,3.63,5.78a13.92,13.92,0,0,1,7.62,16.42,14.59,14.59,0,0,1-14.2,10.76,14.4,14.4,0,0,1-13.63-10.76c-1.74-6.7,1.06-13.53,7.52-16.42,3.17-1.41,3.77-3.16,3.76-6.24-0.09-36.4,0-72.8-.13-109.21a10.85,10.85,0,0,1,3.53-8.6q16.52-16.08,32.62-32.58A13.05,13.05,0,0,1,318.52,155c29,0.2,58.08,0,87.12,0h6.2Zm23.58-.67a8.89,8.89,0,1,0-9.13,8.7A9.05,9.05,0,0,0,435.41,154.33ZM275,319.93a9,9,0,0,0-9.07,8.73,8.73,8.73,0,0,0,8.66,9,9,9,0,0,0,9.15-8.62A9.19,9.19,0,0,0,275,319.93Z"/><path class="cls-6" d="M446,328H344V226H446V328Zm-97-96v90h92V232H349Z"/><path class="cls-6" d="M226.31,373.36c-9.48-9.09-18.84-18.25-28.51-27.1-1.13-1-4-.8-5.85-0.35-6.41,1.55-12.83-.75-16.25-6.2A14.38,14.38,0,0,1,193.84,319a14,14,0,0,1,7.53,17.77c-1.29,3.33-.31,4.9,1.86,7,10.26,9.74,20.41,19.6,31,29.76-2.24,2.34-3.61,3.82-5,5.23q-54.64,54.55-109.32,109c-2.38,2.37-3.63,4.17-2.19,7.92,2.41,6.3-.68,13.17-6.36,16.45a14.7,14.7,0,0,1-17.65-2.48A14.42,14.42,0,0,1,91.91,492a14,14,0,0,1,16.76-5.75c2.61,1,4.17.93,6.26-1.16q54.35-54.47,108.86-108.77C224.39,375.68,224.9,375,226.31,373.36ZM188,340.93a8.8,8.8,0,0,0,8.74-9,8.87,8.87,0,1,0-17.74.22A8.9,8.9,0,0,0,188,340.93Zm-75.13,159a8.94,8.94,0,0,0-8.6-9.15,9.18,9.18,0,0,0-9.19,8.67,8.92,8.92,0,0,0,8.7,9A8.67,8.67,0,0,0,112.86,499.93Z"/><path class="cls-6" d="M394.49,50.46a14.48,14.48,0,0,1-11,14c-6.19,1.62-13-1-15.79-6.9-1.72-3.69-3.89-4.33-7.53-4.32q-77.5.16-155,0c-3.34,0-5.56.33-7.2,4-2.77,6.19-9.76,8.87-16.13,7.14a14.31,14.31,0,0,1-.07-27.73c6.38-1.76,13.36.87,16.17,7,1.64,3.59,3.76,4.08,7.15,4.08q77.49-.12,155,0c3.57,0,5.86-.45,7.57-4.25,2.65-5.86,9.67-8.49,15.7-6.86C390.1,38.5,394.47,43.91,394.49,50.46Zm-13.85-8.87a8.93,8.93,0,0,0-1.23,17.82A8.93,8.93,0,0,0,380.64,41.59ZM185.51,59.45a9.25,9.25,0,0,0,8.91-9,9.24,9.24,0,0,0-9-8.9A8.94,8.94,0,0,0,185.51,59.45Z"/><path class="cls-6" d="M608.42,197.41c4.26,0.12,8.77,3,11.34,8.41s1.68,10.51-2.06,15c-3.92,4.73-9.32,6.48-14.92,4.45-4-1.44-5.84-.1-8.32,2.38q-54.73,54.79-109.62,109.42c-2.38,2.36-3.57,4.1-2.12,7.85,2.44,6.3-.7,13.16-6.41,16.46a14.42,14.42,0,0,1-17.62-2.44,14.62,14.62,0,0,1-2-17.25c3.4-5.71,10.21-8.73,16.5-6.28,3.77,1.47,5.58.15,7.92-2.21q25.57-25.72,51.3-51.28,29.5-29.45,59.06-58.84c2.29-2.26,2.68-4,1.65-7.11C590,206.57,596.76,197.45,608.42,197.41Zm7.25,14.11a9.12,9.12,0,0,0-9.12-8.74,8.86,8.86,0,1,0,.25,17.72A9.1,9.1,0,0,0,615.67,211.52ZM469,340.13a8.9,8.9,0,0,0-8.83,8.92,8.89,8.89,0,1,0,17.77-.1A8.91,8.91,0,0,0,469,340.13Z"/><path class="cls-6" d="M209.7,609.87c-1.91-5.45-.57-8.25,2.33-11.14Q300.16,511,388.16,423.12c2.65-2.64,4-4.74,2.49-8.77-2.25-6.08.82-12.69,6.41-15.94a14.36,14.36,0,0,1,19.76,19.53c-3.26,5.62-9.8,8.79-15.94,6.52-4.34-1.61-6.45,0-9.21,2.73q-87.74,87.76-175.6,175.4C214,604.62,212.27,606.92,209.7,609.87ZM404.52,401.82a9,9,0,0,0-9,8.79,8.72,8.72,0,0,0,8.76,8.93,9,9,0,0,0,9.09-8.66A9.21,9.21,0,0,0,404.52,401.82Z"/><path class="cls-6" d="M36,175V132H78v43H36Zm29.78-21a9.21,9.21,0,0,0-9-8.91,9,9,0,0,0,.08,17.9A9.21,9.21,0,0,0,65.78,154Z"/><path class="cls-6" d="M618,114v42H573V139c0-7.07.2-14.14,0.47-21.2,0-1.31,2.47-3.64,3.44-3.66C590.17,113.94,602,114,618,114Zm-22.78,12.91a8.68,8.68,0,0,0-8.65,9,8.91,8.91,0,0,0,9,8.72,9.17,9.17,0,0,0,8.77-9.08A9,9,0,0,0,595.22,126.93Z"/><path class="cls-6" d="M699,55H657V12h42V55ZM687.37,33.79a9.08,9.08,0,0,0-9.06-9.22,8.78,8.78,0,0,0-8.71,8.92,8.59,8.59,0,0,0,8.7,8.79C683.23,42.34,687.4,38.44,687.37,33.79Z"/><path class="cls-6" d="M69,446H-1.19c-0.14-2-.26-3-0.41-5H75v5.53q0,59.48.15,119c0,3.57-.78,6.26-3.53,8.57-2.37,2-4.29,4.5-6.65,6.51-4,3.45-6.73,6.56-4.56,12.87,2.07,6-2.4,12.51-8.25,15a14.38,14.38,0,0,1-17.79-21c3.54-5.43,10.11-8.06,16.27-5.74,3.36,1.27,5,.06,7.53-1.84,9.59-7.15,11.78-16.23,11.48-28.07C68.82,518.89,69,485.93,69,453v-7ZM46.6,586.36a8.92,8.92,0,0,0-9,8.76,8.76,8.76,0,0,0,8.7,9,9,9,0,0,0,9.09-8.68A9.15,9.15,0,0,0,46.6,586.36Z"/><path class="cls-6" d="M500.4,156H457V114h15.76c8.06,0,16.21-.08,24.26.18,1.12,0,3.17,1.3,3.18,2.29C500.42,129.71,500.4,143,500.4,156Zm-12.91-20.07a8.76,8.76,0,0,0-8.69-9,8.9,8.9,0,0,0-9.09,8.64,9.1,9.1,0,0,0,8.74,9.08A9,9,0,0,0,487.48,135.93Z"/><path class="cls-6" d="M558,114v42H516V114h42Zm-20.75,12.93a9,9,0,0,0-9.19,8.58A9,9,0,0,0,546,136,9,9,0,0,0,537.25,126.93Z"/><path class="cls-6" d="M79,678v44H36.12c0-11,0-22.21,0-33,0-10.46,0-11,10.66-11H79ZM44.92,693c-2.08,3.9-2.25,7,.46,8.45a17.16,17.16,0,0,1,5.17,3.92c3.48,4.29,9.2,5.08,13.23,1.49a9.17,9.17,0,0,0,.67-13c-3.37-3.52-9.82-3.06-13.43.63a13,13,0,0,1-5,2.65,2.62,2.62,0,0,1-2.11-1.46C43.74,694.89,44.53,693.91,44.92,693Z"/><path class="cls-6" d="M7,499.41c-4-.19-6-0.36-8-0.56V483H24v77H-1V542.81c2-.17,4-0.34,8-0.55V499.41Z"/><path class="cls-6" d="M60.25,793.85c0.15,6.59,1.21,11.45.14,15.79-1.79,7.27-10.26,11-17.48,8.78a14.3,14.3,0,0,1-9.68-17.58c2.13-7.41,9.55-12.16,16.84-10,3.64,1.07,5.51.16,7.78-2.46q21.36-24.67,43-49.09c1.89-2.13,2.6-3.75,1.24-6.72A13.87,13.87,0,0,1,107,715.18a14.35,14.35,0,0,1,17.74,1.11,14.56,14.56,0,0,1,3.14,17.51c-3.19,6-9.79,8.55-16.81,7.1-1.72-.35-4.46.27-5.55,1.49C89.92,759.9,74.49,777.6,60.25,793.85Zm55-57.87a9.09,9.09,0,0,0,8.79-9.05,8.89,8.89,0,0,0-17.78.19A9.1,9.1,0,0,0,115.28,736Z"/><path class="cls-6" d="M48.16,965.14c6.89,4.26,9.78-2.24,13.58-6.56,12.89-14.65,25.7-29.36,38.64-44,2.07-2.35,3.19-4.14,1.58-7.56-2.87-6.12-.47-13.17,4.91-17A14.4,14.4,0,0,1,125,891.3a14.64,14.64,0,0,1,3,17.12,13.83,13.83,0,0,1-16.63,7c-3.2-1-4.62.1-6.45,2.2q-21.6,24.81-43.4,49.43c-2.1,2.37-2.56,4.05-1.16,7.1a13.79,13.79,0,0,1-4.46,16.67,14.36,14.36,0,0,1-22.4-16C35.55,968.88,41,965,48.16,965.14ZM56,979.59a9.1,9.1,0,0,0-8.77-9.07,9.33,9.33,0,0,0-9.1,8.84,9.09,9.09,0,0,0,8.87,9A8.89,8.89,0,0,0,56,979.59Z"/><path class="cls-6" d="M115.87,771a13.5,13.5,0,0,1,12.29,8.23,13.75,13.75,0,0,1-1.79,15.08c-3.68,4.63-8.83,6.49-14.33,4.83-3.82-1.15-5.57.17-7.77,2.7q-21.37,24.62-43,49.05c-1.69,1.91-2.63,3.32-1.25,6.19a14.1,14.1,0,0,1-4.47,17.53,14.61,14.61,0,0,1-17.79-.65,14.84,14.84,0,0,1-3.35-17.82,13.84,13.84,0,0,1,16.29-6.89c3,0.87,4.6.29,6.54-1.94q21.71-25,43.67-49.82c1.93-2.18,2.34-3.81,1.11-6.73C97.92,781,105,770.79,115.87,771ZM47,854.13A9.11,9.11,0,0,0,38,863.08a9.25,9.25,0,0,0,9.13,8.79,8.9,8.9,0,0,0,8.77-9A8.75,8.75,0,0,0,47,854.13Z"/><path class="cls-6" d="M116.76,829.26c4.31,0.11,8.79,2.69,11.31,8a13.7,13.7,0,0,1-1.56,15.11c-3.62,4.65-8.68,6.65-14.26,5-3.68-1.09-5.56-.1-7.82,2.51q-21.66,25-43.61,49.75c-1.81,2-1.68,3.47-.63,5.83a14,14,0,0,1-4.74,17.47,14.63,14.63,0,0,1-17.8-.84,14.4,14.4,0,0,1-3.61-17,13.89,13.89,0,0,1,16.39-7.72c3.54,1,5.25,0,7.36-2.46,10.14-11.77,20.45-23.41,30.69-35.1,4.19-4.78,8.29-9.65,12.62-14.3,1.89-2,2.17-3.6,1-6.3C98,839.4,104.74,829.26,116.76,829.26Zm7.33,14.29a8.89,8.89,0,1,0-17.79,0A8.89,8.89,0,0,0,124.08,843.55Z"/><path class="cls-6" d="M209.35,604.6c-1.27,2.83-1.91,6.25-3.93,8.37q-13.92,14.62-28.58,28.54a12.36,12.36,0,0,1-7.59,3.12q-58,1.21-116.07,1.91c-3.8,0-6.17.75-7.92,4.66-2.65,5.9-9.57,8.53-15.78,7a14.33,14.33,0,0,1-.54-27.77c6.55-1.81,13.4.61,16.27,6.77,1.69,3.62,3.89,4,7.21,3.93q56.74-1,113.48-1.72a12.83,12.83,0,0,0,9.92-4.32c10.22-10.71,20.71-21.17,31.09-31.72ZM24.06,644.46a9,9,0,0,0,9.06,8.71A9.18,9.18,0,0,0,41.82,644a8.86,8.86,0,0,0-9.16-8.58A8.64,8.64,0,0,0,24.06,644.46Z"/><path class="cls-6" d="M500.31,281c-7.13,7-14.58,13.9-21.72,20.84-5.18,5-10.58,10-16.58,15.69V311.6c0-33.11.29-66.23,0.37-99.34,0-3.16-.24-5.2-3.68-6.73-6.24-2.78-8.95-9.66-7.31-16a14.46,14.46,0,0,1,28,0A14,14,0,0,1,472,205.63c-2.27,1.16-3.89,2-3.88,5.11,0.15,30.15.09,60.31,0.11,90.46a11.86,11.86,0,0,0,.2,1.7l29.62-29.22c1,3.24,1.63,5.31,2.25,7.31h0Zm-43.85-88.18a9,9,0,1,0,9.09-8.76A9.06,9.06,0,0,0,456.46,192.82Z"/><path class="cls-6" d="M340,204.95c-8.19,8.37-16.48,16.64-24.48,25.19a10.88,10.88,0,0,0-2.82,6.67c-0.2,24.49-.09,49-0.17,73.47,0,2.9.68,4.51,3.61,5.84a13.83,13.83,0,0,1,7.71,15.9,14.4,14.4,0,0,1-28.12,0,13.74,13.74,0,0,1,7.69-15.9c3.28-1.45,3.62-3.39,3.62-6.36-0.08-24.84-.14-49.67.09-74.51a12.38,12.38,0,0,1,3.11-7.57c6.33-6.84,13.24-13.13,19.63-19.91,2.81-3,5.75-4.16,9.63-3.12Zm-30.07,115a9.24,9.24,0,0,0-9.14,8.77,9,9,0,0,0,17.95.32A9.19,9.19,0,0,0,309.93,319.93Z"/><path class="cls-6" d="M237,212.13c0-19.48-.05-39,0.06-58.44,0-3-.45-4.84-3.68-6.26-6.44-2.84-9.25-9.61-7.63-16.4a14.39,14.39,0,0,1,27.85-.09c1.67,6.77-1.13,13.58-7.52,16.46-3.11,1.4-3.78,3.08-3.77,6.2q0.15,58.18,0,116.36c0,2.31,1.82,6.46-2.52,6.53s-2.66-4.1-2.68-6.44C237,250.75,237,231.44,237,212.13Zm11.57-77.59a8.89,8.89,0,0,0-17.78.25A8.89,8.89,0,1,0,248.61,134.55Z"/><path class="cls-6" d="M500.32,281c-2-3-1.48-7.36,1.81-10.68,21.75-22,43.36-44.08,65.1-66.07,2-2.06,2.69-3.59,1.5-6.61a13.86,13.86,0,0,1,6.08-17,14.37,14.37,0,0,1,19.84,19.51,13.92,13.92,0,0,1-17,6.32c-3.1-1.15-4.65-.37-6.64,1.67q-29.16,29.83-58.41,59.57C508.38,272,504.4,277,500.31,281h0Zm90.76-88.06a8.9,8.9,0,1,0-8.92,8.86A9,9,0,0,0,591.09,192.94Z"/><path class="cls-6" d="M31,475H-1.24c-0.1-2-.19-3-0.29-5H36V572H-1v-5H31V475Z"/><path class="cls-6" d="M20,132v43H-1V163.46c4-1.33,8.12-3.76,8.15-9.32S3,146.09-2,144.69V132H20Z"/><path class="cls-6" d="M343.11,201.07c-1.48-7,1.5-10.81,8.93-10.82,19.86,0,39.73,0,59.47,0,6.05-10.25,11.43-13.32,19.18-11.1a14.41,14.41,0,0,1-.52,27.68c-7.77,1.87-13.31-1.44-18.43-11.21-19.73,0-39.59-.22-59.44.24C349.29,195.92,346.35,199.14,343.11,201.07Zm83.39-17a8.88,8.88,0,1,0,8.92,8.86A9,9,0,0,0,426.5,184Z"/><path class="cls-6" d="M167.59,179.92a14.36,14.36,0,0,1-14.42,14.46,14.4,14.4,0,0,1-.12-28.8A14.36,14.36,0,0,1,167.59,179.92Z"/><path class="cls-6" d="M192,163.08a14.37,14.37,0,1,1,14.46-14.41A14.32,14.32,0,0,1,192,163.08Z"/><path class="cls-6" d="M128.66,148.78a14.34,14.34,0,1,1-14.37-14.45A14.35,14.35,0,0,1,128.66,148.78Z"/><path class="cls-6" d="M242,277.37v36.87c8,2.61,11.73,6.65,11.9,14.3a14,14,0,0,1-11.5,14.38,14.29,14.29,0,0,1-16.18-9c-2.46-6.58-.09-14.44,6.32-17.28,4.33-1.92,4.64-4.55,4.56-8.38-0.19-8.78-.19-17.56-0.17-26.35C236.92,279,237,276.11,242,277.37Zm-2.47,60.32a8.81,8.81,0,0,0,9.08-8.64,8.89,8.89,0,1,0-17.78-.38A8.81,8.81,0,0,0,239.53,337.69Z"/><path class="cls-6" d="M115.06,662.68a11.74,11.74,0,0,1,11.87,11.69,11.75,11.75,0,0,1-23.49.25A11.74,11.74,0,0,1,115.06,662.68Z"/><path class="cls-6" d="M272.72,362.12a11.61,11.61,0,1,1-11.55-11.4A11.36,11.36,0,0,1,272.72,362.12Z"/><path class="cls-6" d="M494.25,223.68a14.4,14.4,0,0,1,.69,28.79A14.4,14.4,0,1,1,494.25,223.68Zm0.2,23.4a9.31,9.31,0,0,0,9-8.94,9,9,0,0,0-17.92,0A9.26,9.26,0,0,0,494.45,247.07Z"/><path class="cls-6" d="M167.59,148.65a14.36,14.36,0,0,1-14.45,14.42,14.37,14.37,0,0,1-.06-28.73A14.25,14.25,0,0,1,167.59,148.65Zm-5.38-.07a9.24,9.24,0,0,0-9-8.84,9,9,0,0,0-8.79,9,8.73,8.73,0,0,0,9,8.72A9,9,0,0,0,162.21,148.58Z"/><path class="cls-6" d="M131,631.05a14.3,14.3,0,1,1,.39-28.59A14.3,14.3,0,1,1,131,631.05ZM140,616.53a9,9,0,0,0-9.09-8.69,9.14,9.14,0,0,0-8.74,9.1,9,9,0,0,0,9.16,8.59A8.73,8.73,0,0,0,140,616.53Z"/><path class="cls-6" d="M531,215.87a14.34,14.34,0,1,1-28.68,0A14.34,14.34,0,0,1,531,215.87Zm-5.39.27a9.21,9.21,0,0,0-8.75-9.11,8.93,8.93,0,0,0-9,8.75,8.67,8.67,0,0,0,8.65,9A9,9,0,0,0,525.58,216.14Z"/><path class="cls-6" d="M744.77,25.44a14.31,14.31,0,1,1-28.62.22A14.31,14.31,0,0,1,744.77,25.44Zm-14.13,9.17a8.93,8.93,0,1,0-9-8.8A9.08,9.08,0,0,0,730.64,34.62Z"/><path class="cls-6" d="M114.12,616.83a14.34,14.34,0,1,1-14.42-14.39A14.22,14.22,0,0,1,114.12,616.83Zm-5.53.13a8.94,8.94,0,0,0-8.63-9.12,9.1,9.1,0,0,0-9.14,8.68,8.86,8.86,0,0,0,8.71,9A8.69,8.69,0,0,0,108.6,617Z"/><path class="cls-6" d="M322.91,169.64A14.47,14.47,0,0,1,337.45,184c0,7.94-6.28,14.08-14.61,14.27a14.14,14.14,0,0,1-14.19-14A14.37,14.37,0,0,1,322.91,169.64Zm0.3,23.22a8.77,8.77,0,0,0,8.64-9.07A9.05,9.05,0,0,0,322.8,175a9.33,9.33,0,0,0-8.75,9.19A9,9,0,0,0,323.22,192.86Z"/><path class="cls-6" d="M315.14,206.27a14.06,14.06,0,0,1-14.54,14.18,14.24,14.24,0,0,1-14.13-14.17,14.51,14.51,0,0,1,14.38-14.57A14.3,14.3,0,0,1,315.14,206.27Zm-5.38-.2a8.89,8.89,0,0,0-17.77.19A8.89,8.89,0,1,0,309.75,206.07Z"/><path class="cls-6" d="M114.2,165.58A14.4,14.4,0,1,1,100,180.23,14.32,14.32,0,0,1,114.2,165.58Zm0,5.44a9,9,0,0,0,.17,17.9A9,9,0,0,0,114.23,171Z"/><path class="cls-6" d="M206.5,179.91A14.34,14.34,0,1,1,192,165.58,14.33,14.33,0,0,1,206.5,179.91Zm-5.52-.15a9,9,0,0,0-9-8.73,8.95,8.95,0,0,0,.44,17.89A8.93,8.93,0,0,0,201,179.76Z"/><path class="cls-6" d="M421,11h38v7H421V11Z"/><path class="cls-6" d="M215,267v39h-7V267h7Z"/><path class="cls-6" d="M168,306h-7V267h7v39Z"/><path class="cls-6" d="M459,58v8H421V58h38Z"/><path class="cls-6" d="M180,256h-8V217.92c3-.12,5-0.24,8-0.38V256Z"/><path class="cls-6" d="M161,218h7v38h-7V218Z"/><path class="cls-6" d="M208,218h7v38h-7V218Z"/><path class="cls-6" d="M220,218h7v38h-7V218Z"/><path class="cls-6" d="M180,306h-8V267h8v39Z"/><path class="cls-6" d="M367,339h8v39h-8V339Z"/><path class="cls-6" d="M421,53V46h38v7H421Z"/><path class="cls-6" d="M459,0V7H421V0h38Z"/><path class="cls-6" d="M415,378V340h7v38h-7Z"/><path class="cls-6" d="M197,218h7v38h-7V218Z"/><path class="cls-6" d="M434,340v38h-7V340h7Z"/><path class="cls-6" d="M404,339h7v39h-7V339Z"/><path class="cls-6" d="M150,267h7v39h-7V267Z"/><path class="cls-6" d="M421,23h38v7H421V23Z"/><path class="cls-6" d="M82,105V67h9v38H82Z"/><path class="cls-6" d="M102,105H95V68h7v37Z"/><path class="cls-6" d="M137,105h-7V67h7v38Z"/><path class="cls-6" d="M459,71v7H421V71h38Z"/><path class="cls-6" d="M150,218h7v38h-7V218Z"/><path class="cls-6" d="M106,67h7v38h-7V67Z"/><path class="cls-6" d="M59,67h8v38H59V67Z"/><path class="cls-6" d="M380,339h7v39h-7V339Z"/><path class="cls-6" d="M356,339h7v39h-7V339Z"/><path class="cls-6" d="M227,306h-7V267h7v39Z"/><path class="cls-6" d="M197,267h7v39h-7V267Z"/><path class="cls-6" d="M78,105H71V67h7v38Z"/><path class="cls-6" d="M118,105V67h7v38h-7Z"/><path class="cls-6" d="M459,34v7H421V34h38Z"/><path class="cls-6" d="M192,256h-8V218h8v38Z"/><path class="cls-6" d="M391,339h7v39h-7V339Z"/><path class="cls-6" d="M186.65,381.86a9,9,0,0,1-9.14-8.65,8.79,8.79,0,0,1,8.66-9,9,9,0,0,1,9.22,8.57A9.17,9.17,0,0,1,186.65,381.86Z"/><path class="cls-6" d="M677.63,138.88a8.94,8.94,0,0,1-8.87,8.92,9.18,9.18,0,0,1-9-8.89,8.93,8.93,0,0,1,9-8.81A8.72,8.72,0,0,1,677.63,138.88Z"/><path class="cls-6" d="M732.77,84.08a9,9,0,0,1-17.92-.24A9,9,0,0,1,732.77,84.08Z"/><path class="cls-6" d="M290.54,133.51a9,9,0,0,1-8.79,9,9.31,9.31,0,0,1-9.07-8.84,9,9,0,0,1,8.9-8.9A8.77,8.77,0,0,1,290.54,133.51Z"/><path class="cls-6" d="M359.72,142.53a9.33,9.33,0,0,1-9.21-8.7,9,9,0,0,1,8.76-9,8.77,8.77,0,0,1,9.1,8.58A9,9,0,0,1,359.72,142.53Z"/><path class="cls-6" d="M646.71,169.78a8.7,8.7,0,0,1-9-8.67,8.86,8.86,0,1,1,17.72-.23A8.63,8.63,0,0,1,646.71,169.78Z"/><path class="cls-6" d="M131.46,436.81a9,9,0,0,1-9-8.82,8.78,8.78,0,0,1,8.8-8.9,9,9,0,0,1,9.07,8.72A9.2,9.2,0,0,1,131.46,436.81Z"/><path class="cls-6" d="M109.3,441.11a8.88,8.88,0,0,1,8.74,9,8.73,8.73,0,0,1-9,8.72,8.93,8.93,0,0,1-8.81-8.95A9.08,9.08,0,0,1,109.3,441.11Z"/><path class="cls-6" d="M322,133.36a9.32,9.32,0,0,1-8.73,9.17,9.13,9.13,0,0,1-9.14-8.7,8.79,8.79,0,0,1,8.66-9A9,9,0,0,1,322,133.36Z"/><path class="cls-6" d="M390.71,142.53a9.11,9.11,0,0,1-8.74-9.08,8.78,8.78,0,0,1,9.05-8.65,9,9,0,0,1,8.83,9A9.34,9.34,0,0,1,390.71,142.53Z"/><path class="cls-6" d="M765.51,50.93a8.74,8.74,0,0,1-8.65,9,8.9,8.9,0,0,1-9.12-8.63,9,9,0,0,1,8.71-9.1A8.89,8.89,0,0,1,765.51,50.93Z"/><path class="cls-6" d="M787.8,28.78a9,9,0,0,1-17.92.5A9,9,0,0,1,787.8,28.78Z"/><path class="cls-6" d="M710.5,106.14a8.74,8.74,0,0,1-8.94,8.74,8.84,8.84,0,0,1-8.83-8.89A8.89,8.89,0,1,1,710.5,106.14Z"/><path class="cls-6" d="M164.2,403.87a8.93,8.93,0,0,1-8.94-8.82,9.19,9.19,0,0,1,9-8.9,9,9,0,0,1,8.84,8.93A8.65,8.65,0,0,1,164.2,403.87Z"/><path class="cls-6" d="M29.8,117.87a8.86,8.86,0,0,1,0-17.72,9,9,0,0,1,9,8.84A9.15,9.15,0,0,1,29.8,117.87Z"/><path class="cls-6" d="M184,267h8.21c-1,2-1.45,3.77-2.63,4.93a5.39,5.39,0,0,0,0,8.17,6.2,6.2,0,0,1,1.93,3.45c0.17,7.21.09,14.45,0.09,22.45H184V267Z"/><path class="cls-6" d="M-0.47,257.58c2.43-2.43,5.55-4.48,7.13-7.37,2.23-4.07-.14-9.26-4.85-10.86-3.69-1.25-3.93-3.11-2.87-6.08,8.35,0.83,13.7,6.15,13.93,13.76S7.69,260.52-1.28,261.68l-0.29-4.82Z"/><path class="cls-6" d="M-1,311c8.13,0.62,13.6,6,13.87,13.61s-5.08,13.48-14.1,14.75c-0.12-1.61-.24-3.19-0.31-4.12,2.72-1.89,5.38-3,7.05-5,3.71-4.39,1.81-10.72-3.6-13.31C-1.67,315.21-1.67,315.21-1,311Z"/><path class="cls-6" d="M-1.56,206.93l0.23-4.88c8.28,0.46,13.93,6,14.18,13.6S8,229-1.21,230.44c-0.13-1.62-.26-3.21-0.41-5,5.16-1.3,9-3.9,8.94-9.39C7.28,210.89,3.88,208.1-1.56,206.93Z"/><path class="cls-6" d="M-1.57,362.19l0.25-4.79c8.32,0.53,13.93,6.05,14.17,13.65S7.91,384.37-1.22,385.81l-0.38-5c5.18-1.29,9-3.91,8.94-9.41C7.3,366.19,3.76,363.54-1.57,362.19Z"/><path class="cls-6" d="M-1.55,393.57c0.08-1.83.15-3.32,0.21-4.78,8.06-.85,14.46,7.22,14.38,14-0.1,7.82-5,13.67-14,14v-4.71c4-1.3,8.51-3.82,8.48-9.33C7.45,397.59,3.93,394.8-1.55,393.57Z"/><path class="cls-6" d="M-1.67,303.11c5.46-1.3,9.28-4,9.17-9.53-0.1-5.24-4.5-7.79-8.5-9v-5.2c1,0.46,3.63.64,5.25,1.3a14.25,14.25,0,0,1,8.6,15c-0.95,7-5.82,11.39-14,12.48C-1.3,306.58-1.48,305.12-1.67,303.11Z"/><path class="cls-6" d="M-0.82,57.12c7.68,2.18,12,7.76,11.5,14.81C10.19,78.7,5.57,83.66-3,84.89c1.8-2.84,2.6-5.09,4.19-6.42,5.16-4.33,5.16-10.64,0-14.92-1.61-1.34-2.42-3.63-3.59-5.49Z"/><path class="cls-6" d="M-2,117.59V100.81c5-.13,8.49,2.89,8.81,7.66S4,116.61-2,117.59Z"/><path class="cls-6" d="M339.49,204.67l-5.54-.89c1.86-1.59,3.13-2.54,4.23-3.66s2-2.33,3.41-4.1c0.92,3.75,2.15,6.74-1.59,8.93Z"/><path class="cls-6" d="M1038.6,485.56a14.29,14.29,0,1,1-14.38-14.41A14.21,14.21,0,0,1,1038.6,485.56Zm-14.06,8.92a8.94,8.94,0,0,0-.44-17.88A8.94,8.94,0,0,0,1024.54,494.48Z"/><path class="cls-6" d="M1038.6,516.67a14.29,14.29,0,1,1-28.58.07A14.29,14.29,0,0,1,1038.6,516.67Zm-14.26,9.13a9,9,0,0,0,8.85-9,8.88,8.88,0,0,0-17.76,0A9.16,9.16,0,0,0,1024.34,525.8Z"/><path class="cls-6" d="M914.54,287.9a14.6,14.6,0,0,1,14.59,14.4A14.43,14.43,0,1,1,914.54,287.9Zm0,5.57a9.16,9.16,0,0,0-8.8,9.06,9.4,9.4,0,0,0,9.18,8.77,9.13,9.13,0,0,0,8.7-9.15A8.91,8.91,0,0,0,914.5,293.47Z"/><path class="cls-6" d="M929.13,333.49a14.42,14.42,0,1,1-14.71-14.16A14.34,14.34,0,0,1,929.13,333.49Zm-5.56,0a8.79,8.79,0,0,0-9.05-8.64,9,9,0,0,0-8.83,9,9.25,9.25,0,0,0,9.16,8.74A9,9,0,0,0,923.57,333.47Z"/><path class="cls-6" d="M1187.6,823.21a14.41,14.41,0,1,1-14.71-14.3A14.63,14.63,0,0,1,1187.6,823.21Zm-5.5-.12a8.95,8.95,0,0,0-17.88.55A8.95,8.95,0,1,0,1182.09,823.09Z"/><path class="cls-6" d="M1218.86,823.23a14.27,14.27,0,0,1-14.35,14.48A14.53,14.53,0,0,1,1190,823.21a14.69,14.69,0,0,1,14.22-14.3A14.42,14.42,0,0,1,1218.86,823.23Zm-14.16-8.74a8.88,8.88,0,0,0-9,8.7,9.1,9.1,0,0,0,8.69,9.12,9.29,9.29,0,0,0,9.12-8.78A9.07,9.07,0,0,0,1204.69,814.49Z"/><path class="cls-6" d="M1063.27,53.12a14.31,14.31,0,1,1-14.48,14.42A14.29,14.29,0,0,1,1063.27,53.12Zm-8.92,13.61a8.93,8.93,0,0,0,17.8,1.44A8.93,8.93,0,0,0,1054.34,66.73Z"/><path class="cls-6" d="M1067.42,111.08c0.82-2.16,1.29-4.57,2.54-6.44,3.05-4.55,2.9-9.24-.86-12.54a8.85,8.85,0,0,0-12.18.41c-3.64,3.67-3.32,8.52.4,12.94,1.33,1.59,1.85,3.85,3.06,6.51-7.1-1.32-11.49-6.79-11.59-13a14.54,14.54,0,0,1,11.31-14.22,14.37,14.37,0,0,1,16.63,9.09c2.59,7.09-.09,13.27-7.72,17.82Z"/><path class="cls-6" d="M1067,112h-7a2,2,0,0,1-.36-0.88c0.93-.54,1.86-1,2.25-1.18-0.34-.19-1.31-0.67-2.27-1.22,0.09-.33-0.06-0.63,0-1,2.4-.18,4.32-0.33,7.32-0.54V112Z"/><path class="cls-6" d="M402,888.87a14.43,14.43,0,0,1-28.85-.85A14.43,14.43,0,1,1,402,888.87Zm-14.42,8.3a9.06,9.06,0,0,0,9-8.87,9,9,0,0,0-17.94,0A9.08,9.08,0,0,0,387.61,897.17Z"/><path class="cls-6" d="M392,870.4c-9,2.44-16.53-1.62-18.62-10.16A14.47,14.47,0,1,1,401.65,854c1.54,6.64-2.11,13.18-9.2,16.43,0.74-2.65,1-5.59,2.34-7.88,2.28-3.9,2.25-8.63-.89-11.78a8.68,8.68,0,0,0-11.71-.75A8.88,8.88,0,0,0,380,862c2.8,4.66,7,4.33,12,3.4v5Z"/><path class="cls-6" d="M524,554V478h76v76H524Zm60-59H541v42h43V495Z"/><path class="cls-6" d="M885,841V763h78v78H885Zm17-16h43V780H902v45Z"/><path class="cls-6" d="M850,569H773V493h77v76Zm-17-60.14c-14,0-26.86.06-40,0-3.4,0-3.22,2-3.21,4.4,0,10.86.17,21.71,0.17,32.57V552h43V508.86Z"/><path class="cls-6" d="M1100,518h77v78h-77V518Zm17,60h43V535h-43v43Z"/><path class="cls-6" d="M551.66,43.93a14.36,14.36,0,0,1-14.37,14.51,14.66,14.66,0,0,1-14.43-14.58A14.44,14.44,0,0,1,537.1,29.71,14.19,14.19,0,0,1,551.66,43.93Zm-5.39-.09a9.17,9.17,0,0,0-9.1-8.75,9,9,0,0,0-8.68,9.1,8.77,8.77,0,0,0,9,8.67A9,9,0,0,0,546.27,43.84Z"/><path class="cls-6" d="M583,44.13a14.31,14.31,0,1,1-28.61-.47A14.31,14.31,0,0,1,583,44.13Zm-5.42-.34a8.89,8.89,0,1,0-17.77.44A8.89,8.89,0,0,0,577.58,43.8Z"/><path class="cls-6" d="M200.75,491a14.28,14.28,0,1,1,.08-28.55A14.28,14.28,0,1,1,200.75,491Zm8.8-14a9,9,0,0,0-8.66-9.12,8.87,8.87,0,1,0-.49,17.72A8.88,8.88,0,0,0,209.55,477Z"/><path class="cls-6" d="M223,469a14.39,14.39,0,0,1-14.55-14.37c0-7.07,6.81-14.2,13.52-14.23,8.42,0,15.14,6.12,15.27,14A14.27,14.27,0,0,1,223,469Zm8.85-14.18c0.08-4.53-4.27-9.22-8.63-9.32a9.27,9.27,0,0,0-9.16,9.16,9,9,0,0,0,8.76,9A9.25,9.25,0,0,0,231.8,454.77Z"/><path class="cls-6" d="M101.32,296a14.4,14.4,0,1,1-.1-28.79A14.4,14.4,0,0,1,101.32,296Zm-0.19-5.39a9.3,9.3,0,0,0,8.95-9,8.94,8.94,0,0,0-17.89,0A9.28,9.28,0,0,0,101.13,290.58Z"/><path class="cls-6" d="M115.59,313a14.42,14.42,0,1,1-14.53-14.36A14.37,14.37,0,0,1,115.59,313Zm-5.5-.25a9,9,0,0,0-17.89.41A8.95,8.95,0,0,0,110.09,312.71Z"/><path class="cls-6" d="M356,239h78v76H356V239Zm61,60V256H374v43h43Z"/></g></g></g></svg>