<svg id="Shapes" xmlns="http://www.w3.org/2000/svg" viewBox="0 0 92 50.2"><defs><style>.cls-1{fill:#fff;fill-rule:evenodd;}</style></defs><title>web-icon</title><path class="cls-1" d="M0,20.77C9,15.7,18.64,10.63,28.14,5.49c0,0.42,0,.7,0,1,0,2.71,0,5.42,0,8.12a1.22,1.22,0,0,1-.83,1.29Q18.4,20.12,9.51,24.41L8.44,25c0.37,0.21.63,0.36,0.91,0.5q9,4.46,17.92,8.9a1.25,1.25,0,0,1,.79,1.37Q28,39.7,28,43.67v1a2.33,2.33,0,0,0-1-.51C18.23,39.42,9.6,34.64.84,29.87A2.39,2.39,0,0,1,0,29.44V20.77Z"/><path class="cls-1" d="M92,29.44a3.07,3.07,0,0,1-.94.45c-8.73,4.76-17.4,9.54-26.12,14.31L64,44.68a3.59,3.59,0,0,1-.1-0.62c0-2.86,0-5.71,0-8.57a1,1,0,0,1,.75-1.06q9-4.44,18-8.9l0.95-.5L69.84,18.26c-1.73-.85-3.44-1.71-5.18-2.53a1.08,1.08,0,0,1-.74-1.15c0-3,0-5.94,0-9.08,0.43,0.21.75,0.34,1,.5,8.79,4.77,17.47,9.55,26.26,14.32a1.82,1.82,0,0,1,.76.45v8.67Z"/><path class="cls-1" d="M32.94,50.18c0.14-.42.24-0.72,0.35-1q9-24.06,18-48.11a1.27,1.27,0,0,1,1.46-1c1.56,0.09,3.13,0,4.8,0-0.08.3-.13,0.55-0.22,0.78q-9.11,24.3-18.22,48.6A1,1,0,0,1,38,50.2C36.36,50.14,34.71,50.18,32.94,50.18Z"/></svg>