<svg id="Shapes" xmlns="http://www.w3.org/2000/svg" viewBox="0 0 264 266"><defs><style>.cls-1{fill:gray;opacity:0.5;}.cls-1,.cls-4{fill-rule:evenodd;}.cls-2{fill:#5f6766;}.cls-3{fill:#fff;}.cls-4{fill:#18afe5;}</style></defs><title>web-design-gear-one</title><path class="cls-1" d="M26.24 213.22c-2-3.38-3.92-6.79-6-10.14-1.62-2.65-3.31-5.28-5.1-7.83-2-2.78-1.84-4.2.73-6.39a40.65 40.65 0 0 0 3.21-3c2.93-3.09 5.84-6.21 8.69-9.38a2.19 2.19 0 0 0 .37-1.75c-1.7-6.11-3.52-12.19-5.2-18.32-.39-1.43-.86-2.29-2.48-2.64-6.52-1.4-13-3-19.68-4.52-.09-2.06-.22-4.16-.28-6.26-.15-5.69-.26-11.41-.5-17.13a1.94 1.94 0 0 1 1.71-2.32c5.93-1.58 11.84-3.28 17.78-4.83a3.27 3.27 0 0 0 2.67-2.89c1.33-5.82 2.84-11.53 4.42-17.27a2.56 2.56 0 0 0-.84-3c-4.17-3.81-8.21-7.72-12.33-11.55-.81-.75-1.81-1.32-2.57-2.11a1.77 1.77 0 0 1-.35-1.58c3-5.54 6-11 9-16.56.83-1.54 1.49-3.16 2.28-4.85 4.05 1.08 8 2.17 11.95 3.17 3.35.85 6.7 1.73 10.1 2.27.79.12 1.92-1 2.66-1.77 1.77-1.86 3.36-3.89 5.1-5.79s3.15-4 5.17-5.22c2.75-1.71 2.33-3.5 1.49-6-2-5.78-3.68-11.67-5.56-17.48-.33-1-.23-1.7.68-2.22 1.22-.7 2.48-1.3 3.67-2 5.4-3.39 10.79-6.82 16.33-10.33l8.35 8.21c2.51 2.46 5 4.91 7.51 7.41a1.75 1.75 0 0 0 2.26.5c5.88-2.49 11.82-4.81 18.23-5.62a2.21 2.21 0 0 0 1.28-1.5c1.2-5.4 2.29-10.83 3.43-16.24.15-.75.36-1.49.55-2.23.83-3.25.83-3.24 4.26-3.34 6.5-.2 13-.37 19.51-.66a2 2 0 0 1 2.41 1.75c1.64 6.26 3.44 12.47 5.11 18.72a2.32 2.32 0 0 0 2.14 2c6.3 1.25 12.58 2.66 18.84 4.14a1.92 1.92 0 0 0 2.21-.77c4-4.51 8.17-8.94 12.13-13.52 1.35-1.57 2.57-1.94 4.32-.89q3.1 1.8 6.24 3.51c4 2.21 8 4.43 12.06 6.52 1.19.61 1.16 1.29.89 2.39-1.63 6.44-3.19 12.9-4.78 19.38 3.06 2.52 6.23 4.93 9.15 7.61 2.58 2.37 4.86 5.07 7.33 7.57a1.56 1.56 0 0 0 1.33.25c6.15-1.9 12.28-3.87 18.44-5.74a1.69 1.69 0 0 1 1.49.55c1.73 2.72 3.32 5.53 5 8.27s3.59 5.52 5.33 8.31c.77 1.23 1.42 2.54 2.24 4-2.21 2.26-4.44 4.54-6.67 6.83s-4.62 4.66-6.81 7.11a2.69 2.69 0 0 0-.49 2.27c2.62 6.75 5.34 13.46 6.27 20.73a2.06 2.06 0 0 0 1.4 1.16c5.93 1.38 11.88 2.68 17.82 4 .33.07.66.2 1.44.43v11.23c.07 4.13.19 8.26.39 12.38a1.62 1.62 0 0 1-1.42 2c-5.64 1.53-11.27 3.14-16.92 4.65a2.06 2.06 0 0 0-1.78 2c-1.02 7.1-2.18 14.1-4.85 20.76a2.17 2.17 0 0 0 .54 1.88c2.79 2.68 5.67 5.26 8.52 7.86 1.64 1.5 3.24 3 4.94 4.45a1.46 1.46 0 0 1 .4 2.21c-3 5.42-6 10.88-9 16.35-.78 1.44-1.44 2.95-2.27 4.65-3.23-.85-6.55-1.72-9.86-2.6-3.05-.82-6.11-1.62-9.15-2.5a1.83 1.83 0 0 0-2.27.71 99.66 99.66 0 0 1-14.69 15.4 1.64 1.64 0 0 0-.41 2.15c1.09 3.17 2.21 6.34 3.23 9.53q1.34 4.2 2.42 8.48a1.91 1.91 0 0 1-.63 1.66c-4.31 2.7-8.69 5.27-13 7.94-2.38 1.47-4.71 3-7.12 4.62l-10.23-10.06c-1.46-1.43-3-2.81-4.36-4.31a1.55 1.55 0 0 0-2.13-.39c-6.21 2.92-12.88 4.25-19.52 5.66a2.18 2.18 0 0 0-1.86 2.1c-1.3 6.16-2.58 12.33-3.95 18.47a1.88 1.88 0 0 1-1.23 1.24c-7.91.33-15.81.57-23.87.84-.32-1.08-.64-2.07-.91-3.07-1.53-5.56-3.1-11.11-4.56-16.69a2.4 2.4 0 0 0-2.24-2c-5.89-1.25-11.78-2.54-17.63-4-3-.77-3.64-.46-5.73 2-3.81 4.58-7.92 8.91-11.89 13.33l-19.38-10.24c-.36-.19-.72-.4-1.08-.59-1.28-.64-1.52-1.5-1.13-3 1.66-6.19 3.16-12.42 4.67-18.66a1.82 1.82 0 0 0-.42-1.49c-1.72-1.57-3.6-3-5.3-4.57q-5-4.69-9.8-9.55a1.59 1.59 0 0 0-1.95-.44c-6.51 2.12-13.06 4.09-19.91 6.19zm183.84-79.53c.45-42.46-35.22-77.82-77.31-77.69a77.83 77.83 0 0 0-77.47 78.67c.49 42.69 34.63 77.62 78.61 77.12 41.92-.48 76.57-35.21 76.17-78.1z"/><path class="cls-1" d="M154.5 96.5q-.44 4.46-.89 8.9a.34.34 0 0 1 0 .1c-1 2.08.17 3.19 1.7 4.45a3.39 3.39 0 0 0 3.64.83c2.72-.85 5.51-1.48 8.26-2.24a1.06 1.06 0 0 1 1.43.48c1.29 2.24 2.62 4.46 3.88 6.72a1.2 1.2 0 0 1-.19 1.09c-2.31 2.57-4.67 5.09-7 7.67a1.6 1.6 0 0 0-.24 1.18 32.59 32.59 0 0 0 .73 3.34 1.27 1.27 0 0 0 .67.71c3.07 1.27 6.14 2.54 9.24 3.74a1.17 1.17 0 0 1 .9 1.4c-.27 2.76-.48 5.52-.71 8.23l-2.14.45c-2.86.58-5.72 1.17-8.58 1.72a1.09 1.09 0 0 0-1 .83 14.28 14.28 0 0 1-1.28 2.72 1.69 1.69 0 0 0 .16 2.08c1.72 2.62 3.36 5.28 5.07 7.91a1.13 1.13 0 0 1 0 1.44 33.19 33.19 0 0 1-5.39 6 1 1 0 0 1-.9 0c-1.81-.81-3.59-1.68-5.4-2.49-1.32-.59-2.65-1.15-4-1.67a1.11 1.11 0 0 0-.81.14 17.3 17.3 0 0 1-2.27 1.3c-1.4.49-1.68 1.53-1.75 2.8-.13 2.58-.29 5.17-.45 7.75-.1 1.65-.1 1.7-1.73 2.12-2.17.56-4.37 1-6.55 1.54a1.06 1.06 0 0 1-1.32-.74c-1.52-2.78-3.08-5.52-4.59-8.31a1.34 1.34 0 0 0-1.33-.82c-1.21 0-2.41-.2-3.62-.24a1.41 1.41 0 0 0-1 .38q-3.23 3.8-6.37 7.67a.88.88 0 0 1-1.17.41c-2.47-1-5-2-7.41-3.11a.92.92 0 0 1-.41-.75c.32-2.76.7-5.52 1.05-8.28l.18-1.4a2 2 0 0 0-.89-2c-.91-.69-1.68-1.55-2.56-2.27a1.37 1.37 0 0 0-1-.23c-3.33.79-6.66 1.63-10 2.42a.93.93 0 0 1-.82-.27q-2.1-3.38-4.1-6.82a1 1 0 0 1 .19-.93q3.29-3.61 6.64-7.16a1.54 1.54 0 0 0 .47-1.76 9.57 9.57 0 0 1-.55-2.55c-.09-1.55-1-2.15-2.35-2.58s-2.73-1.1-4.1-1.62c-1.57-.6-3.15-1.16-4.86-1.79.27-2.78.56-5.5.8-8.24a1.09 1.09 0 0 1 1.12-1.11c3.21-.58 6.41-1.19 9.59-1.87a2.2 2.2 0 0 0 1.31-1 28.07 28.07 0 0 0 1.49-3.52 1.23 1.23 0 0 0-.21-.9c-1.78-2.86-3.57-5.71-5.4-8.53a1 1 0 0 1 .09-1.49q2.52-2.75 5-5.54a.92.92 0 0 1 1.29-.19q4.58 2.21 9.21 4.32a1.55 1.55 0 0 0 1.18 0c1.17-.58 2.31-1.24 3.43-1.92a1.12 1.12 0 0 0 .51-.73c.08-1 0-2 .1-3 .16-2.51.37-5 .53-7.53a.86.86 0 0 1 .77-1c2.56-.56 5.1-1.19 7.66-1.72a1.26 1.26 0 0 1 .95.61c1.68 2.92 3.34 5.85 4.94 8.81a1.63 1.63 0 0 0 1.57 1 12 12 0 0 1 2.41.24 2 2 0 0 0 2.24-.92q2.56-3.24 5.17-6.45c1.3-1.59 1.31-1.58 3.24-.86 1.13.42 2.3.78 3.39 1.29s2.1 1.16 3.14 1.76zm-33.3 17.93a23.45 23.45 0 1 0 32 8.1 23.57 23.57 0 0 0-32-8.1z"/><circle class="cls-2" cx="133.27" cy="134.23" r="25.38"/><circle class="cls-3" cx="134.21" cy="134.23" r="11.13"/><path class="cls-4" d="M141.08 121.58c1.41 1.41 2.85 1.17 4.61.56 3.2-1.11 2.29-1.48 4.42 1.3a1.51 1.51 0 0 1 .15 2.14c-.3.38-.31 1-.63 1.34-1.6 1.63-1 3.37-.67 5.31a4.72 4.72 0 0 0 3.07 4c1.78.84 1.72 1 1.32 2.87-.07.34-.18.67-.26 1a2 2 0 0 1-2.19 1.85c-2.63-.08-4.27 1.33-5.76 3.41a4.6 4.6 0 0 0-.7 3.41c.19 3.13.77 2.43-2.24 3.94-1.83.91-1.93.93-3.37-.59a5.87 5.87 0 0 0-4.77-1.94 5.7 5.7 0 0 0-4.6 1.92c-.47.51-1.24 1.28-1.7 1.16a20.88 20.88 0 0 1-3.79-1.61.89.89 0 0 1-.2-.62 4.13 4.13 0 0 1 .05-.92 6.34 6.34 0 0 0-1.93-5.86 6.68 6.68 0 0 0-4.45-2.27c-2-.24-2-.32-2.34-2.34v-.23c-.46-2.23-.31-2.53 1.77-3.51 1.2-.56 2.13-1.2 2.1-2.79 0-1.08.57-2.17.65-3.27a4 4 0 0 0-.49-2.36c-1.9-2.84-1.95-2.81.18-5.48.17-.21.31-.43.56-.77 1.59.53 3.14 1.49 4.65 1.41s2.76-1.36 4.22-1.88a2.84 2.84 0 0 0 2-1.93 16.38 16.38 0 0 1 1-2.35 2.43 2.43 0 0 1 .9-1.3 19.85 19.85 0 0 1 3.55.09 1 1 0 0 1 .33.57c.15.48.25 1 .4 1.45m6.75 17.84a9.63 9.63 0 0 0-9.73-9.67 9.86 9.86 0 0 0-9.69 9.69 10.06 10.06 0 0 0 9.65 9.63 9.84 9.84 0 0 0 9.73-9.67z"/></svg>