<svg id="Shapes" xmlns="http://www.w3.org/2000/svg" viewBox="0 0 92 50.2"><defs><style>.cls-1{fill:#fff;fill-rule:evenodd;}</style></defs><title>web-icon</title><path class="cls-1" d="M0 20.77C9 15.7 18.64 10.63 28.14 5.49v9.12a1.22 1.22 0 0 1-.83 1.29q-8.91 4.22-17.8 8.51L8.44 25c.37.21.63.36.91.5q9 4.46 17.92 8.9a1.25 1.25 0 0 1 .79 1.37Q28 39.7 28 43.67v1a2.33 2.33 0 0 0-1-.51C18.23 39.42 9.6 34.64.84 29.87a2.39 2.39 0 0 1-.84-.43v-8.67zM92 29.44a3.07 3.07 0 0 1-.94.45c-8.73 4.76-17.4 9.54-26.12 14.31l-.94.48a3.59 3.59 0 0 1-.1-.62v-8.57a1 1 0 0 1 .75-1.06q9-4.44 18-8.9l.95-.5-13.76-6.77c-1.73-.85-3.44-1.71-5.18-2.53a1.08 1.08 0 0 1-.74-1.15V5.5c.43.21.75.34 1 .5 8.79 4.77 17.47 9.55 26.26 14.32a1.82 1.82 0 0 1 .76.45v8.67zM32.94 50.18c.14-.42.24-.72.35-1q9-24.06 18-48.11a1.27 1.27 0 0 1 1.46-1c1.56.09 3.13 0 4.8 0-.08.3-.13.55-.22.78l-18.22 48.6a1 1 0 0 1-1.11.75c-1.64-.06-3.29-.02-5.06-.02z"/></svg>