<svg id="Shapes" xmlns="http://www.w3.org/2000/svg" viewBox="0 0 119 117"><defs><style>.cls-1{fill:gray;opacity:0.5;}.cls-1,.cls-4{fill-rule:evenodd;}.cls-2{fill:#5f6766;}.cls-3{fill:#fff;}.cls-4{fill:#e35d4e;}</style></defs><title>web-design-gear-two</title><path class="cls-1" d="M11.83 93.79c-.89-1.49-1.77-3-2.69-4.46-.73-1.17-1.49-2.33-2.3-3.45S6 84 7.17 83.07a18.16 18.16 0 0 0 1.45-1.3c1.32-1.36 2.63-2.73 3.92-4.13a.94.94 0 0 0 .16-.77c-.77-2.69-1.59-5.36-2.34-8.06a1.32 1.32 0 0 0-1.12-1.16c-2.94-.61-5.87-1.31-8.87-2 0-.9-.1-1.83-.13-2.75-.08-2.52-.13-5-.24-7.55a.86.86 0 0 1 .77-1c2.67-.7 5.34-1.44 8-2.13A1.45 1.45 0 0 0 10 50.94c.6-2.55 1.29-5.07 2-7.6a1.11 1.11 0 0 0-.4-1.34c-1.88-1.65-3.7-3.37-5.6-5.05-.32-.34-.77-.58-1.11-.95a.76.76 0 0 1-.16-.7c1.33-2.42 2.71-4.83 4.06-7.3.37-.68.67-1.39 1-2.13 1.83.47 3.6 1 5.39 1.4 1.51.37 3 .76 4.55 1a2 2 0 0 0 1.2-.78c.8-.82 1.52-1.71 2.3-2.55a12.3 12.3 0 0 1 2.33-2.3c1.24-.75 1.05-1.54.67-2.63-.89-2.54-1.66-5.13-2.51-7.69a.7.7 0 0 1 .3-1c.55-.31 1.12-.57 1.65-.9 2.44-1.49 4.86-3 7.36-4.54l3.76 3.61c1.13 1.08 2.27 2.16 3.38 3.26a.8.8 0 0 0 1 .22 31.81 31.81 0 0 1 8.22-2.47 1 1 0 0 0 .61-.61c.54-2.38 1-4.76 1.54-7.15.07-.33.16-.66.25-1 .37-1.43.38-1.42 1.92-1.47 2.96-.06 5.9-.14 8.83-.27a.88.88 0 0 1 1.08.77c.74 2.75 1.55 5.49 2.3 8.24a1 1 0 0 0 1 .88c2.84.55 5.67 1.17 8.49 1.82a.88.88 0 0 0 1-.34c1.82-2 3.68-3.93 5.47-5.95A1.35 1.35 0 0 1 83.79 5q1.39.81 2.82 1.58c1.8 1 3.61 1.95 5.44 2.87a.74.74 0 0 1 .4 1.05c-.74 2.83-1.44 5.67-2.16 8.52 1.38 1.11 2.81 2.17 4.12 3.35 1.16 1 2.19 2.23 3.3 3.33a.72.72 0 0 0 .6.11c2.77-.83 5.54-1.7 8.31-2.53a.77.77 0 0 1 .67.24c.78 1.2 1.5 2.43 2.27 3.64s1.62 2.43 2.4 3.66c.35.54.64 1.12 1 1.78l-3 3c-1 1-2.08 2.05-3.07 3.13a1.16 1.16 0 0 0-.22 1 38.18 38.18 0 0 1 2.83 9.12.92.92 0 0 0 .63.51c2.67.61 5.36 1.18 8 1.76.15 0 .3.09.65.19v4.94c0 1.82.08 3.63.17 5.45a.72.72 0 0 1-.64.86c-2.54.67-5.08 1.38-7.63 2a.92.92 0 0 0-.8.87 38.75 38.75 0 0 1-2.21 9.13.94.94 0 0 0 .24.83c1.26 1.18 2.55 2.31 3.84 3.46.74.66 1.46 1.33 2.23 2a.63.63 0 0 1 .18 1c-1.37 2.39-2.72 4.79-4.06 7.19-.35.63-.65 1.3-1 2l-4.44-1.15c-1.38-.36-2.76-.71-4.12-1.1a.84.84 0 0 0-1 .31 44.32 44.32 0 0 1-6.62 6.78.71.71 0 0 0-.19.95c.49 1.4 1 2.79 1.45 4.19q.6 1.85 1.09 3.73a.83.83 0 0 1-.28.73c-1.94 1.19-3.92 2.32-5.87 3.49-1.07.65-2.12 1.34-3.21 2l-4.61-4.43c-.66-.63-1.34-1.23-2-1.9a.71.71 0 0 0-1-.17 40.48 40.48 0 0 1-8.8 2.49 1 1 0 0 0-.84.93c-.59 2.71-1.16 5.42-1.78 8.13a.84.84 0 0 1-.55.55c-3.56.15-7.13.25-10.76.37-.15-.47-.29-.91-.41-1.35-.69-2.44-1.4-4.89-2.06-7.34a1.08 1.08 0 0 0-1-.86c-2.66-.55-5.31-1.12-7.95-1.77-1.36-.34-1.64-.2-2.58.9-1.72 2-3.57 3.92-5.36 5.86l-8.71-4.54-.49-.26a.94.94 0 0 1-.51-1.3c.75-2.72 1.43-5.46 2.1-8.21a.79.79 0 0 0-.19-.65c-.78-.69-1.62-1.31-2.39-2q-2.24-2.06-4.42-4.2a.73.73 0 0 0-.88-.19c-2.85.97-5.8 1.83-8.89 2.76zm82.87-35c.2-18.68-15.88-34.23-34.85-34.17-19.39.06-35.15 15.59-34.92 34.6.22 18.78 15.61 34.15 35.43 33.93 18.9-.2 34.52-15.48 34.34-34.35z"/><path class="cls-1" d="M69.64 42.45l-.4 3.91c-.43.91.08 1.4.77 2a1.55 1.55 0 0 0 1.64.37c1.23-.38 2.49-.65 3.73-1A.48.48 0 0 1 76 48c.58 1 1.18 2 1.75 3a.52.52 0 0 1-.09.48c-1 1.13-2.11 2.24-3.14 3.37a.69.69 0 0 0-.11.52 14 14 0 0 0 .33 1.47.56.56 0 0 0 .3.31c1.38.56 2.77 1.12 4.17 1.65a.51.51 0 0 1 .41.62c-.12 1.21-.22 2.43-.32 3.62l-1 .2-3.87.76a.49.49 0 0 0-.43.37 6.21 6.21 0 0 1-.58 1.2.73.73 0 0 0 .07.92c.77 1.15 1.52 2.32 2.28 3.48a.49.49 0 0 1 0 .63 14.73 14.73 0 0 1-2.43 2.62.48.48 0 0 1-.41 0c-.82-.36-1.62-.74-2.43-1.1-.59-.26-1.2-.51-1.8-.74a.51.51 0 0 0-.36.06 7.85 7.85 0 0 1-1 .57 1.16 1.16 0 0 0-.79 1.23c-.06 1.14-.13 2.27-.2 3.41 0 .73 0 .75-.78.93-1 .24-2 .44-3 .68a.48.48 0 0 1-.59-.32c-.68-1.22-1.39-2.43-2.07-3.65a.61.61 0 0 0-.6-.36c-.55 0-1.09-.09-1.63-.1a.64.64 0 0 0-.46.17q-1.45 1.67-2.87 3.37a.4.4 0 0 1-.53.18c-1.11-.46-2.23-.9-3.34-1.37a.4.4 0 0 1-.18-.33c.15-1.22.31-2.43.47-3.64l.08-.62a.86.86 0 0 0-.4-.87c-.41-.3-.76-.68-1.16-1a.63.63 0 0 0-.47-.1l-4.5 1.06a.43.43 0 0 1-.32-.22q-.95-1.48-1.85-3a.45.45 0 0 1 .09-.41q1.48-1.59 3-3.15a.67.67 0 0 0 .21-.78 4.12 4.12 0 0 1-.22-1.12 1.23 1.23 0 0 0-1.06-1.14c-.63-.2-1.23-.48-1.85-.71l-2.19-.79c.12-1.22.25-2.42.36-3.62a.49.49 0 0 1 .5-.49c1.45-.26 2.89-.52 4.32-.82a1 1 0 0 0 .59-.43 12.19 12.19 0 0 0 .67-1.55.53.53 0 0 0-.09-.4c-.8-1.26-1.61-2.51-2.44-3.75a.45.45 0 0 1 0-.66q1.13-1.21 2.25-2.44a.42.42 0 0 1 .58-.08q2.06 1 4.15 1.9a.72.72 0 0 0 .53 0c.53-.26 1-.55 1.55-.84a.49.49 0 0 0 .23-.32v-1.33c.07-1.1.17-2.21.24-3.31a.38.38 0 0 1 .43-.45c1.15-.25 2.3-.52 3.45-.75a.57.57 0 0 1 .43.27c.76 1.28 1.5 2.57 2.22 3.88a.74.74 0 0 0 .71.44 5.52 5.52 0 0 1 1.09.11.93.93 0 0 0 1-.4q1.16-1.43 2.33-2.84c.59-.7.59-.7 1.46-.38.51.19 1 .34 1.53.57s.95.51 1.42.78zm-15 7.89A10.23 10.23 0 0 0 51 64.62a10.85 10.85 0 0 0 14.48 3.43 10.22 10.22 0 0 0 3.61-14.16 10.69 10.69 0 0 0-14.46-3.56z"/><ellipse class="cls-2" cx="60.07" cy="59.04" rx="11.44" ry="11.16"/><ellipse class="cls-3" cx="60.5" cy="59.04" rx="5.02" ry="4.9"/><path class="cls-4" d="M63.59 53.48a1.8 1.8 0 0 0 2.08.25c1.44-.49 1-.65 2 .57a.65.65 0 0 1 .07.94c-.13.17-.14.44-.29.59-.72.72-.43 1.48-.3 2.34a2.08 2.08 0 0 0 1.38 1.76c.8.37.78.42.59 1.26 0 .15-.08.29-.12.44a.89.89 0 0 1-1 .82 3 3 0 0 0-2.6 1.5 2 2 0 0 0-.32 1.5c.09 1.38.35 1.07-1 1.73-.82.4-.87.41-1.52-.26a2.68 2.68 0 0 0-2.15-.86 2.6 2.6 0 0 0-2.07.84 1.3 1.3 0 0 1-.76.51 9.54 9.54 0 0 1-1.71-.71.38.38 0 0 1-.09-.27 1.77 1.77 0 0 1 0-.41 2.75 2.75 0 0 0-.87-2.58 3 3 0 0 0-2-1c-.89-.11-.89-.14-1.06-1v-.1c-.21-1-.14-1.11.8-1.54a1.26 1.26 0 0 0 .95-1.23c0-.48.26-1 .29-1.44a1.73 1.73 0 0 0-.22-1c-.86-1.25-.88-1.23.08-2.41l.25-.4a6.52 6.52 0 0 0 2.09.62 8.13 8.13 0 0 0 1.9-.83 1.27 1.27 0 0 0 .91-.85 7.11 7.11 0 0 1 .44-1 1.07 1.07 0 0 1 .41-.57 9.17 9.17 0 0 1 1.6 0 .42.42 0 0 1 .15.25c.07.21.11.43.18.64m3 7.85a4.29 4.29 0 0 0-4.39-4.25A4.39 4.39 0 0 0 56 59.44a4.48 4.48 0 0 0 4.35 4.23 4.38 4.38 0 0 0 4.39-4.24z"/></svg>