<svg id="Shapes" xmlns="http://www.w3.org/2000/svg" viewBox="0 0 146 146"><defs><style>.cls-1{fill:gray;opacity:0.5;}.cls-1,.cls-4{fill-rule:evenodd;}.cls-2{fill:#5f6766;}.cls-3{fill:#fff;}.cls-4{fill:#e35d4e;}</style></defs><title>web-design-gear-three</title><path class="cls-1" d="M14.51 117c-1.1-1.85-2.17-3.73-3.3-5.57-.9-1.46-1.83-2.9-2.82-4.3s-1-2.31.4-3.51a22.42 22.42 0 0 0 1.78-1.62c1.62-1.7 3.23-3.41 4.81-5.15a1.19 1.19 0 0 0 .2-1c-.94-3.36-1.95-6.69-2.87-10.05a1.64 1.64 0 0 0-1.37-1.45c-3.61-.77-7.2-1.63-10.88-2.48C.4 80.81.33 79.66.29 78.5c-.1-3.14-.16-6.28-.29-9.42a1.06 1.06 0 0 1 .94-1.27c3.28-.87 6.55-1.8 9.83-2.65a1.8 1.8 0 0 0 1.47-1.59c.74-3.18 1.58-6.33 2.44-9.48a1.4 1.4 0 0 0-.46-1.67c-2.3-2.07-4.54-4.22-6.82-6.32-.4-.41-.98-.72-1.4-1.16a1 1 0 0 1-.19-.87c1.64-3 3.33-6.06 5-9.09.46-.84.82-1.73 1.26-2.66 2.24.59 4.42 1.19 6.61 1.74 1.85.46 3.7 1 5.58 1.24a2.5 2.5 0 0 0 1.47-1c1-1 1.86-2.14 2.82-3.18a15.22 15.22 0 0 1 2.86-2.87c1.52-.94 1.29-1.92.82-3.28-1.09-3.17-2-6.4-3.08-9.6a.87.87 0 0 1 .37-1.22c.67-.38 1.37-.71 2-1.12 3-1.86 6-3.74 9-5.67l4.62 4.51c1.43 1.4 2.86 2.74 4.2 4.13a1 1 0 0 0 1.25.27 38.55 38.55 0 0 1 10.08-3.09 1.22 1.22 0 0 0 .71-.82c.66-3 1.27-5.94 1.89-8.92.09-.41.2-.82.3-1.22C64 .42 64 .43 65.93.37c3.6-.11 7.2-.2 10.79-.36a1.08 1.08 0 0 1 1.33 1C79 4.4 80 7.81 80.88 11.24a1.28 1.28 0 0 0 1.18 1.1c3.49.69 7 1.46 10.42 2.27a1.07 1.07 0 0 0 1.22-.42c2.23-2.48 4.52-4.9 6.71-7.42a1.64 1.64 0 0 1 2.39-.49q1.71 1 3.46 2c2.21 1.21 4.43 2.43 6.67 3.58a.93.93 0 0 1 .49 1.31c-.9 3.54-1.77 7.08-2.65 10.64 1.69 1.38 3.44 2.7 5.06 4.18 1.43 1.3 2.69 2.78 4.05 4.15a.87.87 0 0 0 .73.14c3.4-1 6.79-2.12 10.2-3.15a.94.94 0 0 1 .82.3c1 1.49 1.84 3 2.78 4.54s2 3 3 4.56c.43.67.78 1.4 1.24 2.22l-3.69 3.75c-1.27 1.29-2.55 2.56-3.76 3.9a1.47 1.47 0 0 0-.27 1.25c1.45 3.7 3 7.39 3.47 11.38a1.13 1.13 0 0 0 .77.63c3.28.76 6.57 1.47 9.86 2.2.18 0 .36.11.8.24v6.16c0 2.27.1 4.53.21 6.8a.89.89 0 0 1-.78 1.07c-3.12.84-6.23 1.73-9.36 2.55a1.14 1.14 0 0 0-1 1.08 49 49 0 0 1-2.72 11.39 1.19 1.19 0 0 0 .3 1c1.54 1.47 3.13 2.89 4.71 4.32.91.82 1.79 1.66 2.73 2.44a.8.8 0 0 1 .22 1.22c-1.69 3-3.34 6-5 9-.43.79-.8 1.62-1.26 2.55l-5.45-1.43c-1.69-.45-3.38-.89-5.06-1.37a1 1 0 0 0-1.26.39 54.88 54.88 0 0 1-8.13 8.46.9.9 0 0 0-.23 1.18c.6 1.74 1.22 3.48 1.78 5.23q.74 2.31 1.34 4.65a1 1 0 0 1-.35.91c-2.38 1.48-4.81 2.89-7.2 4.36-1.32.81-2.6 1.67-3.94 2.53L99.74 133c-.81-.79-1.65-1.54-2.41-2.37a.86.86 0 0 0-1.18-.22 49 49 0 0 1-10.79 3.11 1.2 1.2 0 0 0-1 1.16c-.72 3.38-1.43 6.77-2.18 10.14a1 1 0 0 1-.68.68c-4.37.18-8.75.32-13.2.46-.18-.59-.35-1.14-.51-1.68-.85-3.05-1.72-6.1-2.52-9.16a1.33 1.33 0 0 0-1.27-1.03c-3.26-.68-6.52-1.4-9.75-2.21-1.67-.42-2-.25-3.17 1.12-2.11 2.51-4.38 4.89-6.57 7.32l-10.68-5.67-.6-.32a1.18 1.18 0 0 1-.62-1.62c.92-3.4 1.75-6.82 2.58-10.24a1 1 0 0 0-.23-.82c-1-.86-2-1.63-2.93-2.51q-2.75-2.58-5.42-5.24a.88.88 0 0 0-1.08-.24c-3.61 1.14-7.23 2.22-11.02 3.34zm101.67-43.62c.25-23.3-19.48-42.72-42.75-42.64a42.76 42.76 0 1 0 42.75 42.64z"/><path class="cls-1" d="M85.44 53l-.49 4.88a.18.18 0 0 1 0 .06c-.53 1.14.09 1.75.94 2.44a1.88 1.88 0 0 0 2 .46c1.51-.47 3-.81 4.57-1.23a.59.59 0 0 1 .79.27c.71 1.23 1.45 2.45 2.15 3.69a.66.66 0 0 1-.11.6c-1.28 1.41-2.58 2.8-3.86 4.21a.87.87 0 0 0-.14.65 17.77 17.77 0 0 0 .41 1.84.7.7 0 0 0 .37.39c1.7.7 3.4 1.39 5.11 2.05a.64.64 0 0 1 .5.77c-.15 1.51-.27 3-.39 4.52l-1.18.25c-1.58.32-3.16.64-4.75.95a.6.6 0 0 0-.53.46 7.81 7.81 0 0 1-.71 1.49.92.92 0 0 0 .09 1.14c.95 1.44 1.86 2.9 2.8 4.34A.62.62 0 0 1 93 88a18.26 18.26 0 0 1-3 3.27.58.58 0 0 1-.5 0c-1-.44-2-.92-3-1.37-.73-.32-1.47-.63-2.21-.92a.62.62 0 0 0-.45.07 9.59 9.59 0 0 1-1.26.71 1.45 1.45 0 0 0-1 1.54c-.07 1.42-.16 2.84-.25 4.25-.06.91-.05.93-1 1.16-1.2.31-2.42.55-3.62.84a.59.59 0 0 1-.73-.4c-.84-1.52-1.71-3-2.54-4.56a.74.74 0 0 0-.73-.45c-.67 0-1.33-.11-2-.13a.78.78 0 0 0-.56.21q-1.78 2.08-3.52 4.21a.49.49 0 0 1-.65.22c-1.37-.57-2.74-1.12-4.1-1.71a.51.51 0 0 1-.23-.41c.18-1.52.38-3 .58-4.54l.1-.77a1.08 1.08 0 0 0-.33-1.09c-.5-.38-.93-.85-1.42-1.25a.76.76 0 0 0-.58-.13c-1.84.43-3.68.89-5.53 1.33a.52.52 0 0 1-.47-.15q-1.16-1.85-2.27-3.74a.57.57 0 0 1 .11-.51q1.82-2 3.67-3.93a.84.84 0 0 0 .26-1 5.22 5.22 0 0 1-.31-1.4A1.52 1.52 0 0 0 54.19 76c-.77-.26-1.51-.6-2.27-.89s-1.74-.64-2.69-1c.15-1.52.31-3 .44-4.52a.6.6 0 0 1 .62-.59c1.77-.32 3.54-.65 5.3-1a1.22 1.22 0 0 0 .72-.57 15.35 15.35 0 0 0 .82-1.93.67.67 0 0 0-.13-.56c-1-1.57-2-3.13-3-4.68a.57.57 0 0 1 0-.82l2.76-3a.51.51 0 0 1 .72-.1q2.53 1.22 5.09 2.37a.86.86 0 0 0 .65 0c.78-.38 1.36-.71 1.98-1.11a.61.61 0 0 0 .28-.4c0-.55 0-1.1.05-1.65.09-1.38.21-2.75.29-4.13a.48.48 0 0 1 .42-.53c1.41-.31 2.82-.65 4.24-.94a.7.7 0 0 1 .52.33c.93 1.6 1.85 3.21 2.73 4.84a.9.9 0 0 0 .87.55 6.66 6.66 0 0 1 1.33.13 1.13 1.13 0 0 0 1.24-.5L80 51.74c.72-.88.73-.87 1.79-.47.63.23 1.27.43 1.87.71s1.21.66 1.78 1.02zM67 62.81a12.88 12.88 0 0 0-4.49 17.83 13.18 13.18 0 0 0 17.77 4.28A12.9 12.9 0 0 0 67 62.81z"/><ellipse class="cls-2" cx="73.7" cy="73.68" rx="14.04" ry="13.93"/><ellipse class="cls-3" cx="74.22" cy="73.68" rx="6.16" ry="6.11"/><path class="cls-4" d="M78 66.73a2.17 2.17 0 0 0 2.55.31c1.77-.61 1.27-.81 2.44.72a.82.82 0 0 1 .08 1.17c-.16.21-.17.55-.35.74-.89.9-.53 1.85-.37 2.91a2.59 2.59 0 0 0 1.7 2.19c1 .46 1 .53.73 1.58 0 .19-.1.37-.14.55a1.1 1.1 0 0 1-1.21 1 3.65 3.65 0 0 0-3.19 1.87 2.51 2.51 0 0 0-.39 1.87c.11 1.72.43 1.34-1.24 2.16-1 .5-1.07.51-1.86-.32a3.26 3.26 0 0 0-2.64-1.07 3.17 3.17 0 0 0-2.54 1.05 1.59 1.59 0 0 1-.94.64 11.59 11.59 0 0 1-2.1-.89.48.48 0 0 1-.11-.34 2.25 2.25 0 0 1 0-.51 3.46 3.46 0 0 0-1.07-3.22A3.7 3.7 0 0 0 65 77.93c-1.1-.13-1.09-.18-1.3-1.29v-.12c-.25-1.22-.17-1.39 1-1.93a1.57 1.57 0 0 0 1.16-1.53c0-.6.32-1.19.36-1.79a2.19 2.19 0 0 0-.27-1.3c-1.05-1.56-1.08-1.54.1-3l.31-.43a7.9 7.9 0 0 0 2.57.77c.79 0 1.52-.74 2.33-1a1.57 1.57 0 0 0 1.12-1.06 9 9 0 0 1 .54-1.29 1.34 1.34 0 0 1 .5-.71 11.06 11.06 0 0 1 2 0 .52.52 0 0 1 .18.31c.08.26.14.53.22.79m3.73 9.79a5.3 5.3 0 0 0-5.38-5.31 5.43 5.43 0 0 0-5.36 5.32 5.54 5.54 0 0 0 5.19 5.3 5.42 5.42 0 0 0 5.43-5.29z"/></svg>