<svg id="Shapes" xmlns="http://www.w3.org/2000/svg" viewBox="0 0 119 117"><defs><style>.cls-1{fill:gray;opacity:0.5;}.cls-1,.cls-4{fill-rule:evenodd;}.cls-2{fill:#5f6766;}.cls-3{fill:#fff;}.cls-4{fill:#e35d4e;}</style></defs><title>web-design-gear-two</title><path class="cls-1" d="M11.83,93.79c-0.89-1.49-1.77-3-2.69-4.46C8.41,88.16,7.65,87,6.84,85.88S6,84,7.17,83.07a18.16,18.16,0,0,0,1.45-1.3c1.32-1.36,2.63-2.73,3.92-4.13a0.94,0.94,0,0,0,.16-0.77c-0.77-2.69-1.59-5.36-2.34-8.06a1.32,1.32,0,0,0-1.12-1.16c-2.94-.61-5.87-1.31-8.87-2,0-.9-0.1-1.83-0.13-2.75-0.08-2.52-.13-5-0.24-7.55a0.86,0.86,0,0,1,.77-1c2.67-.7,5.34-1.44,8-2.13A1.45,1.45,0,0,0,10,50.94c0.6-2.55,1.29-5.07,2-7.6A1.11,1.11,0,0,0,11.6,42C9.72,40.35,7.9,38.63,6,36.95,5.68,36.61,5.23,36.37,4.89,36a0.76,0.76,0,0,1-.16-0.7C6.06,32.88,7.44,30.47,8.79,28c0.37-.68.67-1.39,1-2.13,1.83,0.47,3.6,1,5.39,1.4,1.51,0.37,3,.76,4.55,1a2,2,0,0,0,1.2-.78c0.8-.82,1.52-1.71,2.3-2.55a12.3,12.3,0,0,1,2.33-2.3c1.24-.75,1.05-1.54.67-2.63-0.89-2.54-1.66-5.13-2.51-7.69a0.7,0.7,0,0,1,.3-1c0.55-.31,1.12-0.57,1.65-0.9,2.44-1.49,4.86-3,7.36-4.54l3.76,3.61c1.13,1.08,2.27,2.16,3.38,3.26a0.8,0.8,0,0,0,1,.22,31.81,31.81,0,0,1,8.22-2.47A1,1,0,0,0,50,9.89c0.54-2.38,1-4.76,1.54-7.15,0.07-.33.16-0.66,0.25-1,0.37-1.43.38-1.42,1.92-1.47C56.67,0.21,59.61.13,62.54,0a0.88,0.88,0,0,1,1.08.77c0.74,2.75,1.55,5.49,2.3,8.24a1,1,0,0,0,1,.88c2.84,0.55,5.67,1.17,8.49,1.82a0.88,0.88,0,0,0,1-.34c1.82-2,3.68-3.93,5.47-5.95A1.35,1.35,0,0,1,83.79,5q1.39,0.81,2.82,1.58c1.8,1,3.61,1.95,5.44,2.87a0.74,0.74,0,0,1,.4,1.05c-0.74,2.83-1.44,5.67-2.16,8.52,1.38,1.11,2.81,2.17,4.12,3.35,1.16,1,2.19,2.23,3.3,3.33a0.72,0.72,0,0,0,.6.11c2.77-.83,5.54-1.7,8.31-2.53a0.77,0.77,0,0,1,.67.24c0.78,1.2,1.5,2.43,2.27,3.64s1.62,2.43,2.4,3.66c0.35,0.54.64,1.12,1,1.78l-3,3c-1,1-2.08,2.05-3.07,3.13a1.16,1.16,0,0,0-.22,1,38.18,38.18,0,0,1,2.83,9.12,0.92,0.92,0,0,0,.63.51c2.67,0.61,5.36,1.18,8,1.76,0.15,0,.3.09,0.65,0.19,0,1.62,0,3.28,0,4.94,0,1.82.08,3.63,0.17,5.45a0.72,0.72,0,0,1-.64.86c-2.54.67-5.08,1.38-7.63,2a0.92,0.92,0,0,0-.8.87,38.75,38.75,0,0,1-2.21,9.13,0.94,0.94,0,0,0,.24.83c1.26,1.18,2.55,2.31,3.84,3.46,0.74,0.66,1.46,1.33,2.23,2a0.63,0.63,0,0,1,.18,1c-1.37,2.39-2.72,4.79-4.06,7.19-0.35.63-.65,1.3-1,2l-4.44-1.15c-1.38-.36-2.76-0.71-4.12-1.1a0.84,0.84,0,0,0-1,.31,44.32,44.32,0,0,1-6.62,6.78,0.71,0.71,0,0,0-.19.95c0.49,1.4,1,2.79,1.45,4.19q0.6,1.85,1.09,3.73a0.83,0.83,0,0,1-.28.73c-1.94,1.19-3.92,2.32-5.87,3.49-1.07.65-2.12,1.34-3.21,2l-4.61-4.43c-0.66-.63-1.34-1.23-2-1.9a0.71,0.71,0,0,0-1-.17,40.48,40.48,0,0,1-8.8,2.49,1,1,0,0,0-.84.93c-0.59,2.71-1.16,5.42-1.78,8.13a0.84,0.84,0,0,1-.55.55c-3.56.15-7.13,0.25-10.76,0.37-0.15-.47-0.29-0.91-0.41-1.35-0.69-2.44-1.4-4.89-2.06-7.34a1.08,1.08,0,0,0-1-.86c-2.66-.55-5.31-1.12-7.95-1.77-1.36-.34-1.64-0.2-2.58.9-1.72,2-3.57,3.92-5.36,5.86l-8.71-4.54-0.49-.26a0.94,0.94,0,0,1-.51-1.3c0.75-2.72,1.43-5.46,2.1-8.21a0.79,0.79,0,0,0-.19-0.65c-0.78-.69-1.62-1.31-2.39-2q-2.24-2.06-4.42-4.2a0.73,0.73,0,0,0-.88-0.19C17.87,92,14.92,92.86,11.83,93.79Zm82.87-35c0.2-18.68-15.88-34.23-34.85-34.17-19.39.06-35.15,15.59-34.92,34.6C25.15,78,40.54,93.37,60.36,93.15,79.26,92.95,94.88,77.67,94.7,58.8Z"/><path class="cls-1" d="M69.64,42.45l-0.4,3.91a0.15,0.15,0,0,1,0,0c-0.43.91,0.08,1.4,0.77,2a1.55,1.55,0,0,0,1.64.37c1.23-.38,2.49-0.65,3.73-1A0.48,0.48,0,0,1,76,48c0.58,1,1.18,2,1.75,3a0.52,0.52,0,0,1-.09.48c-1,1.13-2.11,2.24-3.14,3.37a0.69,0.69,0,0,0-.11.52,14,14,0,0,0,.33,1.47,0.56,0.56,0,0,0,.3.31c1.38,0.56,2.77,1.12,4.17,1.65a0.51,0.51,0,0,1,.41.62c-0.12,1.21-.22,2.43-0.32,3.62l-1,.2-3.87.76a0.49,0.49,0,0,0-.43.37,6.21,6.21,0,0,1-.58,1.2,0.73,0.73,0,0,0,.07.92c0.77,1.15,1.52,2.32,2.28,3.48a0.49,0.49,0,0,1,0,.63,14.73,14.73,0,0,1-2.43,2.62,0.48,0.48,0,0,1-.41,0c-0.82-.36-1.62-0.74-2.43-1.1-0.59-.26-1.2-0.51-1.8-0.74a0.51,0.51,0,0,0-.36.06,7.85,7.85,0,0,1-1,.57,1.16,1.16,0,0,0-.79,1.23c-0.06,1.14-.13,2.27-0.2,3.41,0,0.73,0,.75-0.78.93-1,.24-2,0.44-3,0.68a0.48,0.48,0,0,1-.59-0.32c-0.68-1.22-1.39-2.43-2.07-3.65a0.61,0.61,0,0,0-.6-0.36c-0.55,0-1.09-.09-1.63-0.1a0.64,0.64,0,0,0-.46.17q-1.45,1.67-2.87,3.37a0.4,0.4,0,0,1-.53.18c-1.11-.46-2.23-0.9-3.34-1.37a0.4,0.4,0,0,1-.18-0.33c0.15-1.22.31-2.43,0.47-3.64l0.08-.62a0.86,0.86,0,0,0-.4-0.87c-0.41-.3-0.76-0.68-1.16-1a0.63,0.63,0,0,0-.47-0.1l-4.5,1.06A0.43,0.43,0,0,1,44,70.46q-0.95-1.48-1.85-3a0.45,0.45,0,0,1,.09-0.41q1.48-1.59,3-3.15a0.67,0.67,0,0,0,.21-0.78A4.12,4.12,0,0,1,45.23,62a1.23,1.23,0,0,0-1.06-1.14c-0.63-.2-1.23-0.48-1.85-0.71l-2.19-.79c0.12-1.22.25-2.42,0.36-3.62a0.49,0.49,0,0,1,.5-0.49c1.45-.26,2.89-0.52,4.32-0.82A1,1,0,0,0,45.9,54a12.19,12.19,0,0,0,.67-1.55,0.53,0.53,0,0,0-.09-0.4c-0.8-1.26-1.61-2.51-2.44-3.75a0.45,0.45,0,0,1,0-.66q1.13-1.21,2.25-2.44a0.42,0.42,0,0,1,.58-0.08q2.06,1,4.15,1.9a0.72,0.72,0,0,0,.53,0c0.53-.26,1-0.55,1.55-0.84a0.49,0.49,0,0,0,.23-0.32c0-.44,0-0.88,0-1.33,0.07-1.1.17-2.21,0.24-3.31A0.38,0.38,0,0,1,54,40.77c1.15-.25,2.3-0.52,3.45-0.75a0.57,0.57,0,0,1,.43.27c0.76,1.28,1.5,2.57,2.22,3.88a0.74,0.74,0,0,0,.71.44,5.52,5.52,0,0,1,1.09.11,0.93,0.93,0,0,0,1-.4q1.16-1.43,2.33-2.84c0.59-.7.59-0.7,1.46-0.38,0.51,0.19,1,.34,1.53.57S69.17,42.18,69.64,42.45Zm-15,7.89A10.23,10.23,0,0,0,51,64.62a10.85,10.85,0,0,0,14.48,3.43,10.22,10.22,0,0,0,3.61-14.16A10.69,10.69,0,0,0,54.63,50.33Z"/><ellipse class="cls-2" cx="60.07" cy="59.04" rx="11.44" ry="11.16"/><ellipse class="cls-3" cx="60.5" cy="59.04" rx="5.02" ry="4.9"/><path class="cls-4" d="M63.59,53.48a1.8,1.8,0,0,0,2.08.25c1.44-.49,1-0.65,2,0.57a0.65,0.65,0,0,1,.07.94c-0.13.17-.14,0.44-0.29,0.59-0.72.72-.43,1.48-0.3,2.34a2.08,2.08,0,0,0,1.38,1.76c0.8,0.37.78,0.42,0.59,1.26,0,0.15-.08.29-0.12,0.44a0.89,0.89,0,0,1-1,.82,3,3,0,0,0-2.6,1.5,2,2,0,0,0-.32,1.5c0.09,1.38.35,1.07-1,1.73-0.82.4-.87,0.41-1.52-0.26a2.68,2.68,0,0,0-2.15-.86,2.6,2.6,0,0,0-2.07.84,1.3,1.3,0,0,1-.76.51,9.54,9.54,0,0,1-1.71-.71,0.38,0.38,0,0,1-.09-0.27,1.77,1.77,0,0,1,0-.41,2.75,2.75,0,0,0-.87-2.58,3,3,0,0,0-2-1c-0.89-.11-0.89-0.14-1.06-1l0-.1c-0.21-1-.14-1.11.8-1.54a1.26,1.26,0,0,0,.95-1.23c0-.48.26-1,0.29-1.44a1.73,1.73,0,0,0-.22-1c-0.86-1.25-.88-1.23.08-2.41L54,53.32a6.52,6.52,0,0,0,2.09.62,8.13,8.13,0,0,0,1.9-.83,1.27,1.27,0,0,0,.91-0.85,7.11,7.11,0,0,1,.44-1,1.07,1.07,0,0,1,.41-0.57,9.17,9.17,0,0,1,1.6,0,0.42,0.42,0,0,1,.15.25c0.07,0.21.11,0.43,0.18,0.64m3,7.85a4.29,4.29,0,0,0-4.39-4.25A4.39,4.39,0,0,0,56,59.44a4.48,4.48,0,0,0,4.35,4.23A4.38,4.38,0,0,0,64.74,59.43Z"/></svg>